<?xml version="1.0" standalone="no"?>
<!DOCTYPE svg PUBLIC "-//W3C//DTD SVG 20010904//EN"
 "http://www.w3.org/TR/2001/REC-SVG-20010904/DTD/svg10.dtd">
<svg version="1.0" xmlns="http://www.w3.org/2000/svg"
 width="300.000000pt" height="142.000000pt" viewBox="0 0 300.000000 142.000000"
 preserveAspectRatio="xMidYMid meet">
<metadata>
Created by potrace 1.10, written by Peter Selinger 2001-2011
</metadata>
<g transform="translate(0.000000,142.000000) scale(0.100000,-0.100000)"
fill="#000000" stroke="none">
<path d="M235 1407 c-2 -7 -23 -69 -46 -139 l-42 -128 -75 0 c-66 0 -73 -2
-62 -15 10 -12 30 -15 88 -13 l75 3 16 52 c14 49 17 51 55 57 30 5 51 18 83
52 47 49 54 79 25 114 -21 25 -110 38 -117 17z m89 -33 c20 -20 20 -22 -4 -62
-19 -31 -84 -72 -96 -60 -6 6 19 85 37 119 12 23 42 25 63 3z"/>
<path d="M530 1270 c-24 -47 -32 -121 -13 -127 6 -2 14 10 18 27 7 31 73 90
102 90 17 0 17 20 1 21 -27 3 -44 -3 -65 -24 -25 -22 -29 -17 -12 15 7 13 8
23 1 30 -7 7 -17 -3 -32 -32z"/>
<path d="M700 1281 c-30 -30 -30 -31 -15 -67 18 -44 12 -56 -23 -48 l-27 5 24
-21 c13 -11 31 -18 38 -15 8 3 19 5 24 5 14 0 11 38 -6 70 -14 28 -14 31 6 51
l22 22 9 -24 c9 -24 10 -24 24 -4 39 53 -27 76 -76 26z"/>
<path d="M386 1269 c-21 -25 -26 -40 -24 -72 2 -23 10 -44 19 -50 20 -13 68
-1 76 19 8 20 -5 30 -19 16 -22 -22 -48 -14 -48 14 0 21 3 24 20 19 33 -10 72
21 68 53 -2 22 -9 28 -34 30 -25 2 -37 -3 -58 -29z m62 -11 c-3 -7 -15 -15
-28 -16 -21 -3 -22 -2 -11 12 16 19 44 21 39 4z"/>
<path d="M855 1284 c-26 -27 -46 -74 -43 -102 2 -21 9 -28 31 -30 32 -4 87 44
87 76 0 11 5 22 12 24 6 2 8 10 4 16 -4 7 -16 10 -26 7 -11 -3 -20 0 -24 10
-7 19 -20 19 -41 -1z m33 -43 c17 -10 1 -41 -30 -60 -28 -17 -31 -9 -14 33 16
37 22 41 44 27z"/>
<path d="M982 1255 c-24 -49 -28 -90 -11 -101 6 -3 28 11 50 32 39 38 39 38
39 12 0 -32 26 -56 42 -40 7 7 20 12 31 12 14 0 17 -5 11 -22 -17 -56 -62
-100 -229 -225 -119 -89 -219 -185 -245 -233 -80 -149 25 -263 366 -401 172
-70 430 -152 662 -210 101 -25 175 -50 188 -61 16 -15 31 -18 63 -14 53 6 61
12 61 42 0 24 -9 34 -77 92 -32 26 -32 28 -18 57 18 35 103 95 135 95 l22 0
-20 -34 c-23 -38 -19 -51 10 -35 26 14 41 55 28 80 -30 54 -177 -17 -208 -101
-14 -36 1 -64 52 -100 48 -32 58 -53 30 -64 -30 -11 -61 -6 -79 14 -10 11 -23
20 -30 20 -30 0 -411 108 -582 165 -319 106 -524 210 -574 291 -64 104 -3 195
261 394 145 109 176 139 202 197 15 34 16 47 8 64 -10 17 -18 20 -46 14 -29
-5 -34 -3 -34 14 0 28 -10 51 -23 51 -6 0 -26 -15 -45 -32 l-34 -33 17 40 c21
52 22 57 10 61 -6 3 -21 -16 -33 -41z"/>
<path d="M2546 244 c-9 -24 13 -47 30 -33 10 8 11 16 3 30 -12 23 -25 24 -33
3z"/>
<path d="M2236 165 c-27 -64 -38 -117 -28 -127 14 -14 32 -1 32 21 0 23 48 68
88 82 17 6 29 15 26 20 -9 15 -45 10 -75 -12 l-29 -21 12 26 c8 20 8 30 0 38
-8 8 -15 1 -26 -27z"/>
<path d="M2091 155 c-33 -38 -40 -80 -18 -107 20 -26 44 -28 71 -7 31 24 25
46 -6 25 -27 -19 -48 -10 -48 20 0 20 4 23 28 18 36 -7 82 37 66 64 -20 32
-58 26 -93 -13z"/>
<path d="M2784 165 c-14 -14 -29 -25 -35 -25 -5 0 -7 -18 -3 -42 9 -70 10 -71
52 -63 20 4 74 9 120 12 62 3 82 8 82 19 0 21 -162 20 -180 -1 -19 -23 -40
-18 -40 10 0 19 5 25 21 25 50 0 81 41 53 71 -23 25 -40 24 -70 -6z m56 -15
c0 -12 -40 -33 -48 -25 -4 4 2 13 12 21 23 16 36 18 36 4z"/>
<path d="M2370 131 c0 -54 14 -101 29 -101 11 0 91 108 91 122 0 22 -30 4 -56
-34 l-29 -42 -5 49 c-7 67 -30 72 -30 6z"/>
<path d="M2628 163 c-52 -60 -50 -133 4 -133 26 0 78 28 78 41 0 7 -9 9 -22 5
-69 -19 -68 -19 -68 2 0 10 9 31 21 46 17 22 24 24 35 15 22 -18 42 4 24 26
-17 20 -53 19 -72 -2z"/>
<path d="M2512 109 c-10 -40 -10 -55 0 -66 10 -13 14 -6 25 38 16 70 16 79 0
79 -8 0 -18 -21 -25 -51z"/>
</g>
</svg>
