<?xml version="1.0" encoding="UTF-8"?>
<svg id="_レイヤー_2" data-name="レイヤー 2" xmlns="http://www.w3.org/2000/svg" xmlns:xlink="http://www.w3.org/1999/xlink" viewBox="0 0 647.16 404.67">
  <defs>
    <style>
      .cls-1 {
        fill: #daf2ee;
      }

      .cls-2, .cls-3 {
        fill: none;
      }

      .cls-3 {
        clip-path: url(#clippath);
      }

      .cls-4 {
        fill: #acbfbc;
      }
    </style>
    <clipPath id="clippath">
      <rect class="cls-2" width="647.16" height="404.67"/>
    </clipPath>
  </defs>
  <g id="_レイヤー_2-2" data-name="レイヤー 2">
    <g class="cls-3">
      <g>
        <g id="_リピートグリッド_" data-name="&amp;lt;リピートグリッド&amp;gt;">
          <path class="cls-4" d="m-86.11,78.01c-9.47,8.05-22.39,4.37-22.95,4.21-.63-.19-1.06-.79-1.01-1.45.04-.66.53-1.2,1.19-1.31,6.48-1.06,10.18-5.08,12.22-8.63-8.02-6.91-12.26-15.04-12.26-23.56,0-11.71,8.02-23.63,22.01-32.72C-72.47,5.17-53.74,0-34.17,0-14.72,0,5.11,5.3,20.25,14.53c15.1,9.21,23.76,21.14,23.76,32.74s-8.47,22.31-23.84,30.37c-14.63,7.67-34.44,12.07-54.34,12.07-19.67,0-38.06-4.15-51.94-11.69Zm.74-61.08c-13.17,8.55-20.72,19.61-20.72,30.34,0,7.96,4.19,15.61,12.12,22.13.51.42.66,1.15.36,1.74-1.6,3.14-4.33,6.86-8.85,9.19,4.39.17,10.45-.62,15.18-5.07.45-.42,1.13-.51,1.67-.2,13.56,7.62,31.83,11.82,51.44,11.82,40.84,0,75.34-18.13,75.34-39.6,0-22.84-36.61-44.43-75.34-44.43-19.02,0-37.2,5.01-51.2,14.1Z"/>
        </g>
        <g id="_リピートグリッド_-2" data-name="&amp;lt;リピートグリッド&amp;gt;">
          <g>
            <path class="cls-4" d="m130.02,78.01c-9.47,8.05-22.39,4.37-22.95,4.21-.63-.19-1.06-.79-1.01-1.45.04-.66.53-1.2,1.19-1.31,6.48-1.06,10.18-5.08,12.22-8.63-8.02-6.91-12.26-15.04-12.26-23.56,0-11.71,8.02-23.63,22.01-32.72C143.66,5.17,162.39,0,181.96,0c19.45,0,39.28,5.3,54.42,14.53,15.1,9.21,23.76,21.14,23.76,32.74s-8.47,22.31-23.84,30.37c-14.63,7.67-34.44,12.07-54.34,12.07-19.67,0-38.06-4.15-51.94-11.69Zm.74-61.08c-13.17,8.55-20.72,19.61-20.72,30.34,0,7.96,4.19,15.61,12.12,22.13.51.42.66,1.15.36,1.74-1.6,3.14-4.33,6.86-8.85,9.19,4.39.17,10.45-.62,15.18-5.07.45-.42,1.13-.51,1.67-.2,13.56,7.62,31.83,11.82,51.44,11.82,40.84,0,75.34-18.13,75.34-39.6,0-22.84-36.61-44.43-75.34-44.43-19.02,0-37.2,5.01-51.2,14.1Z"/>
            <path class="cls-1" d="m23.97,184.06c-9.47,8.05-22.39,4.37-22.95,4.21-.63-.19-1.06-.79-1.01-1.45.04-.66.53-1.2,1.19-1.31,6.48-1.06,10.18-5.08,12.22-8.63-8.02-6.91-12.26-15.04-12.26-23.56,0-11.71,8.02-23.63,22.01-32.72,14.45-9.39,33.18-14.55,52.74-14.55,19.45,0,39.28,5.3,54.42,14.53,15.1,9.21,23.76,21.14,23.76,32.74s-8.47,22.31-23.84,30.37c-14.63,7.67-34.44,12.07-54.34,12.07-19.67,0-38.06-4.15-51.94-11.69Zm.74-61.08c-13.17,8.55-20.72,19.61-20.72,30.34,0,7.96,4.19,15.61,12.12,22.13.51.42.66,1.15.36,1.74-1.6,3.14-4.33,6.86-8.85,9.19,4.39.17,10.45-.62,15.18-5.07.45-.42,1.13-.51,1.67-.2,13.56,7.62,31.83,11.82,51.44,11.82,40.84,0,75.34-18.13,75.34-39.6,0-22.84-36.61-44.43-75.34-44.43-19.02,0-37.2,5.01-51.2,14.1Z"/>
          </g>
        </g>
        <g id="_リピートグリッド_-3" data-name="&amp;lt;リピートグリッド&amp;gt;">
          <g>
            <path class="cls-4" d="m346.14,78.01c-9.47,8.05-22.39,4.37-22.95,4.21-.63-.19-1.06-.79-1.01-1.45.04-.66.53-1.2,1.19-1.31,6.48-1.06,10.18-5.08,12.22-8.63-8.02-6.91-12.26-15.04-12.26-23.56,0-11.71,8.02-23.63,22.01-32.72C359.79,5.17,378.52,0,398.08,0c19.45,0,39.28,5.3,54.42,14.53,15.1,9.21,23.76,21.14,23.76,32.74s-8.47,22.31-23.84,30.37c-14.63,7.67-34.44,12.07-54.34,12.07-19.67,0-38.06-4.15-51.94-11.69Zm.74-61.08c-13.17,8.55-20.72,19.61-20.72,30.34,0,7.96,4.19,15.61,12.12,22.13.51.42.66,1.15.36,1.74-1.6,3.14-4.33,6.86-8.85,9.19,4.39.17,10.45-.62,15.18-5.07.45-.42,1.13-.51,1.67-.2,13.56,7.62,31.83,11.82,51.44,11.82,40.84,0,75.34-18.13,75.34-39.6,0-22.84-36.61-44.43-75.34-44.43-19.02,0-37.2,5.01-51.2,14.1Z"/>
            <path class="cls-1" d="m240.09,184.06c-9.47,8.05-22.39,4.37-22.95,4.21-.63-.19-1.06-.79-1.01-1.45.04-.66.53-1.2,1.19-1.31,6.48-1.06,10.18-5.08,12.22-8.63-8.02-6.91-12.26-15.04-12.26-23.56,0-11.71,8.02-23.63,22.01-32.72,14.45-9.39,33.18-14.55,52.74-14.55,19.45,0,39.28,5.3,54.42,14.53,15.1,9.21,23.76,21.14,23.76,32.74s-8.47,22.31-23.84,30.37c-14.63,7.67-34.44,12.07-54.34,12.07-19.67,0-38.06-4.15-51.94-11.69Zm.74-61.08c-13.17,8.55-20.72,19.61-20.72,30.34,0,7.96,4.19,15.61,12.12,22.13.51.42.66,1.15.36,1.74-1.6,3.14-4.33,6.86-8.85,9.19,4.39.17,10.45-.62,15.18-5.07.45-.42,1.13-.51,1.67-.2,13.56,7.62,31.83,11.82,51.44,11.82,40.84,0,75.34-18.13,75.34-39.6,0-22.84-36.61-44.43-75.34-44.43-19.02,0-37.2,5.01-51.2,14.1Z"/>
          </g>
        </g>
        <g id="_リピートグリッド_-4" data-name="&amp;lt;リピートグリッド&amp;gt;">
          <g>
            <path class="cls-4" d="m562.27,78.01c-9.47,8.05-22.39,4.37-22.95,4.21-.63-.19-1.06-.79-1.01-1.45.04-.66.53-1.2,1.19-1.31,6.48-1.06,10.18-5.08,12.22-8.63-8.02-6.91-12.26-15.04-12.26-23.56,0-11.71,8.02-23.63,22.01-32.72C575.91,5.17,594.64,0,614.21,0c19.45,0,39.28,5.3,54.42,14.53,15.1,9.21,23.76,21.14,23.76,32.74s-8.47,22.31-23.84,30.37c-14.63,7.67-34.44,12.07-54.34,12.07-19.67,0-38.06-4.15-51.94-11.69Zm.74-61.08c-13.17,8.55-20.72,19.61-20.72,30.34,0,7.96,4.19,15.61,12.12,22.13.51.42.66,1.15.36,1.74-1.6,3.14-4.33,6.86-8.85,9.19,4.39.17,10.45-.62,15.18-5.07.45-.42,1.13-.51,1.67-.2,13.56,7.62,31.83,11.82,51.44,11.82,40.84,0,75.34-18.13,75.34-39.6,0-22.84-36.61-44.43-75.34-44.43-19.02,0-37.2,5.01-51.2,14.1Z"/>
            <path class="cls-1" d="m456.22,184.06c-9.47,8.05-22.39,4.37-22.95,4.21-.63-.19-1.06-.79-1.01-1.45.04-.66.53-1.2,1.19-1.31,6.48-1.06,10.18-5.08,12.22-8.63-8.02-6.91-12.26-15.04-12.26-23.56,0-11.71,8.02-23.63,22.01-32.72,14.45-9.39,33.18-14.55,52.74-14.55,19.45,0,39.28,5.3,54.42,14.53,15.1,9.21,23.76,21.14,23.76,32.74s-8.47,22.31-23.84,30.37c-14.63,7.67-34.44,12.07-54.34,12.07-19.67,0-38.06-4.15-51.94-11.69Zm.74-61.08c-13.17,8.55-20.72,19.61-20.72,30.34,0,7.96,4.19,15.61,12.12,22.13.51.42.66,1.15.36,1.74-1.6,3.14-4.33,6.86-8.85,9.19,4.39.17,10.45-.62,15.18-5.07.45-.42,1.13-.51,1.67-.2,13.56,7.62,31.83,11.82,51.44,11.82,40.84,0,75.34-18.13,75.34-39.6,0-22.84-36.61-44.43-75.34-44.43-19.02,0-37.2,5.01-51.2,14.1Z"/>
          </g>
        </g>
        <g id="_リピートグリッド_-5" data-name="&amp;lt;リピートグリッド&amp;gt;">
          <path class="cls-4" d="m-86.11,286.03c-9.47,8.05-22.39,4.37-22.95,4.21-.63-.19-1.06-.79-1.01-1.45.04-.66.53-1.2,1.19-1.31,6.48-1.06,10.18-5.08,12.22-8.63-8.02-6.91-12.26-15.04-12.26-23.56,0-11.71,8.02-23.63,22.01-32.72,14.45-9.39,33.18-14.55,52.74-14.55,19.45,0,39.28,5.3,54.42,14.53,15.1,9.21,23.76,21.14,23.76,32.74s-8.47,22.31-23.84,30.37c-14.63,7.67-34.44,12.07-54.34,12.07-19.67,0-38.06-4.15-51.94-11.69Zm.74-61.08c-13.17,8.55-20.72,19.61-20.72,30.34,0,7.96,4.19,15.61,12.12,22.13.51.42.66,1.15.36,1.74-1.6,3.14-4.33,6.86-8.85,9.19,4.39.17,10.45-.62,15.18-5.07.45-.42,1.13-.51,1.67-.2,13.56,7.62,31.83,11.82,51.44,11.82,40.84,0,75.34-18.13,75.34-39.6,0-22.84-36.61-44.43-75.34-44.43-19.02,0-37.2,5.01-51.2,14.1Z"/>
        </g>
        <g id="_リピートグリッド_-6" data-name="&amp;lt;リピートグリッド&amp;gt;">
          <g>
            <path class="cls-4" d="m130.02,286.03c-9.47,8.05-22.39,4.37-22.95,4.21-.63-.19-1.06-.79-1.01-1.45.04-.66.53-1.2,1.19-1.31,6.48-1.06,10.18-5.08,12.22-8.63-8.02-6.91-12.26-15.04-12.26-23.56,0-11.71,8.02-23.63,22.01-32.72,14.45-9.39,33.18-14.55,52.74-14.55,19.45,0,39.28,5.3,54.42,14.53,15.1,9.21,23.76,21.14,23.76,32.74s-8.47,22.31-23.84,30.37c-14.63,7.67-34.44,12.07-54.34,12.07-19.67,0-38.06-4.15-51.94-11.69Zm.74-61.08c-13.17,8.55-20.72,19.61-20.72,30.34,0,7.96,4.19,15.61,12.12,22.13.51.42.66,1.15.36,1.74-1.6,3.14-4.33,6.86-8.85,9.19,4.39.17,10.45-.62,15.18-5.07.45-.42,1.13-.51,1.67-.2,13.56,7.62,31.83,11.82,51.44,11.82,40.84,0,75.34-18.13,75.34-39.6,0-22.84-36.61-44.43-75.34-44.43-19.02,0-37.2,5.01-51.2,14.1Z"/>
            <path class="cls-1" d="m23.97,392.08c-9.47,8.05-22.39,4.37-22.95,4.21-.63-.19-1.06-.79-1.01-1.45.04-.66.53-1.2,1.19-1.31,6.48-1.06,10.18-5.08,12.22-8.63-8.02-6.91-12.26-15.04-12.26-23.56,0-11.71,8.02-23.63,22.01-32.72,14.45-9.39,33.18-14.55,52.74-14.55,19.45,0,39.28,5.3,54.42,14.53,15.1,9.21,23.76,21.14,23.76,32.74s-8.47,22.31-23.84,30.37c-14.63,7.67-34.44,12.07-54.34,12.07-19.67,0-38.06-4.15-51.94-11.69Zm.74-61.08c-13.17,8.55-20.72,19.61-20.72,30.34,0,7.96,4.19,15.61,12.12,22.13.51.42.66,1.15.36,1.74-1.6,3.14-4.33,6.86-8.85,9.19,4.39.17,10.45-.62,15.18-5.07.45-.42,1.13-.51,1.67-.2,13.56,7.62,31.83,11.82,51.44,11.82,40.84,0,75.34-18.13,75.34-39.6,0-22.84-36.61-44.43-75.34-44.43-19.02,0-37.2,5.01-51.2,14.1Z"/>
          </g>
        </g>
        <g id="_リピートグリッド_-7" data-name="&amp;lt;リピートグリッド&amp;gt;">
          <g>
            <path class="cls-4" d="m346.14,286.03c-9.47,8.05-22.39,4.37-22.95,4.21-.63-.19-1.06-.79-1.01-1.45.04-.66.53-1.2,1.19-1.31,6.48-1.06,10.18-5.08,12.22-8.63-8.02-6.91-12.26-15.04-12.26-23.56,0-11.71,8.02-23.63,22.01-32.72,14.45-9.39,33.18-14.55,52.74-14.55,19.45,0,39.28,5.3,54.42,14.53,15.1,9.21,23.76,21.14,23.76,32.74s-8.47,22.31-23.84,30.37c-14.63,7.67-34.44,12.07-54.34,12.07-19.67,0-38.06-4.15-51.94-11.69Zm.74-61.08c-13.17,8.55-20.72,19.61-20.72,30.34,0,7.96,4.19,15.61,12.12,22.13.51.42.66,1.15.36,1.74-1.6,3.14-4.33,6.86-8.85,9.19,4.39.17,10.45-.62,15.18-5.07.45-.42,1.13-.51,1.67-.2,13.56,7.62,31.83,11.82,51.44,11.82,40.84,0,75.34-18.13,75.34-39.6,0-22.84-36.61-44.43-75.34-44.43-19.02,0-37.2,5.01-51.2,14.1Z"/>
            <path class="cls-1" d="m240.09,392.08c-9.47,8.05-22.39,4.37-22.95,4.21-.63-.19-1.06-.79-1.01-1.45.04-.66.53-1.2,1.19-1.31,6.48-1.06,10.18-5.08,12.22-8.63-8.02-6.91-12.26-15.04-12.26-23.56,0-11.71,8.02-23.63,22.01-32.72,14.45-9.39,33.18-14.55,52.74-14.55,19.45,0,39.28,5.3,54.42,14.53,15.1,9.21,23.76,21.14,23.76,32.74s-8.47,22.31-23.84,30.37c-14.63,7.67-34.44,12.07-54.34,12.07-19.67,0-38.06-4.15-51.94-11.69Zm.74-61.08c-13.17,8.55-20.72,19.61-20.72,30.34,0,7.96,4.19,15.61,12.12,22.13.51.42.66,1.15.36,1.74-1.6,3.14-4.33,6.86-8.85,9.19,4.39.17,10.45-.62,15.18-5.07.45-.42,1.13-.51,1.67-.2,13.56,7.62,31.83,11.82,51.44,11.82,40.84,0,75.34-18.13,75.34-39.6,0-22.84-36.61-44.43-75.34-44.43-19.02,0-37.2,5.01-51.2,14.1Z"/>
          </g>
        </g>
        <g id="_リピートグリッド_-8" data-name="&amp;lt;リピートグリッド&amp;gt;">
          <g>
            <path class="cls-4" d="m562.27,286.03c-9.47,8.05-22.39,4.37-22.95,4.21-.63-.19-1.06-.79-1.01-1.45.04-.66.53-1.2,1.19-1.31,6.48-1.06,10.18-5.08,12.22-8.63-8.02-6.91-12.26-15.04-12.26-23.56,0-11.71,8.02-23.63,22.01-32.72,14.45-9.39,33.18-14.55,52.74-14.55,19.45,0,39.28,5.3,54.42,14.53,15.1,9.21,23.76,21.14,23.76,32.74s-8.47,22.31-23.84,30.37c-14.63,7.67-34.44,12.07-54.34,12.07-19.67,0-38.06-4.15-51.94-11.69Zm.74-61.08c-13.17,8.55-20.72,19.61-20.72,30.34,0,7.96,4.19,15.61,12.12,22.13.51.42.66,1.15.36,1.74-1.6,3.14-4.33,6.86-8.85,9.19,4.39.17,10.45-.62,15.18-5.07.45-.42,1.13-.51,1.67-.2,13.56,7.62,31.83,11.82,51.44,11.82,40.84,0,75.34-18.13,75.34-39.6,0-22.84-36.61-44.43-75.34-44.43-19.02,0-37.2,5.01-51.2,14.1Z"/>
            <path class="cls-1" d="m456.22,392.08c-9.47,8.05-22.39,4.37-22.95,4.21-.63-.19-1.06-.79-1.01-1.45.04-.66.53-1.2,1.19-1.31,6.48-1.06,10.18-5.08,12.22-8.63-8.02-6.91-12.26-15.04-12.26-23.56,0-11.71,8.02-23.63,22.01-32.72,14.45-9.39,33.18-14.55,52.74-14.55,19.45,0,39.28,5.3,54.42,14.53,15.1,9.21,23.76,21.14,23.76,32.74s-8.47,22.31-23.84,30.37c-14.63,7.67-34.44,12.07-54.34,12.07-19.67,0-38.06-4.15-51.94-11.69Zm.74-61.08c-13.17,8.55-20.72,19.61-20.72,30.34,0,7.96,4.19,15.61,12.12,22.13.51.42.66,1.15.36,1.74-1.6,3.14-4.33,6.86-8.85,9.19,4.39.17,10.45-.62,15.18-5.07.45-.42,1.13-.51,1.67-.2,13.56,7.62,31.83,11.82,51.44,11.82,40.84,0,75.34-18.13,75.34-39.6,0-22.84-36.61-44.43-75.34-44.43-19.02,0-37.2,5.01-51.2,14.1Z"/>
          </g>
        </g>
      </g>
    </g>
  </g>
</svg>