<?xml version="1.0" encoding="UTF-8"?>
<svg id="_レイヤー_2" data-name="レイヤー 2" xmlns="http://www.w3.org/2000/svg" xmlns:xlink="http://www.w3.org/1999/xlink" viewBox="0 0 1293.72 808.96">
  <defs>
    <style>
      .cls-1 {
        fill: #9bc1bc;
      }

      .cls-2, .cls-3 {
        fill: none;
      }

      .cls-3 {
        clip-path: url(#clippath);
      }
    </style>
    <clipPath id="clippath">
      <rect class="cls-2" width="1293.72" height="808.96"/>
    </clipPath>
  </defs>
  <g id="_レイヤー_2-2" data-name="レイヤー 2">
    <g class="cls-3">
      <g>
        <path class="cls-1" d="m-172.14,155.96c-18.94,16.09-44.76,8.74-45.88,8.41-1.27-.37-2.11-1.58-2.03-2.9.08-1.32,1.07-2.41,2.37-2.62,12.95-2.12,20.35-10.16,24.43-17.25-16.04-13.82-24.5-30.07-24.5-47.1,0-23.4,16.04-47.24,44-65.4C-144.87,10.33-107.42,0-68.31,0-29.44,0,10.22,10.59,40.48,29.05c30.18,18.41,47.49,42.27,47.49,65.44s-16.92,44.6-47.65,60.71c-29.24,15.33-68.84,24.13-108.63,24.13-39.32,0-76.09-8.29-103.83-23.37Zm1.48-122.11c-26.32,17.1-41.42,39.2-41.42,60.65,0,15.91,8.38,31.2,24.23,44.23,1.03.84,1.33,2.29.73,3.48-3.19,6.27-8.65,13.71-17.69,18.36,8.78.33,20.89-1.25,30.35-10.13.9-.85,2.25-1.01,3.33-.4,27.1,15.24,63.62,23.63,102.83,23.63,81.64,0,150.62-36.25,150.62-79.17,0-45.66-73.2-88.83-150.62-88.83-38.03,0-74.38,10.01-102.35,28.18Z"/>
        <g>
          <path class="cls-1" d="m259.91,155.96c-18.94,16.09-44.76,8.74-45.88,8.41-1.27-.37-2.11-1.58-2.03-2.9.08-1.32,1.07-2.41,2.37-2.62,12.95-2.12,20.35-10.16,24.43-17.25-16.04-13.82-24.5-30.07-24.5-47.1,0-23.4,16.04-47.24,44-65.4C287.19,10.33,324.63,0,363.74,0c38.88,0,78.53,10.59,108.79,29.05,30.18,18.41,47.49,42.27,47.49,65.44s-16.92,44.6-47.65,60.71c-29.24,15.33-68.84,24.13-108.63,24.13-39.32,0-76.09-8.29-103.83-23.37Zm1.48-122.11c-26.32,17.1-41.42,39.2-41.42,60.65,0,15.91,8.38,31.2,24.23,44.23,1.03.84,1.33,2.29.73,3.48-3.19,6.27-8.65,13.71-17.69,18.36,8.78.33,20.89-1.25,30.35-10.13.9-.85,2.25-1.01,3.33-.4,27.1,15.24,63.62,23.63,102.83,23.63,81.64,0,150.62-36.25,150.62-79.17,0-45.66-73.2-88.83-150.62-88.83-38.03,0-74.38,10.01-102.35,28.18Z"/>
          <path class="cls-1" d="m47.91,367.96c-18.94,16.09-44.76,8.74-45.88,8.41-1.27-.37-2.11-1.58-2.03-2.9.08-1.32,1.07-2.41,2.37-2.62,12.95-2.12,20.35-10.16,24.43-17.25-16.04-13.82-24.5-30.07-24.5-47.1,0-23.4,16.04-47.24,44-65.4,28.88-18.76,66.33-29.09,105.44-29.09,38.88,0,78.53,10.59,108.79,29.05,30.18,18.41,47.49,42.27,47.49,65.44s-16.92,44.6-47.65,60.71c-29.24,15.33-68.84,24.13-108.63,24.13-39.32,0-76.09-8.29-103.83-23.37Zm1.48-122.11c-26.32,17.1-41.42,39.2-41.42,60.65,0,15.91,8.38,31.2,24.23,44.23,1.03.84,1.33,2.29.73,3.48-3.19,6.27-8.65,13.71-17.69,18.36,8.78.33,20.89-1.25,30.35-10.13.9-.85,2.25-1.01,3.33-.4,27.1,15.24,63.62,23.63,102.83,23.63,81.64,0,150.62-36.25,150.62-79.17,0-45.66-73.2-88.83-150.62-88.83-38.03,0-74.38,10.01-102.35,28.18Z"/>
        </g>
        <g>
          <path class="cls-1" d="m691.97,155.96c-18.94,16.09-44.76,8.74-45.88,8.41-1.27-.37-2.11-1.58-2.03-2.9.08-1.32,1.07-2.41,2.37-2.62,12.95-2.12,20.35-10.16,24.43-17.25-16.04-13.82-24.5-30.07-24.5-47.1,0-23.4,16.04-47.24,44-65.4C719.24,10.33,756.69,0,795.8,0c38.88,0,78.53,10.59,108.79,29.05,30.18,18.41,47.49,42.27,47.49,65.44s-16.92,44.6-47.65,60.71c-29.24,15.33-68.84,24.13-108.63,24.13-39.32,0-76.09-8.29-103.83-23.37Zm1.48-122.11c-26.32,17.1-41.42,39.2-41.42,60.65,0,15.91,8.38,31.2,24.23,44.23,1.03.84,1.33,2.29.73,3.48-3.19,6.27-8.65,13.71-17.69,18.36,8.78.33,20.89-1.25,30.35-10.13.9-.85,2.25-1.01,3.33-.4,27.1,15.24,63.62,23.63,102.83,23.63,81.64,0,150.62-36.25,150.62-79.17,0-45.66-73.2-88.83-150.62-88.83-38.03,0-74.38,10.01-102.35,28.18Z"/>
          <path class="cls-1" d="m479.97,367.96c-18.94,16.09-44.76,8.74-45.88,8.41-1.27-.37-2.11-1.58-2.03-2.9.08-1.32,1.07-2.41,2.37-2.62,12.95-2.12,20.35-10.16,24.43-17.25-16.04-13.82-24.5-30.07-24.5-47.1,0-23.4,16.04-47.24,44-65.4,28.88-18.76,66.33-29.09,105.44-29.09,38.88,0,78.53,10.59,108.79,29.05,30.18,18.41,47.49,42.27,47.49,65.44s-16.92,44.6-47.65,60.71c-29.24,15.33-68.84,24.13-108.63,24.13-39.32,0-76.09-8.29-103.83-23.37Zm1.48-122.11c-26.32,17.1-41.42,39.2-41.42,60.65,0,15.91,8.38,31.2,24.23,44.23,1.03.84,1.33,2.29.73,3.48-3.19,6.27-8.65,13.71-17.69,18.36,8.78.33,20.89-1.25,30.35-10.13.9-.85,2.25-1.01,3.33-.4,27.1,15.24,63.62,23.63,102.83,23.63,81.64,0,150.62-36.25,150.62-79.17,0-45.66-73.2-88.83-150.62-88.83-38.03,0-74.38,10.01-102.35,28.18Z"/>
        </g>
        <g>
          <path class="cls-1" d="m1124.02,155.96c-18.94,16.09-44.76,8.74-45.88,8.41-1.27-.37-2.11-1.58-2.03-2.9.08-1.32,1.07-2.41,2.37-2.62,12.95-2.12,20.35-10.16,24.43-17.25-16.04-13.82-24.5-30.07-24.5-47.1,0-23.4,16.04-47.24,44-65.4C1151.3,10.33,1188.74,0,1227.85,0c38.88,0,78.53,10.59,108.79,29.05,30.18,18.41,47.49,42.27,47.49,65.44s-16.92,44.6-47.65,60.71c-29.24,15.33-68.84,24.13-108.63,24.13-39.32,0-76.09-8.29-103.83-23.37Zm1.48-122.11c-26.32,17.1-41.42,39.2-41.42,60.65,0,15.91,8.38,31.2,24.23,44.23,1.03.84,1.33,2.29.73,3.48-3.19,6.27-8.65,13.71-17.69,18.36,8.78.33,20.89-1.25,30.35-10.13.9-.85,2.25-1.01,3.33-.4,27.1,15.24,63.62,23.63,102.83,23.63,81.64,0,150.62-36.25,150.62-79.17,0-45.66-73.2-88.83-150.62-88.83-38.03,0-74.38,10.01-102.35,28.18Z"/>
          <path class="cls-1" d="m912.02,367.96c-18.94,16.09-44.76,8.74-45.88,8.41-1.27-.37-2.11-1.58-2.03-2.9.08-1.32,1.07-2.41,2.37-2.62,12.95-2.12,20.35-10.16,24.43-17.25-16.04-13.82-24.5-30.07-24.5-47.1,0-23.4,16.04-47.24,44-65.4,28.88-18.76,66.33-29.09,105.44-29.09,38.88,0,78.53,10.59,108.79,29.05,30.18,18.41,47.49,42.27,47.49,65.44s-16.92,44.6-47.65,60.71c-29.24,15.33-68.84,24.13-108.63,24.13-39.32,0-76.09-8.29-103.83-23.37Zm1.48-122.11c-26.32,17.1-41.42,39.2-41.42,60.65,0,15.91,8.38,31.2,24.23,44.23,1.03.84,1.33,2.29.73,3.48-3.19,6.27-8.65,13.71-17.69,18.36,8.78.33,20.89-1.25,30.35-10.13.9-.85,2.25-1.01,3.33-.4,27.1,15.24,63.62,23.63,102.83,23.63,81.64,0,150.62-36.25,150.62-79.17,0-45.66-73.2-88.83-150.62-88.83-38.03,0-74.38,10.01-102.35,28.18Z"/>
        </g>
        <path class="cls-1" d="m-172.14,571.8c-18.94,16.09-44.76,8.74-45.88,8.41-1.27-.37-2.11-1.58-2.03-2.9.08-1.32,1.07-2.41,2.37-2.62,12.95-2.12,20.35-10.16,24.43-17.25-16.04-13.82-24.5-30.07-24.5-47.1,0-23.4,16.04-47.24,44-65.4,28.88-18.76,66.33-29.09,105.44-29.09,38.88,0,78.53,10.59,108.79,29.05,30.18,18.41,47.49,42.27,47.49,65.44s-16.92,44.6-47.65,60.71c-29.24,15.33-68.84,24.13-108.63,24.13-39.32,0-76.09-8.29-103.83-23.37Zm1.48-122.11c-26.32,17.1-41.42,39.2-41.42,60.65,0,15.91,8.38,31.2,24.23,44.23,1.03.84,1.33,2.29.73,3.48-3.19,6.27-8.65,13.71-17.69,18.36,8.78.33,20.89-1.25,30.35-10.13.9-.85,2.25-1.01,3.33-.4,27.1,15.24,63.62,23.63,102.83,23.63,81.64,0,150.62-36.25,150.62-79.17,0-45.66-73.2-88.83-150.62-88.83-38.03,0-74.38,10.01-102.35,28.18Z"/>
        <g>
          <path class="cls-1" d="m259.91,571.8c-18.94,16.09-44.76,8.74-45.88,8.41-1.27-.37-2.11-1.58-2.03-2.9.08-1.32,1.07-2.41,2.37-2.62,12.95-2.12,20.35-10.16,24.43-17.25-16.04-13.82-24.5-30.07-24.5-47.1,0-23.4,16.04-47.24,44-65.4,28.88-18.76,66.33-29.09,105.44-29.09,38.88,0,78.53,10.59,108.79,29.05,30.18,18.41,47.49,42.27,47.49,65.44s-16.92,44.6-47.65,60.71c-29.24,15.33-68.84,24.13-108.63,24.13-39.32,0-76.09-8.29-103.83-23.37Zm1.48-122.11c-26.32,17.1-41.42,39.2-41.42,60.65,0,15.91,8.38,31.2,24.23,44.23,1.03.84,1.33,2.29.73,3.48-3.19,6.27-8.65,13.71-17.69,18.36,8.78.33,20.89-1.25,30.35-10.13.9-.85,2.25-1.01,3.33-.4,27.1,15.24,63.62,23.63,102.83,23.63,81.64,0,150.62-36.25,150.62-79.17,0-45.66-73.2-88.83-150.62-88.83-38.03,0-74.38,10.01-102.35,28.18Z"/>
          <path class="cls-1" d="m47.91,783.8c-18.94,16.09-44.76,8.74-45.88,8.41-1.27-.37-2.11-1.58-2.03-2.9.08-1.32,1.07-2.41,2.37-2.62,12.95-2.12,20.35-10.16,24.43-17.25-16.04-13.82-24.5-30.07-24.5-47.1,0-23.4,16.04-47.24,44-65.4,28.88-18.76,66.33-29.09,105.44-29.09,38.88,0,78.53,10.59,108.79,29.05,30.18,18.41,47.49,42.27,47.49,65.44s-16.92,44.6-47.65,60.71c-29.24,15.33-68.84,24.13-108.63,24.13-39.32,0-76.09-8.29-103.83-23.37Zm1.48-122.11c-26.32,17.1-41.42,39.2-41.42,60.65,0,15.91,8.38,31.2,24.23,44.23,1.03.84,1.33,2.29.73,3.48-3.19,6.27-8.65,13.71-17.69,18.36,8.78.33,20.89-1.25,30.35-10.13.9-.85,2.25-1.01,3.33-.4,27.1,15.24,63.62,23.63,102.83,23.63,81.64,0,150.62-36.25,150.62-79.17,0-45.66-73.2-88.83-150.62-88.83-38.03,0-74.38,10.01-102.35,28.18Z"/>
        </g>
        <g>
          <path class="cls-1" d="m691.97,571.8c-18.94,16.09-44.76,8.74-45.88,8.41-1.27-.37-2.11-1.58-2.03-2.9.08-1.32,1.07-2.41,2.37-2.62,12.95-2.12,20.35-10.16,24.43-17.25-16.04-13.82-24.5-30.07-24.5-47.1,0-23.4,16.04-47.24,44-65.4,28.88-18.76,66.33-29.09,105.44-29.09,38.88,0,78.53,10.59,108.79,29.05,30.18,18.41,47.49,42.27,47.49,65.44s-16.92,44.6-47.65,60.71c-29.24,15.33-68.84,24.13-108.63,24.13-39.32,0-76.09-8.29-103.83-23.37Zm1.48-122.11c-26.32,17.1-41.42,39.2-41.42,60.65,0,15.91,8.38,31.2,24.23,44.23,1.03.84,1.33,2.29.73,3.48-3.19,6.27-8.65,13.71-17.69,18.36,8.78.33,20.89-1.25,30.35-10.13.9-.85,2.25-1.01,3.33-.4,27.1,15.24,63.62,23.63,102.83,23.63,81.64,0,150.62-36.25,150.62-79.17,0-45.66-73.2-88.83-150.62-88.83-38.03,0-74.38,10.01-102.35,28.18Z"/>
          <path class="cls-1" d="m479.97,783.8c-18.94,16.09-44.76,8.74-45.88,8.41-1.27-.37-2.11-1.58-2.03-2.9.08-1.32,1.07-2.41,2.37-2.62,12.95-2.12,20.35-10.16,24.43-17.25-16.04-13.82-24.5-30.07-24.5-47.1,0-23.4,16.04-47.24,44-65.4,28.88-18.76,66.33-29.09,105.44-29.09,38.88,0,78.53,10.59,108.79,29.05,30.18,18.41,47.49,42.27,47.49,65.44s-16.92,44.6-47.65,60.71c-29.24,15.33-68.84,24.13-108.63,24.13-39.32,0-76.09-8.29-103.83-23.37Zm1.48-122.11c-26.32,17.1-41.42,39.2-41.42,60.65,0,15.91,8.38,31.2,24.23,44.23,1.03.84,1.33,2.29.73,3.48-3.19,6.27-8.65,13.71-17.69,18.36,8.78.33,20.89-1.25,30.35-10.13.9-.85,2.25-1.01,3.33-.4,27.1,15.24,63.62,23.63,102.83,23.63,81.64,0,150.62-36.25,150.62-79.17,0-45.66-73.2-88.83-150.62-88.83-38.03,0-74.38,10.01-102.35,28.18Z"/>
        </g>
        <g>
          <path class="cls-1" d="m1124.02,571.8c-18.94,16.09-44.76,8.74-45.88,8.41-1.27-.37-2.11-1.58-2.03-2.9.08-1.32,1.07-2.41,2.37-2.62,12.95-2.12,20.35-10.16,24.43-17.25-16.04-13.82-24.5-30.07-24.5-47.1,0-23.4,16.04-47.24,44-65.4,28.88-18.76,66.33-29.09,105.44-29.09,38.88,0,78.53,10.59,108.79,29.05,30.18,18.41,47.49,42.27,47.49,65.44s-16.92,44.6-47.65,60.71c-29.24,15.33-68.84,24.13-108.63,24.13-39.32,0-76.09-8.29-103.83-23.37Zm1.48-122.11c-26.32,17.1-41.42,39.2-41.42,60.65,0,15.91,8.38,31.2,24.23,44.23,1.03.84,1.33,2.29.73,3.48-3.19,6.27-8.65,13.71-17.69,18.36,8.78.33,20.89-1.25,30.35-10.13.9-.85,2.25-1.01,3.33-.4,27.1,15.24,63.62,23.63,102.83,23.63,81.64,0,150.62-36.25,150.62-79.17,0-45.66-73.2-88.83-150.62-88.83-38.03,0-74.38,10.01-102.35,28.18Z"/>
          <path class="cls-1" d="m912.02,783.8c-18.94,16.09-44.76,8.74-45.88,8.41-1.27-.37-2.11-1.58-2.03-2.9.08-1.32,1.07-2.41,2.37-2.62,12.95-2.12,20.35-10.16,24.43-17.25-16.04-13.82-24.5-30.07-24.5-47.1,0-23.4,16.04-47.24,44-65.4,28.88-18.76,66.33-29.09,105.44-29.09,38.88,0,78.53,10.59,108.79,29.05,30.18,18.41,47.49,42.27,47.49,65.44s-16.92,44.6-47.65,60.71c-29.24,15.33-68.84,24.13-108.63,24.13-39.32,0-76.09-8.29-103.83-23.37Zm1.48-122.11c-26.32,17.1-41.42,39.2-41.42,60.65,0,15.91,8.38,31.2,24.23,44.23,1.03.84,1.33,2.29.73,3.48-3.19,6.27-8.65,13.71-17.69,18.36,8.78.33,20.89-1.25,30.35-10.13.9-.85,2.25-1.01,3.33-.4,27.1,15.24,63.62,23.63,102.83,23.63,81.64,0,150.62-36.25,150.62-79.17,0-45.66-73.2-88.83-150.62-88.83-38.03,0-74.38,10.01-102.35,28.18Z"/>
        </g>
      </g>
    </g>
  </g>
</svg>