<?xml version="1.0" encoding="UTF-8"?>
<svg id="_レイヤー_2" data-name="レイヤー 2" xmlns="http://www.w3.org/2000/svg" xmlns:xlink="http://www.w3.org/1999/xlink" viewBox="0 0 337.24 337.24">
  <defs>
    <style>
      .cls-1 {
        fill: #30306d;
      }

      .cls-2, .cls-3, .cls-4 {
        fill: #fff;
      }

      .cls-5 {
        fill: #242363;
      }

      .cls-6 {
        fill: #c8c9ca;
      }

      .cls-7 {
        fill: #f4b719;
      }

      .cls-8 {
        fill: #00993e;
      }

      .cls-9 {
        fill: #dbdcdc;
      }

      .cls-10 {
        fill: #8da8b2;
      }

      .cls-11 {
        fill: #032637;
      }

      .cls-12 {
        fill: #ffb89e;
      }

      .cls-13 {
        fill: #595757;
      }

      .cls-14 {
        fill: #f0cda3;
      }

      .cls-15 {
        fill: #e50012;
      }

      .cls-3 {
        stroke-width: .5px;
      }

      .cls-3, .cls-4 {
        stroke: #dbdcdc;
      }

      .cls-3, .cls-4, .cls-16 {
        stroke-miterlimit: 10;
      }

      .cls-4 {
        stroke-width: .15px;
      }

      .cls-17 {
        fill: #e5e5e5;
      }

      .cls-16 {
        stroke: #595757;
        stroke-width: .47px;
      }

      .cls-16, .cls-18, .cls-19 {
        fill: none;
      }

      .cls-20 {
        fill: #1b1464;
      }

      .cls-21 {
        fill: #e45251;
      }

      .cls-22 {
        fill: #ffe100;
      }

      .cls-23 {
        fill: #9c9fa0;
      }

      .cls-19 {
        clip-path: url(#clippath);
      }

      .cls-24 {
        fill: #706059;
      }

      .cls-25 {
        fill: #ffd1b7;
      }

      .cls-26 {
        fill: #1eaa39;
      }

      .cls-27 {
        fill: #888;
      }

      .cls-28 {
        fill: #b4b4b5;
      }
    </style>
    <clipPath id="clippath">
      <circle class="cls-18" cx="168.62" cy="168.62" r="146"/>
    </clipPath>
  </defs>
  <g id="_レイヤー_1-2" data-name="レイヤー 1">
    <g class="cls-19">
      <rect class="cls-2" width="337.24" height="337.24"/>
      <g>
        <g>
          <path class="cls-17" d="m73.99,201.37c2.06-3.74,4.94-6.65,8.64-8.74,3.69-2.09,7.88-3.13,12.56-3.13,5.73,0,10.64,1.51,14.73,4.54,4.08,3.03,6.81,7.16,8.19,12.39h-12.94c-.96-2.02-2.33-3.56-4.09-4.61-1.77-1.05-3.77-1.58-6.02-1.58-3.62,0-6.56,1.26-8.81,3.78-2.25,2.52-3.37,5.9-3.37,10.12s1.12,7.59,3.37,10.12c2.25,2.52,5.18,3.78,8.81,3.78,2.25,0,4.25-.53,6.02-1.58,1.77-1.05,3.13-2.59,4.09-4.61h12.94c-1.38,5.23-4.11,9.35-8.19,12.35-4.08,3.01-8.99,4.51-14.73,4.51-4.68,0-8.87-1.04-12.56-3.13-3.69-2.09-6.57-4.99-8.64-8.71s-3.1-7.96-3.1-12.73,1.03-9.03,3.1-12.77Z"/>
          <path class="cls-17" d="m148.51,229.83h-18.03l-2.89,8.53h-12.32l17.48-48.31h13.63l17.48,48.31h-12.46l-2.89-8.53Zm-3.03-9.08l-5.99-17.69-5.92,17.69h11.91Z"/>
          <path class="cls-17" d="m175.76,237.12c-2.8-1.15-5.04-2.84-6.71-5.09-1.68-2.25-2.56-4.95-2.65-8.12h12.52c.18,1.79.8,3.15,1.86,4.09,1.06.94,2.43,1.41,4.13,1.41s3.12-.4,4.13-1.2c1.01-.8,1.51-1.92,1.51-3.34,0-1.19-.4-2.18-1.2-2.96-.8-.78-1.79-1.42-2.96-1.93-1.17-.5-2.83-1.08-4.99-1.72-3.12-.96-5.67-1.93-7.64-2.89-1.97-.96-3.67-2.38-5.09-4.27-1.42-1.88-2.13-4.34-2.13-7.36,0-4.5,1.63-8.02,4.89-10.56,3.26-2.55,7.5-3.82,12.73-3.82s9.61,1.27,12.87,3.82c3.26,2.55,5,6.09,5.23,10.63h-12.73c-.09-1.56-.67-2.79-1.72-3.68-1.06-.89-2.41-1.34-4.06-1.34-1.42,0-2.57.38-3.44,1.14-.87.76-1.31,1.85-1.31,3.27,0,1.56.73,2.78,2.2,3.65,1.47.87,3.76,1.81,6.88,2.82,3.12,1.06,5.65,2.06,7.6,3.03,1.95.96,3.64,2.36,5.06,4.2,1.42,1.84,2.13,4.2,2.13,7.09s-.7,5.25-2.1,7.5c-1.4,2.25-3.43,4.04-6.09,5.37-2.66,1.33-5.8,2-9.43,2s-6.7-.57-9.5-1.72Z"/>
          <path class="cls-17" d="m221.87,199.48v9.77h15.76v9.08h-15.76v10.6h17.82v9.43h-29.59v-48.31h29.59v9.43h-17.82Z"/>
          <path class="cls-17" d="m251.8,199.07v-10.94h19.06v50.24h-12.25v-39.29h-6.81Z"/>
        </g>
        <g>
          <path class="cls-9" d="m171.33,115.61c-2.24.42-4.49.85-6.73,1.27-5.87,1.11-11.73,2.22-17.6,3.33l-6.73,1.27c8.12,6.13,8.27,18.53,2.95,27.2,2.24-.42,6.61-1.25,8.85-1.68,5.87-1.11,11.73-2.22,17.6-3.33,2.24-.42,7.04-1.33,9.28-1.76-8.12-6.13-12.94-17.64-7.63-26.31Z"/>
          <rect class="cls-28" x="143.07" y="145.3" width="36.36" height="1.73" transform="translate(-24.39 32.58) rotate(-10.73)"/>
          <rect class="cls-6" x="146.12" y="128.19" width="23.44" height="1.47" transform="translate(-21.24 31.64) rotate(-10.73)"/>
          <path class="cls-9" d="m112.95,60.97h76.85c4.39,0,7.95,3.56,7.95,7.95v51.34c0,4.72-3.84,8.56-8.56,8.56h-75.8c-4.72,0-8.56-3.84-8.56-8.56v-51.17c0-4.48,3.64-8.11,8.11-8.11Z" transform="translate(-15.02 29.82) rotate(-10.73)"/>
          <path class="cls-13" d="m111.8,61.08h76.85c4.39,0,7.95,3.56,7.95,7.95v47.6h-92.91v-47.44c0-4.48,3.64-8.11,8.11-8.11Z" transform="translate(-13.92 29.51) rotate(-10.73)"/>
          <path class="cls-10" d="m129.25,49.28h41.79v79.15h-41.62c-.09,0-.17-.07-.17-.17V49.28h0Z" transform="translate(209.5 -75.21) rotate(79.27)"/>
          <path class="cls-13" d="m159.21,121.66c.29,1.52-.71,2.98-2.23,3.27s-2.98-.71-3.27-2.22.71-2.98,2.22-3.27,2.98.71,3.27,2.23Z"/>
          <rect class="cls-2" x="126.14" y="72.14" width="47.88" height="32.78" transform="translate(-13.86 29.49) rotate(-10.73)"/>
          <path class="cls-9" d="m176.77,100.26l-47.24,8.95-6.14-32.4,47.24-8.95,6.14,32.4Zm-47.08,8.72l46.85-8.88-6.07-32.01-46.85,8.88,6.07,32.01Z"/>
          <rect class="cls-9" x="123.4" y="72.29" width="47.88" height="3.97" transform="translate(-11.25 28.73) rotate(-10.73)"/>
          <rect class="cls-9" x="133.78" y="95.08" width="6.3" height="1.7" transform="translate(-15.47 27.17) rotate(-10.73)"/>
          <rect class="cls-9" x="134.26" y="97.23" width="14.13" height="1.7" transform="translate(-15.79 28.02) rotate(-10.73)"/>
          <rect class="cls-9" x="134.8" y="100.1" width="14.13" height="1.7" transform="translate(-16.31 28.18) rotate(-10.73)"/>
          <rect class="cls-9" x="129.19" y="103.94" width="47.88" height=".79" transform="translate(-16.75 30.33) rotate(-10.73)"/>
          <path class="cls-21" d="m132.27,90.19c.43.87,1.09,1.64,1.95,2.22l3.16-4.75-5.12,2.53Z"/>
          <path class="cls-21" d="m131.68,87.29c-.06,1,.14,2,.58,2.9l5.12-2.53-5.7-.36Z"/>
          <path class="cls-21" d="m134.85,82.54c-.87.43-1.64,1.09-2.22,1.95l4.75,3.16-2.53-5.12Z"/>
          <path class="cls-10" d="m137.75,81.96l-.36,5.7,3.17-4.75c-.87-.58-1.83-.88-2.8-.95Z"/>
          <path class="cls-10" d="m134.85,82.54l2.53,5.12.36-5.7c-1-.06-2,.14-2.9.58Z"/>
          <path class="cls-21" d="m132.63,84.49c-.58.87-.88,1.83-.95,2.8l5.7.36-4.75-3.16Z"/>
          <path class="cls-8" d="m134.22,92.41c.87.58,1.83.88,2.8.95l.36-5.7-3.16,4.75Z"/>
          <path class="cls-7" d="m137.38,87.66l4.75,3.17c.58-.87.88-1.83.95-2.8l-5.7-.36Z"/>
          <path class="cls-10" d="m140.55,82.9l-3.17,4.75,5.12-2.53c-.43-.87-1.09-1.64-1.95-2.22Z"/>
          <path class="cls-7" d="m142.5,85.12l-5.12,2.53,5.7.36c.06-1-.14-2-.58-2.9Z"/>
          <path class="cls-8" d="m137.38,87.66l-.36,5.7c1,.06,2-.14,2.9-.58l-2.53-5.12Z"/>
          <path class="cls-8" d="m137.38,87.66l2.53,5.12c.87-.43,1.64-1.09,2.22-1.95l-4.75-3.17Z"/>
          <polygon class="cls-10" points="163.3 97.44 158.65 92.77 154.16 98.07 153.55 97.55 158.6 91.6 163.06 96.07 166.57 88.59 167.29 88.93 163.3 97.44"/>
          <polygon class="cls-21" points="159.25 98.29 153.93 92.9 154.5 92.34 159.1 97 162.94 90.59 168.79 90.99 168.74 91.79 163.37 91.41 159.25 98.29"/>
          <rect class="cls-9" x="150.34" y="78.35" width="16.09" height="9.34" transform="translate(-12.69 30.94) rotate(-10.73)"/>
          <path class="cls-10" d="m163.8,81.2c0-.3,0-.59-.02-.89-.02-.3-.03-.58-.06-.87-.03-.29-.07-.57-.1-.85l-.07-.03c-.23.17-.46.33-.68.49-.23.16-.47.3-.69.45-.23.15-.47.27-.7.4-.23.13-.48.24-.71.35l.93.57c-.42.79-.92,1.54-1.49,2.24-.57.7-1.22,1.33-1.93,1.9-.72.56-1.5,1.04-2.34,1.42-.84.38-1.73.67-2.65.79v.06c.95-.01,1.88-.21,2.79-.5.9-.29,1.78-.7,2.6-1.2.82-.51,1.59-1.1,2.29-1.78.7-.68,1.33-1.43,1.88-2.23l.93.57c.01-.31.04-.61.03-.91Z"/>
          <path class="cls-15" d="m126.9,78.15c.07.36-.17.71-.53.78s-.71-.17-.78-.53.17-.71.53-.78.71.17.78.53Z"/>
          <path class="cls-22" d="m128.59,77.83c.07.36-.17.71-.53.78s-.71-.17-.78-.53.17-.71.53-.78.71.17.78.53Z"/>
          <path class="cls-26" d="m130.28,77.51c.07.36-.17.71-.53.78s-.71-.17-.78-.53.17-.71.53-.78.71.17.78.53Z"/>
        </g>
        <g>
          <rect class="cls-13" x="223.26" y="109.88" width="43.29" height="65" rx="4.25" ry="4.25" transform="translate(28.47 325.16) rotate(-70.35)"/>
          <rect class="cls-10" x="218.26" y="123.82" width="49.63" height="35.82" transform="translate(61.8 -73.48) rotate(19.65)"/>
          <circle class="cls-27" cx="215.61" cy="136.2" r=".7"/>
          <circle class="cls-27" cx="270.72" cy="151.6" r="2.84"/>
          <path class="cls-27" d="m219.38,127.22l-2.24,6.26c-.1.28-.4.42-.68.32h0c-.28-.1-.42-.4-.32-.68l2.24-6.26c.1-.28.4-.42.68-.32h0c.28.1.42.4.32.68Z"/>
          <rect class="cls-4" x="225.59" y="129.36" width="35.19" height="24.09" transform="translate(61.7 -73.53) rotate(19.65)"/>
          <rect class="cls-9" x="229.15" y="129.88" width="35.19" height="2.92" transform="translate(58.53 -75.32) rotate(19.65)"/>
          <rect class="cls-9" x="221.65" y="152.26" width="35.19" height=".58" transform="translate(65.22 -71.56) rotate(19.65)"/>
          <path class="cls-15" d="m232.35,126.2c-.09.25-.37.39-.62.3s-.39-.37-.3-.62.37-.39.62-.3.39.37.3.62Z"/>
          <path class="cls-22" d="m233.54,126.63c-.09.25-.37.39-.62.3s-.39-.37-.3-.62.37-.39.62-.3.39.37.3.62Z"/>
          <path class="cls-26" d="m234.73,127.05c-.09.25-.37.39-.62.3s-.39-.37-.3-.62.37-.39.62-.3.39.37.3.62Z"/>
          <rect class="cls-8" x="252.25" y="149.36" width="2.25" height="4.78" transform="translate(440.97 379.87) rotate(-160.35)"/>
          <rect class="cls-7" x="249.98" y="143.46" width="2.25" height="9.73" transform="translate(437.73 372.43) rotate(-160.35)"/>
          <rect class="cls-21" x="247.31" y="139.87" width="2.25" height="12.28" transform="translate(433.32 367.06) rotate(-160.35)"/>
          <rect class="cls-10" x="243.41" y="143.41" width="2.25" height="7.5" transform="translate(425.36 367.97) rotate(-160.35)"/>
          <line class="cls-16" x1="254.89" y1="154.83" x2="240.76" y2="149.79"/>
          <rect class="cls-9" x="230.21" y="131.04" width="6.5" height="1.76" transform="translate(57.95 -70.82) rotate(19.65)"/>
          <rect class="cls-9" x="228.84" y="135.58" width="14.58" height="1.76" transform="translate(59.63 -71.45) rotate(19.65)"/>
          <rect class="cls-9" x="227.71" y="138.76" width="14.58" height="1.76" transform="translate(60.63 -70.88) rotate(19.65)"/>
          <rect class="cls-9" x="226.57" y="141.93" width="14.58" height="1.76" transform="translate(61.63 -70.32) rotate(19.65)"/>
          <rect class="cls-9" x="225.44" y="145.11" width="14.58" height="1.76" transform="translate(62.64 -69.75) rotate(19.65)"/>
        </g>
        <g>
          <path class="cls-14" d="m99.67,200.05l-4.68-2.73c-.04-.11-.07-.21-.11-.32-2.26-6.01-8.96-9.06-14.98-6.8l-17.14,6.43.88,2.34c3.31,8.82,13.11,12.84,22.24,10.75l.2-.08,5.95,3.47,7.63-13.07Z"/>
          <path class="cls-14" d="m59.66,183.4h0c-.5,1.32-1.97,1.99-3.3,1.49l-7.81-2.94c-1.32-.5-1.99-1.97-1.49-3.3h0c.5-1.32,1.97-1.99,3.3-1.49l7.81,2.94c1.32.5,1.99,1.97,1.49,3.3Z"/>
          <rect class="cls-3" x="55.39" y="157.36" width="28.6" height="50" rx="3.03" ry="3.03" transform="translate(-59.63 36.11) rotate(-20.57)"/>
          <rect class="cls-10" x="50.32" y="169.09" width="37.41" height="23" transform="translate(213.85 52.52) rotate(69.43)"/>
          <circle class="cls-9" cx="58.22" cy="162.43" r=".54"/>
          <path class="cls-9" d="m79.09,201.19c.42,1.13-.15,2.39-1.28,2.81s-2.39-.15-2.81-1.28.15-2.39,1.28-2.81,2.39.15,2.81,1.28Z"/>
          <path class="cls-9" d="m65.36,160.18l-4.79,1.8c-.21.08-.45-.03-.52-.24h0c-.08-.21.03-.45.24-.52l4.79-1.8c.21-.08.45.03.52.24h0c.08.21-.03.45-.24.52Z"/>
          <path class="cls-14" d="m62.76,197.85h.45c.97,0,1.76.79,1.76,1.76v4.51c0,1.21-.98,2.19-2.19,2.19h-.03c-1.21,0-2.19-.98-2.19-2.19v-4.08c0-1.21.98-2.19,2.19-2.19Z" transform="translate(-148.83 203.27) rotate(-73.06)"/>
          <path class="cls-14" d="m65.85,197.64h0c-.42,1.13-1.75,1.68-2.95,1.22l-6.8-2.56c-1.21-.45-1.84-1.74-1.42-2.87l.31-.82c.25-.67,1.04-1,1.76-.73l7.89,2.17c1.21.45,1.62,2.46,1.2,3.58Z"/>
          <path class="cls-14" d="m63.37,190.95h0c-.42,1.13-1.67,1.7-2.78,1.29l-6.26-2.36c-1.11-.42-1.67-1.67-1.24-2.8l.31-.82c.25-.67,1-1.02,1.66-.77l7.21,1.98c1.11.42,1.53,2.36,1.11,3.49Z"/>
          <path class="cls-14" d="m93.74,196.57l-12.66-16.82c-.67-.89-1.93-1.07-2.82-.4-2.13,1.6-2.55,4.63-.95,6.75l6.39,8.48c-.55,1.53-.32,3.74.77,5.85,1.63,3.15,4.53,4.89,6.49,3.88.94-.49,1.49-1.52,1.63-2.81l.51-.38c1.44-1.08,1.72-3.12.64-4.56Z"/>
          <rect class="cls-10" x="87.36" y="203.22" width="16.81" height="6.92" transform="translate(-131 185.16) rotate(-59.72)"/>
          <circle class="cls-2" cx="68.14" cy="178.23" r="6.96"/>
          <path class="cls-10" d="m73.21,178.38c.03-.35,0-.71-.14-1.07-.54-1.44-2.43-1.88-3.67-.75-.39-1.05-1.49-1.79-3-1.22-1.42.53-2.04,2.13-1.27,3.56-.07-.2-.58.03-.7.1-.28.16-.51.45-.62.75-.16.43-.08.88.09,1.29.04.09.31.71.43.66l8.87-3.33Z"/>
        </g>
        <g>
          <path class="cls-25" d="m178.51,188.22l-9.54.19s-.87,40.01-13.31,58.56l15.84,9.67,18.38-9.67s-13.89-36.82-11.36-58.75Z"/>
          <path class="cls-20" d="m197.53,228.7l-13.56-6c-1.63,5.1-5.75,8.73-10.58,8.73s-8.94-3.62-10.58-8.71l-13.49,5.95v-.07s-9.91,3.64-11.33,10.07c-.87,3.96-2.04,20.44-3.03,36.65h76.67c-.99-16.22-2.16-32.7-3.03-36.65-1.28-5.82-9.52-9.35-11.07-9.97Z"/>
          <g>
            <g>
              <polygon class="cls-20" points="157.43 225.15 166.84 238.17 173.48 230.71 164.89 220.28 157.43 225.15"/>
              <polygon class="cls-2" points="166.87 237.51 158.08 225.38 157.4 225.87 166.8 238.83 173.79 230.99 173.17 230.44 166.87 237.51"/>
            </g>
            <g>
              <polygon class="cls-20" points="173.11 230.71 179.76 238.17 189.16 225.15 181.7 220.28 173.11 230.71"/>
              <polygon class="cls-2" points="179.72 237.51 173.42 230.44 172.8 230.99 179.79 238.83 189.19 225.87 188.51 225.38 179.72 237.51"/>
            </g>
          </g>
          <g>
            <polygon class="cls-25" points="142.29 267.97 173.81 274.93 173.91 268.08 143.5 262.63 142.29 267.97"/>
            <path class="cls-25" d="m134.88,268.43s-.01,0-.03,0c.02,0,.03,0,.03,0Z"/>
            <path class="cls-25" d="m140.65,254.67c-3.99-.44-6.23,1.02-6.64,2.11-.41,1.09,1.02,2.4,1.02,2.4,0,0-1.77.5-1.74,2.21.02,1.34,1.73,1.54,1.73,1.54,0,0-2.73-.23-2.03,2.29.37,1.34,1.65,1.18,1.85,1.15.02,0,.03,0,.03,0,0,0-.01,0-.03,0-.26.05-2.2.47-1.67,2.54.54,2.11,5.73,3.05,7.8,1.44,2.07-1.62,4.84-7.57,4.12-10.29,0,0-.44-4.96-4.44-5.4Z"/>
          </g>
          <path class="cls-5" d="m208.96,272.18c-7.47-3.36-62.28-11.63-62.28-11.63l-1.97,15.57s56.64,7.85,62.89,7.48c6.25-.37,7.39-8.72,1.36-11.43Z"/>
          <g>
            <polygon class="cls-25" points="173.56 269.48 173.29 276.33 205.14 271.09 204.22 265.7 173.56 269.48"/>
            <path class="cls-25" d="m212.55,271.96s-.03,0-.03,0c0,0,.01,0,.03,0Z"/>
            <path class="cls-25" d="m212.56,268.51s1.72-.11,1.82-1.44c.13-1.71-1.62-2.3-1.62-2.3,0,0,1.5-1.24,1.15-2.34-.35-1.11-2.5-2.7-6.51-2.47-4.01.23-4.72,5.15-4.72,5.15-.87,2.68,1.57,8.77,3.55,10.5,1.98,1.73,7.21,1.07,7.87-1.01.64-2.04-1.27-2.57-1.53-2.63-.02,0-.03,0-.03,0,0,0,.01,0,.03,0,.2.05,1.47.27,1.91-1.05.83-2.48-1.9-2.4-1.9-2.4Z"/>
          </g>
          <path class="cls-1" d="m138.34,271.66c-6.17,2.38-5.49,10.78.73,11.49,6.22.7,64.46-6.72,64.46-6.72l-1.12-15.66s-56.43,7.95-64.07,10.89Z"/>
          <path class="cls-25" d="m177.49,150.19c-16.99-1.72-32.27,11.87-34.14,30.34-1.87,18.47,10.4,34.84,27.38,36.55,16.99,1.72,32.27-11.87,34.14-30.34,1.87-18.47-10.39-34.84-27.38-36.55Z"/>
          <g>
            <g>
              <path class="cls-25" d="m142.22,174.31c-2.06-.21-3.93,1.66-4.18,4.17-.25,2.51,1.21,4.72,3.26,4.92,2.05.21,3.93-1.66,4.18-4.17.25-2.51-1.21-4.72-3.26-4.92Z"/>
              <path class="cls-25" d="m207.21,180.88c-2.06-.21-3.93,1.66-4.18,4.17-.25,2.51,1.21,4.72,3.26,4.92,2.05.21,3.93-1.66,4.18-4.17.25-2.51-1.21-4.72-3.26-4.92Z"/>
            </g>
            <g>
              <path class="cls-25" d="m143.62,178.76c-1.97-.2-3.76,1.59-4,3.99-.24,2.4,1.15,4.51,3.12,4.71,1.96.2,3.76-1.59,4-3.99.24-2.4-1.16-4.51-3.12-4.71Z"/>
              <path class="cls-25" d="m205.77,185.04c-1.97-.2-3.76,1.59-4,3.99-.24,2.4,1.15,4.51,3.12,4.71,1.97.2,3.76-1.59,4-3.99.24-2.4-1.15-4.51-3.12-4.71Z"/>
            </g>
          </g>
          <polygon class="cls-12" points="170.67 191.1 174.97 180.17 174.1 179.83 169.35 191.91 174.29 192.4 174.38 191.47 170.67 191.1"/>
          <path class="cls-24" d="m181.8,203.23c-9.34-6.9-19.08-1.98-19.17-1.93-.23.12-.32.4-.2.63.06.12.17.21.3.24.11.03.23.02.33-.04.09-.05,9.33-4.7,18.19,1.85.21.15.5.11.65-.1.15-.21.11-.5-.1-.65Z"/>
          <g>
            <path class="cls-24" d="m165.63,165.56c-1.3.08-2.44.72-3.38,1.9l1.22.97c.66-.83,1.4-1.26,2.25-1.32,1.84-.12,3.61,1.56,3.63,1.58l1.09-1.12c-.09-.09-2.27-2.18-4.81-2.02Z"/>
            <path class="cls-24" d="m186.23,167.64h-.04c-2.44-.65-4.97.95-5.07,1.02l.84,1.31s2.06-1.29,3.84-.83h.03c.82.23,1.46.8,1.94,1.75l1.39-.71c-.69-1.35-1.67-2.2-2.93-2.54Z"/>
          </g>
          <path class="cls-23" d="m191.48,151.34c-16.63-5.26-30.02-6.32-39.35,6.72-14.47,20.21,6.15-.19,9.59-2.4,0,0,7.45,3.91,16.65,5.88.63.14-5.55-4.88-4.93-4.59,1.45.65,7.77,3.68,13.39,5.73,6.63,2.42,4.9,1.63,11.73,3.58,0,0,3.39,5.85,7.08,8.95,0,0-1.66-19.91-14.16-23.86Z"/>
          <path class="cls-11" d="m107.96,171.46c.81,1.88,2.21,2.7,3.74,3.04-.08.6-.09,1.19,0,1.73.38,2.68,2.86,3.3,5.08,3.4.04.78.23,1.57.57,2.3.51,1.11,1.31,1.96,2.27,2.43.2,1.72,1.38,3.27,3.34,4.32.18.1.37.14.56.14.43,0,.84-.23,1.05-.63.31-.58.09-1.3-.49-1.61-.96-.51-1.61-1.15-1.92-1.84,1.77-.11,4.36-.63,4.88-2.14.24-.7.11-1.42-.35-1.98-.83-1.01-2.61-1.3-3.55-1.18-1.31.17-2.46,1.08-3.08,2.33-.22-.23-.41-.52-.57-.85-.19-.42-.31-.87-.34-1.33.28-.01.54-.02.77-.02.14,0,.29,0,.43,0,1.17,0,2.49.02,3.72-.43.4-.15,1.74-.72,2.2-1.93.23-.62.18-1.29-.15-1.9-.92-1.7-3.4-1.56-4.22-1.51-1.53.09-3.54,1.01-4.42,2.62-.15.27-.27.54-.37.82-1.85-.04-2.94-.37-3.08-1.36-.05-.36-.04-.76.02-1.18.55,0,1.09-.03,1.6-.06.5-.03.98-.05,1.41-.05h0c1.1,0,6.22-1.2,7.61-3.74.55-1.01.5-2.13-.16-3.16-1.89-2.95-7.64-.41-8.78.13-1.4.67-2.7,2.42-3.45,4.35-1-.21-1.73-.68-2.16-1.67-.71-1.64.45-3.14,1.54-4.1,2.76-2.44,7.99-3.89,10.87-2.2.57.33,1.3.14,1.63-.42.33-.57.14-1.3-.42-1.63-3.9-2.29-10.21-.58-13.66,2.47-2.35,2.07-3.13,4.57-2.15,6.83Zm6.91.85c.55-1.1,1.27-2.02,1.91-2.32,2.52-1.2,5.31-1.68,5.75-1,.24.37.17.56.08.73-.74,1.36-4.7,2.5-5.52,2.5h0c-.49,0-1,.03-1.53.05-.23.01-.46.02-.68.03Zm5,4.89c.54-.57,1.49-.97,2.19-1.01,1.42-.08,1.86.17,1.96.25-.1.13-.38.34-.76.48-.82.3-1.87.29-2.88.29-.16,0-.31,0-.46,0h-.05Zm2.7,5.12c.26-.28.58-.47.9-.51.24-.03.63.02.94.11-.48.17-1.19.32-1.84.4Z"/>
          <path class="cls-24" d="m186.98,205.38c-.26,0-.47-.2-.48-.46-.15-2.59-2.75-6.94-2.78-6.98-.14-.23-.06-.53.17-.67.23-.14.53-.06.67.17.11.19,2.76,4.6,2.92,7.43.02.27-.19.5-.46.51,0,0-.02,0-.03,0Z"/>
          <path class="cls-24" d="m158.81,203.32s-.02,0-.03,0c-.27-.02-.47-.24-.46-.51.16-2.83,2.8-7.24,2.92-7.43.14-.23.44-.3.67-.17.23.14.3.44.17.67-.03.04-2.63,4.4-2.78,6.98-.01.26-.23.46-.48.46Z"/>
          <g>
            <path class="cls-24" d="m164.77,186.47c-.36,0-.72-.02-1.09-.07-4.89-.59-8.4-5.05-7.8-9.95l.53-4.42c.08-.65.4-1.22.92-1.63.51-.4,1.15-.58,1.8-.5l12.91,1.56c1.34.16,2.29,1.38,2.13,2.71l-.53,4.42c-.29,2.37-1.48,4.49-3.36,5.96-1.59,1.25-3.51,1.91-5.5,1.91Zm-5.94-15.12c-.22,0-.43.07-.6.21-.21.16-.34.39-.37.66l-.53,4.42c-.49,4.1,2.44,7.83,6.53,8.33,1.98.24,3.94-.31,5.52-1.54,1.57-1.23,2.57-3.01,2.81-4.99l.53-4.42c.06-.54-.32-1.03-.86-1.09l-12.91-1.56s-.08,0-.12,0Z"/>
            <path class="cls-24" d="m187.34,189.34c-.36,0-.72-.02-1.09-.07l-.33-.04c-4.89-.59-8.4-5.05-7.8-9.95l.57-4.7c.08-.65.4-1.22.92-1.63.51-.4,1.15-.58,1.8-.5l13.24,1.6c1.33.16,2.29,1.38,2.13,2.71l-.57,4.7c-.29,2.37-1.48,4.49-3.36,5.96-1.59,1.25-3.51,1.91-5.5,1.91Zm-.91-1.51c1.98.24,3.94-.31,5.52-1.54,1.57-1.23,2.57-3.01,2.81-4.99l.57-4.7c.06-.54-.32-1.03-.86-1.09l-13.24-1.6c-.26-.03-.52.04-.72.2s-.34.39-.37.66l-.57,4.7c-.49,4.1,2.44,7.83,6.53,8.33l.33.04Z"/>
            <path class="cls-24" d="m178.42,179.92c-2.57-1.98-5.11-.83-5.22-.78l-.59-1.24c.14-.06,3.39-1.57,6.65.94l-.84,1.09Z"/>
          </g>
          <path class="cls-11" d="m190.75,183.03c-.09,0-.19-.02-.28-.06l-7.89-3.29c-.37-.15-.55-.58-.39-.95s.58-.55.95-.39l7.89,3.29c.37.15.55.58.39.95-.12.28-.39.45-.67.45Z"/>
          <path class="cls-11" d="m159.46,179.8c-.32,0-.61-.22-.68-.54-.08-.38.15-.75.53-.84l7.96-1.8c.38-.08.75.15.84.53.08.38-.15.75-.53.84l-7.96,1.8c-.05.01-.1.02-.15.02Z"/>
        </g>
      </g>
    </g>
  </g>
</svg>