<?xml version="1.0" encoding="UTF-8"?>
<svg xmlns="http://www.w3.org/2000/svg" xmlns:xlink="http://www.w3.org/1999/xlink" viewBox="0 0 292 292">
  <defs>
    <style>
      .cls-1 {
        fill: url(#linear-gradient-2);
      }

      .cls-2 {
        fill: url(#radial-gradient-7);
      }

      .cls-3 {
        fill: url(#radial-gradient-10);
      }

      .cls-4 {
        fill: #005032;
        mix-blend-mode: multiply;
        opacity: .5;
      }

      .cls-5, .cls-6 {
        fill: #fff;
      }

      .cls-7 {
        fill: #913616;
      }

      .cls-6 {
        stroke: #032637;
        stroke-miterlimit: 10;
        stroke-width: .35px;
      }

      .cls-8 {
        fill: url(#radial-gradient-16);
      }

      .cls-9 {
        fill: url(#radial-gradient-8);
      }

      .cls-10 {
        fill: url(#linear-gradient-6);
      }

      .cls-11 {
        fill: url(#radial-gradient-5);
      }

      .cls-12 {
        fill: url(#radial-gradient-4);
      }

      .cls-13 {
        isolation: isolate;
      }

      .cls-14 {
        opacity: .2;
      }

      .cls-15 {
        fill: url(#radial-gradient-6);
      }

      .cls-16 {
        fill: url(#radial-gradient-19);
      }

      .cls-17 {
        fill: #032637;
      }

      .cls-18 {
        fill: url(#radial-gradient-12);
      }

      .cls-19 {
        fill: #ffb89e;
      }

      .cls-20 {
        fill: #f7e9ce;
      }

      .cls-21 {
        fill: url(#linear-gradient-10);
      }

      .cls-22 {
        fill: url(#radial-gradient);
      }

      .cls-23 {
        stroke: #d4e5e6;
        stroke-width: .1px;
      }

      .cls-23, .cls-24 {
        fill: none;
      }

      .cls-25 {
        fill: url(#radial-gradient-13);
      }

      .cls-26 {
        fill: #a97443;
      }

      .cls-27 {
        fill: #e5e5e5;
      }

      .cls-28 {
        fill: url(#linear-gradient-5);
      }

      .cls-29 {
        fill: url(#radial-gradient-15);
      }

      .cls-30 {
        clip-path: url(#clippath);
      }

      .cls-31 {
        fill: url(#radial-gradient-2);
      }

      .cls-32 {
        fill: url(#radial-gradient-3);
      }

      .cls-33 {
        fill: url(#linear-gradient-7);
      }

      .cls-34 {
        fill: #0b2d67;
      }

      .cls-35 {
        fill: #7a8c89;
      }

      .cls-36 {
        fill: url(#linear-gradient-9);
      }

      .cls-37 {
        fill: url(#radial-gradient-17);
      }

      .cls-38 {
        fill: url(#radial-gradient-14);
      }

      .cls-39 {
        fill: url(#linear-gradient-3);
      }

      .cls-40 {
        fill: #ffd1b7;
      }

      .cls-41 {
        fill: url(#linear-gradient);
      }

      .cls-42 {
        fill: #e75400;
      }

      .cls-43 {
        fill: url(#linear-gradient-4);
      }

      .cls-44 {
        fill: url(#radial-gradient-11);
      }

      .cls-45 {
        fill: url(#radial-gradient-18);
      }

      .cls-46 {
        fill: url(#radial-gradient-9);
      }

      .cls-47 {
        fill: red;
      }

      .cls-48 {
        fill: url(#linear-gradient-8);
      }
    </style>
    <clipPath id="clippath">
      <circle class="cls-24" cx="146" cy="146" r="146"/>
    </clipPath>
    <linearGradient id="linear-gradient" x1="213.05" y1="47.45" x2="213.05" y2="-44.4" gradientTransform="translate(-88.69 216.47) rotate(-28.68)" gradientUnits="userSpaceOnUse">
      <stop offset="0" stop-color="#945f36"/>
      <stop offset="1" stop-color="#a97443"/>
    </linearGradient>
    <radialGradient id="radial-gradient" cx="229.38" cy="64.76" fx="229.38" fy="64.76" r="59.14" gradientTransform="translate(-108.82 58.22) scale(.91)" gradientUnits="userSpaceOnUse">
      <stop offset="0" stop-color="#005e3c"/>
      <stop offset="1" stop-color="#005032"/>
    </radialGradient>
    <linearGradient id="linear-gradient-2" x1="185.6" y1="44.12" x2="185.6" y2="41.46" gradientTransform="translate(-90.92 122.15)" gradientUnits="userSpaceOnUse">
      <stop offset="0" stop-color="#a9a6a1"/>
      <stop offset=".85" stop-color="#fff"/>
      <stop offset="1" stop-color="#dcdddd"/>
    </linearGradient>
    <linearGradient id="linear-gradient-3" x1="258.47" y1="44.05" x2="258.47" y2="35.66" gradientTransform="translate(-101.27 87.55)" gradientUnits="userSpaceOnUse">
      <stop offset="0" stop-color="#000036"/>
      <stop offset=".33" stop-color="#001648"/>
      <stop offset="1" stop-color="#0b2d67"/>
    </linearGradient>
    <linearGradient id="linear-gradient-4" x1="258.47" y1="38.78" x2="258.47" y2="35.22" gradientTransform="translate(-102.64 87.9)" gradientUnits="userSpaceOnUse">
      <stop offset="0" stop-color="#f18d00"/>
      <stop offset=".49" stop-color="#f18e00"/>
      <stop offset=".66" stop-color="#f29500"/>
      <stop offset=".79" stop-color="#f4a100"/>
      <stop offset=".85" stop-color="#f6ab00"/>
      <stop offset="1" stop-color="#f18d00"/>
    </linearGradient>
    <linearGradient id="linear-gradient-5" x1="214.73" y1="44.12" x2="214.73" y2="41.46" gradientTransform="translate(-94.5 108.17)" gradientUnits="userSpaceOnUse">
      <stop offset="0" stop-color="#b99b00"/>
      <stop offset=".85" stop-color="#ffeb00"/>
      <stop offset="1" stop-color="#f0d400"/>
    </linearGradient>
    <radialGradient id="radial-gradient-2" cx="150.44" cy="138.85" fx="150.44" fy="138.85" r="1.66" gradientTransform="translate(355.13 -10.2) rotate(90) scale(.93)" gradientUnits="userSpaceOnUse">
      <stop offset="0" stop-color="#a9a6a1"/>
      <stop offset="1" stop-color="#4c4948"/>
    </radialGradient>
    <radialGradient id="radial-gradient-3" cy="141.51" fy="141.51" r="1.66" gradientTransform="translate(356.67 -7.91) rotate(90) scale(.93)" xlink:href="#radial-gradient-2"/>
    <radialGradient id="radial-gradient-4" cy="144.16" fy="144.16" r="1.66" gradientTransform="translate(358.22 -5.62) rotate(90) scale(.93)" xlink:href="#radial-gradient-2"/>
    <radialGradient id="radial-gradient-5" cy="146.82" fy="146.82" r="1.66" gradientTransform="translate(359.77 -3.33) rotate(90) scale(.93)" xlink:href="#radial-gradient-2"/>
    <radialGradient id="radial-gradient-6" cy="149.47" fy="149.47" r="1.66" gradientTransform="translate(361.32 -1.04) rotate(90) scale(.93)" xlink:href="#radial-gradient-2"/>
    <radialGradient id="radial-gradient-7" cy="152.12" fy="152.12" r="1.66" gradientTransform="translate(362.86 1.26) rotate(90) scale(.93)" xlink:href="#radial-gradient-2"/>
    <radialGradient id="radial-gradient-8" cy="154.78" fy="154.78" r="1.66" gradientTransform="translate(364.41 3.55) rotate(90) scale(.93)" xlink:href="#radial-gradient-2"/>
    <radialGradient id="radial-gradient-9" cy="157.43" fy="157.43" r="1.66" gradientTransform="translate(365.96 5.84) rotate(90) scale(.93)" xlink:href="#radial-gradient-2"/>
    <radialGradient id="radial-gradient-10" cx="150.44" cy="160.09" fx="150.44" fy="160.09" r="1.66" gradientTransform="translate(367.5 8.13) rotate(90) scale(.93)" xlink:href="#radial-gradient-2"/>
    <radialGradient id="radial-gradient-11" cy="162.74" fy="162.74" r="1.66" gradientTransform="translate(369.05 10.42) rotate(90) scale(.93)" xlink:href="#radial-gradient-2"/>
    <radialGradient id="radial-gradient-12" cy="165.4" fy="165.4" r="1.66" gradientTransform="translate(370.6 12.71) rotate(90) scale(.93)" xlink:href="#radial-gradient-2"/>
    <radialGradient id="radial-gradient-13" cy="168.05" fy="168.05" r="1.66" gradientTransform="translate(372.14 15.01) rotate(90) scale(.93)" xlink:href="#radial-gradient-2"/>
    <radialGradient id="radial-gradient-14" cy="170.7" fy="170.7" r="1.66" gradientTransform="translate(373.69 17.3) rotate(90) scale(.93)" xlink:href="#radial-gradient-2"/>
    <radialGradient id="radial-gradient-15" cy="173.36" fy="173.36" gradientTransform="translate(375.24 19.59) rotate(90) scale(.93)" xlink:href="#radial-gradient-2"/>
    <radialGradient id="radial-gradient-16" cy="176.01" fy="176.01" r="1.66" gradientTransform="translate(376.78 21.88) rotate(90) scale(.93)" xlink:href="#radial-gradient-2"/>
    <radialGradient id="radial-gradient-17" cx="150.44" cy="178.67" fx="150.44" fy="178.67" r="1.66" gradientTransform="translate(378.33 24.17) rotate(90) scale(.93)" xlink:href="#radial-gradient-2"/>
    <radialGradient id="radial-gradient-18" cy="181.32" fy="181.32" r="1.66" gradientTransform="translate(379.88 26.47) rotate(90) scale(.93)" xlink:href="#radial-gradient-2"/>
    <radialGradient id="radial-gradient-19" cy="183.98" fy="183.98" r="1.66" gradientTransform="translate(381.42 28.76) rotate(90) scale(.93)" xlink:href="#radial-gradient-2"/>
    <linearGradient id="linear-gradient-6" x1="160.93" y1="529.85" x2="163.68" y2="529.85" gradientTransform="translate(-239.9 515.04) rotate(-109.01)" gradientUnits="userSpaceOnUse">
      <stop offset="0" stop-color="#dbb082"/>
      <stop offset=".5" stop-color="#efd2a1"/>
      <stop offset="1" stop-color="#dbb082"/>
    </linearGradient>
    <linearGradient id="linear-gradient-7" x1="166.49" y1="148.62" x2="166.49" y2="147.78" gradientTransform="translate(-.2 104.04) rotate(-19.01)" gradientUnits="userSpaceOnUse">
      <stop offset="0" stop-color="#231815"/>
      <stop offset=".5" stop-color="#4c4948"/>
      <stop offset="1" stop-color="#231815"/>
    </linearGradient>
    <linearGradient id="linear-gradient-8" x1="-1078.85" y1="-675.8" x2="-1076.1" y2="-675.8" gradientTransform="translate(-443.58 1258.2) rotate(90)" gradientUnits="userSpaceOnUse">
      <stop offset="0" stop-color="#dd5a00"/>
      <stop offset=".5" stop-color="#f18d00"/>
      <stop offset="1" stop-color="#dd5a00"/>
    </linearGradient>
    <linearGradient id="linear-gradient-9" x1="216.27" y1="149.57" x2="216.27" y2="146.82" gradientTransform="translate(36.28 25.52)" gradientUnits="userSpaceOnUse">
      <stop offset="0" stop-color="#c9caca"/>
      <stop offset=".5" stop-color="#fefbf0"/>
      <stop offset="1" stop-color="#c9caca"/>
    </linearGradient>
    <linearGradient id="linear-gradient-10" x1="214.41" y1="149.57" x2="214.41" gradientTransform="translate(36.38 26.12)" xlink:href="#linear-gradient-9"/>
  </defs>
  <g class="cls-13">
    <g id="_レイヤー_2" data-name="レイヤー 2">
      <g id="_レイヤー_1-2" data-name="レイヤー 1">
        <g class="cls-30">
          <g>
            <g class="cls-14">
              <g>
                <path class="cls-35" d="m131.7,173.31v13.87h-3.38v-8.32l-3.1,8.32h-2.73l-3.12-8.34v8.34h-3.38v-13.87h3.99l3.89,9.6,3.85-9.6h3.97Z"/>
                <path class="cls-35" d="m145.39,176.16l-6.92,16.26h-3.64l2.53-5.61-4.49-10.65h3.77l2.55,6.9,2.53-6.9h3.66Z"/>
                <path class="cls-35" d="m166.63,176.16l-2.98,11.03h-3.73l-1.74-7.15-1.8,7.15h-3.71l-3-11.03h3.38l1.56,7.88,1.86-7.88h3.58l1.88,7.84,1.54-7.84h3.18Z"/>
                <path class="cls-35" d="m170.02,186.65c-.86-.46-1.54-1.12-2.04-1.97-.49-.86-.74-1.86-.74-3s.25-2.13.75-2.99c.5-.86,1.19-1.52,2.06-1.99.87-.46,1.84-.69,2.92-.69s2.05.23,2.92.69c.87.46,1.55,1.12,2.05,1.99.5.86.75,1.86.75,2.99s-.25,2.13-.76,2.99c-.51.86-1.2,1.52-2.08,1.98-.88.46-1.85.69-2.93.69s-2.05-.23-2.92-.69Zm4.56-2.94c.45-.47.68-1.15.68-2.04s-.22-1.56-.66-2.04-.98-.71-1.63-.71-1.21.23-1.64.7-.65,1.15-.65,2.04.21,1.56.64,2.04c.43.47.96.71,1.61.71s1.2-.24,1.65-.71Z"/>
                <path class="cls-35" d="m185.36,176.56c.59-.35,1.25-.52,1.98-.52v3.58h-.93c-.84,0-1.48.18-1.9.54-.42.36-.63,1-.63,1.91v5.12h-3.38v-11.03h3.38v1.84c.4-.61.89-1.08,1.48-1.43Z"/>
                <path class="cls-35" d="m193.82,176.56c.59-.35,1.25-.52,1.98-.52v3.58h-.93c-.84,0-1.48.18-1.9.54-.42.36-.63,1-.63,1.91v5.12h-3.38v-11.03h3.38v1.84c.4-.61.89-1.08,1.48-1.43Z"/>
                <path class="cls-35" d="m197.66,174.49c-.38-.35-.56-.78-.56-1.29s.19-.96.56-1.31c.38-.35.86-.52,1.45-.52s1.06.17,1.43.52c.38.35.56.79.56,1.31s-.19.95-.56,1.29c-.38.35-.85.52-1.43.52s-1.08-.17-1.45-.52Zm3.13,1.67v11.03h-3.38v-11.03h3.38Z"/>
                <path class="cls-35" d="m213.58,182.48h-7.65c.05.68.27,1.21.66,1.57s.87.54,1.43.54c.84,0,1.43-.36,1.76-1.07h3.6c-.18.72-.52,1.38-1,1.96s-1.08,1.03-1.81,1.36-1.54.49-2.43.49c-1.08,0-2.04-.23-2.88-.69-.84-.46-1.5-1.12-1.98-1.97-.47-.86-.71-1.86-.71-3s.23-2.15.7-3c.47-.86,1.12-1.51,1.97-1.98s1.81-.69,2.9-.69,2.02.22,2.85.67,1.48,1.09,1.95,1.92c.47.83.7,1.8.7,2.9,0,.32-.02.65-.06.99Zm-3.4-1.88c0-.58-.2-1.04-.59-1.38-.39-.34-.89-.51-1.48-.51s-1.04.17-1.43.49-.63.8-.72,1.4h4.23Z"/>
                <path class="cls-35" d="m217.33,186.84c-.75-.33-1.34-.78-1.78-1.35s-.68-1.22-.73-1.93h3.34c.04.38.22.69.53.93.32.24.71.36,1.17.36.42,0,.75-.08.98-.25.23-.16.35-.38.35-.64,0-.32-.16-.55-.49-.7-.33-.15-.86-.32-1.6-.5-.79-.18-1.45-.38-1.98-.58-.53-.2-.98-.53-1.36-.97s-.57-1.04-.57-1.79c0-.63.17-1.21.52-1.73.35-.52.86-.93,1.54-1.23.68-.3,1.49-.45,2.42-.45,1.38,0,2.47.34,3.27,1.03.8.69,1.25,1.59,1.37,2.73h-3.12c-.05-.38-.22-.69-.5-.91-.28-.22-.66-.34-1.12-.34-.39,0-.7.08-.91.23-.21.15-.32.36-.32.62,0,.32.17.55.5.71s.86.32,1.57.47c.82.21,1.48.42,2,.62.51.21.96.53,1.35.99.39.45.59,1.06.6,1.83,0,.65-.18,1.22-.54,1.73-.36.51-.88.91-1.56,1.2-.68.29-1.47.43-2.36.43-.96,0-1.82-.17-2.57-.49Z"/>
              </g>
              <g>
                <path class="cls-35" d="m76.97,92.31v2.71h-3.67v11.16h-3.38v-11.16h-3.67v-2.71h10.73Z"/>
                <path class="cls-35" d="m78.91,93.49c-.38-.35-.56-.78-.56-1.29s.19-.96.56-1.31c.38-.35.86-.52,1.45-.52s1.06.17,1.43.52c.38.35.56.79.56,1.31s-.19.95-.56,1.29c-.38.35-.85.52-1.43.52s-1.08-.17-1.45-.52Zm3.13,1.67v11.03h-3.38v-11.03h3.38Z"/>
                <path class="cls-35" d="m101.83,96.28c.81.83,1.21,1.98,1.21,3.46v6.44h-3.36v-5.99c0-.71-.19-1.26-.56-1.65s-.89-.58-1.55-.58-1.18.19-1.55.58c-.38.39-.56.94-.56,1.65v5.99h-3.36v-5.99c0-.71-.19-1.26-.56-1.65-.38-.39-.89-.58-1.55-.58s-1.18.19-1.55.58-.56.94-.56,1.65v5.99h-3.38v-11.03h3.38v1.38c.34-.46.79-.83,1.34-1.1.55-.27,1.18-.41,1.88-.41.83,0,1.57.18,2.22.53.65.36,1.16.86,1.53,1.52.38-.61.9-1.1,1.56-1.48.66-.38,1.38-.57,2.15-.57,1.37,0,2.46.42,3.27,1.24Z"/>
                <path class="cls-35" d="m115.75,101.48h-7.65c.05.69.27,1.21.66,1.57s.87.54,1.43.54c.84,0,1.43-.36,1.76-1.07h3.6c-.18.72-.52,1.38-1,1.96s-1.08,1.03-1.81,1.36c-.72.33-1.54.49-2.43.49-1.08,0-2.04-.23-2.88-.69-.84-.46-1.5-1.12-1.98-1.98s-.71-1.86-.71-3,.23-2.15.7-3c.47-.86,1.12-1.51,1.97-1.98s1.81-.69,2.9-.69,2.02.22,2.85.67,1.48,1.09,1.95,1.92c.47.83.7,1.8.7,2.9,0,.32-.02.65-.06.99Zm-3.4-1.88c0-.58-.2-1.04-.59-1.38-.39-.34-.89-.51-1.48-.51s-1.04.17-1.43.49-.63.8-.72,1.4h4.23Z"/>
              </g>
              <g>
                <path class="cls-35" d="m175.12,234.79c-.37.67-.94,1.21-1.72,1.63s-1.73.62-2.87.62h-2.12v5.03h-3.41v-14.01h5.53c1.12,0,2.06.19,2.83.58s1.35.92,1.74,1.6c.39.68.58,1.46.58,2.33,0,.81-.19,1.55-.56,2.22Zm-3.39-.93c.32-.31.48-.74.48-1.3s-.16-.99-.48-1.3-.8-.46-1.46-.46h-1.86v3.51h1.86c.65,0,1.14-.15,1.46-.46Z"/>
                <path class="cls-35" d="m182.36,231.34c.6-.35,1.26-.53,2-.53v3.61h-.94c-.85,0-1.49.18-1.92.55s-.64,1.01-.64,1.92v5.17h-3.41v-11.13h3.41v1.86c.4-.61.9-1.09,1.5-1.45Z"/>
                <path class="cls-35" d="m186.24,229.25c-.38-.35-.57-.79-.57-1.31s.19-.97.57-1.33c.38-.35.87-.53,1.47-.53s1.07.18,1.45.53c.38.35.57.79.57,1.33s-.19.95-.57,1.31-.86.53-1.45.53-1.09-.18-1.47-.53Zm3.16,1.69v11.13h-3.41v-11.13h3.41Z"/>
                <path class="cls-35" d="m191.91,233.46c.47-.86,1.13-1.53,1.98-2,.84-.46,1.81-.7,2.9-.7,1.4,0,2.56.37,3.5,1.1.94.73,1.55,1.76,1.85,3.09h-3.63c-.31-.85-.9-1.28-1.78-1.28-.62,0-1.12.24-1.5.73s-.56,1.18-.56,2.08.19,1.6.56,2.08.87.73,1.5.73c.88,0,1.47-.43,1.78-1.28h3.63c-.29,1.3-.91,2.33-1.86,3.07-.94.75-2.11,1.12-3.49,1.12-1.09,0-2.06-.23-2.9-.7-.84-.46-1.5-1.13-1.98-2-.47-.86-.71-1.88-.71-3.03s.24-2.17.71-3.03Z"/>
                <path class="cls-35" d="m214.38,237.32h-7.72c.05.69.28,1.22.67,1.59.39.37.87.55,1.45.55.85,0,1.44-.36,1.78-1.08h3.63c-.19.73-.52,1.39-1.01,1.98s-1.09,1.04-1.83,1.38c-.73.33-1.55.5-2.45.5-1.09,0-2.06-.23-2.91-.7-.85-.46-1.52-1.13-2-2-.48-.86-.72-1.88-.72-3.03s.24-2.17.71-3.03c.47-.86,1.13-1.53,1.99-2,.85-.46,1.83-.7,2.93-.7s2.04.23,2.87.68,1.49,1.1,1.96,1.94c.47.84.71,1.82.71,2.93,0,.32-.02.65-.06,1Zm-3.43-1.89c0-.59-.2-1.05-.6-1.4-.4-.35-.9-.52-1.5-.52s-1.05.17-1.45.5c-.39.33-.63.8-.73,1.42h4.27Z"/>
              </g>
              <g>
                <path class="cls-35" d="m29.12,122.17l-6.29,24.14h-7.12l-3.85-15.89-3.99,15.89H.75l-6.12-24.14H.92l3.47,17.57,4.3-17.57h6.47l4.13,17.57,3.51-17.57h6.33Z"/>
                <path class="cls-35" d="m49.16,129.1c1.33,1.46,1.99,3.46,1.99,6v11.21h-5.85v-10.42c0-1.28-.33-2.28-1-2.99-.67-.71-1.56-1.07-2.68-1.07s-2.02.36-2.68,1.07c-.67.71-1,1.71-1,2.99v10.42h-5.88v-25.45h5.88v8.84c.6-.85,1.41-1.52,2.44-2.03,1.03-.5,2.19-.76,3.47-.76,2.2,0,3.97.73,5.3,2.18Z"/>
                <path class="cls-35" d="m55.2,131.49c.75-1.49,1.76-2.64,3.04-3.44,1.28-.8,2.72-1.2,4.3-1.2,1.35,0,2.54.27,3.56.83,1.02.55,1.81,1.27,2.36,2.17v-2.72h5.88v19.19h-5.88v-2.72c-.57.89-1.37,1.62-2.39,2.17-1.02.55-2.21.83-3.56.83-1.56,0-2.98-.41-4.26-1.22-1.28-.81-2.3-1.97-3.04-3.47-.75-1.5-1.12-3.24-1.12-5.21s.37-3.7,1.12-5.19Zm12.04,1.75c-.81-.85-1.81-1.27-2.97-1.27s-2.16.42-2.97,1.26c-.81.84-1.22,1.99-1.22,3.46s.41,2.63,1.22,3.49,1.81,1.29,2.97,1.29,2.16-.42,2.97-1.27c.81-.85,1.22-2.01,1.22-3.47s-.41-2.62-1.22-3.47Z"/>
                <path class="cls-35" d="m89.29,141.33v4.99h-2.99c-2.13,0-3.79-.52-4.99-1.56-1.19-1.04-1.79-2.75-1.79-5.11v-7.63h-2.34v-4.88h2.34v-4.68h5.88v4.68h3.85v4.88h-3.85v7.7c0,.57.14.99.41,1.24s.73.38,1.38.38h2.1Z"/>
                <path class="cls-35" d="m103.18,145.73c-1.31-.57-2.34-1.36-3.09-2.36-.76-1-1.18-2.12-1.27-3.35h5.81c.07.67.38,1.2.93,1.62.55.41,1.23.62,2.03.62.73,0,1.3-.14,1.7-.43.4-.29.6-.66.6-1.12,0-.55-.29-.96-.86-1.22-.57-.26-1.5-.56-2.79-.88-1.38-.32-2.52-.66-3.44-1.01-.92-.35-1.71-.92-2.37-1.69-.67-.77-1-1.81-1-3.11,0-1.1.3-2.1.91-3.01.61-.91,1.5-1.62,2.68-2.15s2.58-.79,4.21-.79c2.41,0,4.3.6,5.69,1.79,1.39,1.19,2.18,2.77,2.39,4.75h-5.43c-.09-.66-.38-1.19-.88-1.58-.49-.39-1.14-.58-1.94-.58-.69,0-1.22.13-1.58.4-.37.26-.55.62-.55,1.08,0,.55.29.96.88,1.24.58.27,1.5.55,2.73.83,1.42.37,2.58.73,3.47,1.08.89.36,1.68.93,2.36,1.72.68.79,1.03,1.85,1.05,3.18,0,1.12-.32,2.13-.95,3.01-.63.88-1.54,1.58-2.72,2.08-1.18.5-2.55.76-4.11.76-1.67,0-3.16-.29-4.47-.86Z"/>
                <path class="cls-35" d="m136.13,129.1c1.33,1.46,1.99,3.46,1.99,6v11.21h-5.85v-10.42c0-1.28-.33-2.28-1-2.99-.67-.71-1.56-1.07-2.68-1.07s-2.02.36-2.68,1.07c-.67.71-1,1.71-1,2.99v10.42h-5.88v-25.45h5.88v8.84c.6-.85,1.41-1.52,2.44-2.03,1.03-.5,2.19-.76,3.47-.76,2.2,0,3.97.73,5.3,2.18Z"/>
                <path class="cls-35" d="m145.88,145.39c-1.5-.8-2.68-1.95-3.54-3.44-.86-1.49-1.29-3.23-1.29-5.23s.44-3.71,1.31-5.21,2.06-2.65,3.58-3.46c1.51-.8,3.21-1.2,5.09-1.2s3.58.4,5.09,1.2c1.51.8,2.71,1.95,3.58,3.46s1.31,3.24,1.31,5.21-.44,3.71-1.32,5.21c-.88,1.5-2.09,2.65-3.61,3.46-1.52.8-3.23,1.2-5.11,1.2s-3.57-.4-5.07-1.2Zm7.94-5.12c.79-.83,1.19-2.01,1.19-3.54s-.38-2.72-1.15-3.54c-.77-.83-1.71-1.24-2.84-1.24s-2.1.41-2.85,1.22c-.76.81-1.13,2-1.13,3.56s.37,2.72,1.12,3.54,1.68,1.24,2.8,1.24,2.08-.41,2.87-1.24Z"/>
                <path class="cls-35" d="m183.07,127.13v19.19h-5.88v-2.61c-.6.85-1.4,1.53-2.42,2.05-1.02.52-2.15.77-3.39.77-1.47,0-2.76-.33-3.89-.98-1.12-.65-1.99-1.6-2.61-2.84-.62-1.24-.93-2.69-.93-4.37v-11.21h5.85v10.42c0,1.28.33,2.28,1,2.99.66.71,1.56,1.07,2.68,1.07s2.05-.36,2.72-1.07c.67-.71,1-1.71,1-2.99v-10.42h5.88Z"/>
                <path class="cls-35" d="m193.18,120.87v25.45h-5.88v-25.45h5.88Z"/>
                <path class="cls-35" d="m197.39,131.49c.75-1.49,1.76-2.64,3.04-3.44,1.28-.8,2.72-1.2,4.3-1.2,1.26,0,2.41.26,3.46.79s1.86,1.24,2.46,2.13v-8.91h5.88v25.45h-5.88v-2.75c-.55.92-1.34,1.65-2.36,2.2-1.02.55-2.21.83-3.56.83-1.58,0-3.01-.41-4.3-1.22-1.28-.81-2.3-1.97-3.04-3.47-.75-1.5-1.12-3.24-1.12-5.21s.37-3.7,1.12-5.19Zm12.04,1.75c-.81-.85-1.81-1.27-2.97-1.27s-2.16.42-2.97,1.26c-.81.84-1.22,1.99-1.22,3.46s.41,2.63,1.22,3.49,1.81,1.29,2.97,1.29,2.16-.42,2.97-1.27c.81-.85,1.22-2.01,1.22-3.47s-.41-2.62-1.22-3.47Z"/>
                <path class="cls-35" d="m233.96,122.17v24.14h-5.88v-24.14h5.88Z"/>
                <path class="cls-35" d="m245.46,131.49c.75-1.49,1.76-2.64,3.04-3.44,1.28-.8,2.72-1.2,4.3-1.2,1.26,0,2.41.26,3.46.79s1.86,1.24,2.46,2.13v-8.91h5.88v25.45h-5.88v-2.75c-.55.92-1.34,1.65-2.36,2.2-1.02.55-2.21.83-3.56.83-1.58,0-3.01-.41-4.3-1.22-1.28-.81-2.3-1.97-3.04-3.47-.75-1.5-1.12-3.24-1.12-5.21s.37-3.7,1.12-5.19Zm12.04,1.75c-.81-.85-1.81-1.27-2.97-1.27s-2.16.42-2.97,1.26c-.81.84-1.22,1.99-1.22,3.46s.41,2.63,1.22,3.49,1.81,1.29,2.97,1.29,2.16-.42,2.97-1.27c.81-.85,1.22-2.01,1.22-3.47s-.41-2.62-1.22-3.47Z"/>
                <path class="cls-35" d="m272.52,145.39c-1.5-.8-2.68-1.95-3.54-3.44-.86-1.49-1.29-3.23-1.29-5.23s.44-3.71,1.31-5.21,2.06-2.65,3.58-3.46c1.51-.8,3.21-1.2,5.09-1.2s3.58.4,5.09,1.2c1.51.8,2.71,1.95,3.58,3.46s1.31,3.24,1.31,5.21-.44,3.71-1.32,5.21c-.88,1.5-2.09,2.65-3.61,3.46-1.52.8-3.23,1.2-5.11,1.2s-3.57-.4-5.07-1.2Zm7.94-5.12c.79-.83,1.19-2.01,1.19-3.54s-.38-2.72-1.15-3.54c-.77-.83-1.71-1.24-2.84-1.24s-2.1.41-2.85,1.22c-.76.81-1.13,2-1.13,3.56s.37,2.72,1.12,3.54,1.68,1.24,2.8,1.24,2.08-.41,2.87-1.24Z"/>
                <path class="cls-35" d="m303.71,122.76c1.48,1.28,2.22,3.09,2.22,5.43,0,2.16-.71,3.83-2.11,5.04-1.41,1.2-3.27,1.82-5.59,1.84l-.17,2.58h-5.16l-.17-6.4h2.06c1.77,0,3.11-.22,4.04-.65.93-.44,1.39-1.23,1.39-2.37,0-.8-.22-1.43-.65-1.89-.44-.46-1.04-.69-1.82-.69-.83,0-1.47.24-1.92.71-.46.47-.69,1.11-.69,1.91h-5.54c-.05-1.4.25-2.66.88-3.78.63-1.12,1.57-2.01,2.82-2.67,1.25-.65,2.76-.98,4.52-.98,2.45,0,4.42.64,5.9,1.93Zm-10.69,22.92c-.65-.61-.98-1.36-.98-2.25s.33-1.69.98-2.3c.65-.62,1.5-.93,2.53-.93s1.84.31,2.49.93c.65.62.98,1.39.98,2.3s-.33,1.65-.98,2.25c-.65.61-1.48.91-2.49.91s-1.87-.3-2.53-.91Z"/>
              </g>
              <g>
                <path class="cls-35" d="m4.94,177.38v2.23H-.81v3.54H3.59v2.19H-.81v5.83h-2.77v-13.79H4.94Z"/>
                <path class="cls-35" d="m9.66,176.56v14.62h-2.77v-14.62h2.77Z"/>
                <path class="cls-35" d="m22.86,180.23l-6.78,16.12h-2.94l2.37-5.45-4.39-10.67h3.1l2.83,7.65,2.87-7.65h2.94Z"/>
                <path class="cls-35" d="m34.44,186.53h-8c.07.79.34,1.41.83,1.86.49.45,1.09.67,1.8.67,1.03,0,1.76-.44,2.19-1.32h2.98c-.32,1.05-.92,1.92-1.82,2.6-.9.68-2,1.02-3.3,1.02-1.05,0-2-.23-2.84-.7s-1.49-1.13-1.96-1.99c-.47-.86-.7-1.84-.7-2.96s.23-2.13.69-2.98c.46-.86,1.11-1.51,1.94-1.98.83-.46,1.79-.69,2.87-.69s1.97.22,2.8.67c.82.45,1.46,1.08,1.92,1.91s.68,1.77.68,2.84c0,.39-.03.75-.08,1.07Zm-2.79-1.86c-.01-.71-.27-1.28-.77-1.71-.5-.43-1.11-.64-1.84-.64-.69,0-1.26.21-1.73.62s-.75.99-.86,1.73h5.2Z"/>
                <path class="cls-35" d="m40.69,180.57c.57-.33,1.23-.49,1.97-.49v2.9h-.73c-.87,0-1.52.21-1.97.61s-.66,1.12-.66,2.13v5.45h-2.77v-10.95h2.77v1.7c.36-.58.82-1.03,1.39-1.36Z"/>
              </g>
            </g>
            <g>
              <path class="cls-27" d="m52.37,178.75c2.06-3.74,4.94-6.65,8.64-8.74,3.69-2.09,7.88-3.13,12.56-3.13,5.73,0,10.64,1.51,14.73,4.54,4.08,3.03,6.81,7.16,8.19,12.39h-12.94c-.96-2.02-2.33-3.56-4.09-4.61-1.77-1.05-3.77-1.58-6.02-1.58-3.62,0-6.56,1.26-8.81,3.78-2.25,2.52-3.37,5.9-3.37,10.12s1.12,7.59,3.37,10.12c2.25,2.52,5.18,3.79,8.81,3.79,2.25,0,4.25-.53,6.02-1.58,1.77-1.05,3.13-2.59,4.09-4.61h12.94c-1.38,5.23-4.11,9.35-8.19,12.35-4.08,3.01-8.99,4.51-14.73,4.51-4.68,0-8.87-1.04-12.56-3.13-3.69-2.09-6.57-4.99-8.64-8.71-2.06-3.72-3.1-7.96-3.1-12.73s1.03-9.03,3.1-12.77Z"/>
              <path class="cls-27" d="m126.89,207.21h-18.03l-2.89,8.53h-12.32l17.48-48.31h13.63l17.48,48.31h-12.46l-2.89-8.53Zm-3.03-9.08l-5.99-17.69-5.92,17.69h11.91Z"/>
              <path class="cls-27" d="m154.14,214.5c-2.8-1.15-5.04-2.84-6.71-5.09-1.68-2.25-2.56-4.95-2.65-8.12h12.52c.18,1.79.8,3.15,1.86,4.09,1.06.94,2.43,1.41,4.13,1.41s3.12-.4,4.13-1.21c1.01-.8,1.51-1.92,1.51-3.34,0-1.19-.4-2.18-1.2-2.96-.8-.78-1.79-1.42-2.96-1.93s-2.83-1.08-4.99-1.72c-3.12-.96-5.67-1.93-7.64-2.89-1.97-.96-3.67-2.38-5.09-4.27-1.42-1.88-2.13-4.33-2.13-7.36,0-4.5,1.63-8.02,4.89-10.56,3.26-2.55,7.5-3.82,12.73-3.82s9.61,1.27,12.87,3.82c3.26,2.55,5,6.09,5.23,10.63h-12.73c-.09-1.56-.67-2.79-1.72-3.68-1.06-.89-2.41-1.34-4.06-1.34-1.42,0-2.57.38-3.44,1.13-.87.76-1.31,1.85-1.31,3.27,0,1.56.73,2.78,2.2,3.65,1.47.87,3.76,1.81,6.88,2.82,3.12,1.05,5.65,2.06,7.6,3.03,1.95.96,3.64,2.36,5.06,4.2,1.42,1.84,2.13,4.2,2.13,7.09s-.7,5.25-2.1,7.5c-1.4,2.25-3.43,4.04-6.09,5.37-2.66,1.33-5.8,2-9.43,2s-6.7-.57-9.5-1.72Z"/>
              <path class="cls-27" d="m200.25,176.86v9.77h15.76v9.08h-15.76v10.6h17.82v9.43h-29.59v-48.31h29.59v9.43h-17.82Z"/>
              <path class="cls-27" d="m233.14,204.59c4.5-3.72,8.04-6.77,10.63-9.15,2.59-2.38,4.78-4.89,6.57-7.5,1.79-2.62,2.68-5.16,2.68-7.64,0-1.88-.44-3.35-1.31-4.4-.87-1.05-2.18-1.58-3.92-1.58s-3.11.65-4.09,1.96-1.48,3.16-1.48,5.54h-11.35c.09-3.9.93-7.16,2.51-9.77,1.58-2.62,3.67-4.54,6.26-5.78,2.59-1.24,5.47-1.86,8.64-1.86,5.46,0,9.58,1.4,12.35,4.2,2.78,2.8,4.16,6.45,4.16,10.94,0,4.91-1.68,9.46-5.02,13.66s-7.62,8.29-12.8,12.28h18.58v9.57h-34.55v-8.74c1.56-1.24,2.27-1.81,2.13-1.72Z"/>
            </g>
            <g>
              <g>
                <g>
                  <rect class="cls-20" x="36.68" y="72.62" width="125.1" height="87.83" transform="translate(-43.75 61.91) rotate(-28.68)"/>
                  <path class="cls-41" d="m178.7,124.3l-115.4,63.12L19.22,106.84l114.99-62.9,44.08,80.58.4-.22Z"/>
                </g>
                <g>
                  <rect class="cls-22" x="37.53" y="73.13" width="123.95" height="87.83" transform="translate(-43.96 62.1) rotate(-28.68)"/>
                  <path class="cls-4" d="m132.57,49.55l41.6,76.05-107.73,58.93L24.83,108.48l107.73-58.93m.46-1.56L23.27,108.02l42.15,77.06,109.75-60.03-42.15-77.06h0Z"/>
                </g>
                <polygon class="cls-26" points="179 124.14 62.59 187.81 60.98 184.88 177.4 121.2 179 124.14 179 124.14"/>
                <rect class="cls-1" x="86.64" y="163.61" width="16.08" height="2.66" transform="translate(-67.54 65.67) rotate(-28.68)"/>
                <g>
                  <path class="cls-39" d="m149.1,123.2h16.18c1.7,0,3.08,1.38,3.08,3.08v2.23c0,1.7-1.38,3.08-3.08,3.08h-16.18c-1.7,0-3.08-1.38-3.08-3.08v-2.23c0-1.7,1.38-3.08,3.08-3.08Z" transform="translate(-41.85 91.06) rotate(-28.68)"/>
                  <rect class="cls-43" x="144.66" y="123.11" width="22.34" height="3.56" transform="translate(-40.82 90.1) rotate(-28.68)"/>
                  <rect class="cls-34" x="153.83" y="122.25" width="3.56" height="4.48" transform="translate(-40.66 89.94) rotate(-28.68)"/>
                </g>
                <rect class="cls-28" x="112.19" y="149.63" width="16.08" height="2.66" transform="translate(-57.7 76.22) rotate(-28.68)"/>
              </g>
              <g>
                <path class="cls-5" d="m59.56,130.13c-.09.02-.16.05-.27.14-.08.09-.26.22-.67.39l-4.94,1.54-.93-3.79c.6-.2,1.27-.41,2.01-.65.26-.09.52-.17.78-.23s.51-.11.75-.14c.15-.01.29-.04.42-.07.27-.06.5-.17.71-.32.17-.14.24-.29.23-.45-.01-.16-.11-.29-.34-.42-.85-.26-1.4-.35-1.73-.27-.1.02-.18.06-.24.11-.22.17-.9.52-2.88,1.27l-.7-2.85c.73-.26,1.82-.76,3.25-1.49.58-.27.92-.48,1.1-.67.17-.21.17-.39.14-.5-.05-.17-.21-.3-.47-.38-.75-.2-1-.19-1.13-.16-.2.05-.26.19-.25.21-.03.04-.22.23-1.35.86-.56.33-1.09.62-1.58.85-.25-1.06-.43-2.18-.56-3.25.05-.24.22-.97-.29-1.15-.88-.28-1.63-.35-2.23-.21-.22.05-.34.16-.36.31-.04.24.19.38.27.42l.05.03h.05c.5.07.62.31.66.49l1,4.08c-.89.42-1.54.68-1.95.78-.31.08-.54.11-.72.09-.17,0-.44-.04-.8-.11l.21-.8c.01-.05.06-.19.25-.5.14-.17.14-.34.11-.44-.06-.23-.29-.43-.72-.62-.36-.16-.86-.29-1.51-.38-.07,0-.13,0-.19.01l-.19.08-.05.12c-.07.17.03.33.06.39.12.19.26.33.43.44.03.02.07.05.13.11.06.31.05.99-.25,2.44-.39,1.25-.95,2.45-1.7,3.63-.02.09-.07.31.07.45l.15.11.14-.03c.08-.02.16-.07.28-.17,1.04-1.11,1.86-2.39,2.44-3.81.41.18.78.26,1.1.23.49,0,.92-.04,1.28-.13.18-.04.43-.14.77-.28.26-.11.57-.23.94-.37l.68,2.77-3.43,1.25c-.38.09-.74.03-1.18-.22-.12-.03-.22-.03-.31-.01l-.18.08-.05.11c-.08.17.02.36.11.49,1.13,1.01,1.57,1.07,1.82,1l.08-.02h.03c.97-.53,2.11-1.03,3.4-1.51l.9,3.69-5.25,1.88c-.23.08-.44.14-.63.18-.44.11-.67.11-.8.09-.17-.01-.31-.03-.44-.06-.12-.02-.22-.02-.3,0-.17.04-.23.15-.26.22-.07.18.04.37.16.53.18.16.38.29.59.36.63.28,1.13.44,1.52.47h.07s.06-.03.06-.03c3.34-1.7,7.33-3.12,11.87-4.23.59-.15,1.07-.23,1.4-.26.45-.03.76-.06.97-.11.14-.03.23-.07.28-.12.18-.13.28-.28.28-.46,0-.19-.1-.38-.38-.58-.86-.39-1.43-.53-1.8-.44Z"/>
                <path class="cls-5" d="m83.03,127.09c-.68.05-1.42.08-2.19.09-.78.02-2.16-.18-4.1-.59-.2-1.03-.4-2.05-.59-3.04.14.03.3.04.48.03.63-.15,1.25-.37,1.83-.63.55-.19,1.15-.43,1.86-.75.17-.14.24-.29.23-.45,0-.11-.07-.26-.36-.42-.53-.12-.97-.17-1.35-.14h-.09s-.07.08-.07.08c-.36.37-.66.61-.89.71-.32.14-.69.29-1.09.44-.29.07-.55.12-.77.14l-.11-.46c-.12-.51-.08-.66-.09-.66h0c.09-.1.12-.22.09-.34-.06-.23-.3-.4-.83-.59-.28-.15-.49-.26-.64-.35.2-.08.39-.16.59-.24.45-.11.94-.26,1.4-.43l1.76-.43c.54-.13,1.19-.23,1.97-.3.3-.07.7-.21.76-.54.06-.34-.3-.6-.5-.72-.6-.16-1.12-.23-1.55-.18h-.06s-.05.04-.05.04c-.39.26-.96.52-1.7.75-.64.21-1.32.45-2.03.72-.18-.77-.34-1.52-.47-2.21.47-.21,1-.42,1.58-.61.29-.1.58-.18.87-.25s.57-.12.85-.16h.05s.05-.04.05-.04c.22-.14.34-.31.33-.49,0-.3-.3-.48-.47-.57-.39-.09-.75-.13-1.12-.11-.31.08-.55.23-.72.46-.34.14-.89.37-1.64.69-.04-.3-.1-.6-.17-.89-.08-.34-.08-.66-.04-.85.17-.21.16-.38.12-.49-.09-.27-.44-.35-.48-.35-.46-.28-.96-.39-1.49-.33-.11.02-.21.04-.3.06-.17.04-.56.14-.59.44-.03.29.29.46.49.54.24.04.42.15.56.34.09.12.29.56.67,2.09l-1.71.65c-.51.12-.63.11-.66.1l-.81-.18h-.06s-.19.1-.19.1l-.05.11c-.08.18,0,.38.11.56.53.63,1.02.88,1.48.77l.13-.04.03-.02c.66-.42,1.33-.75,1.99-.98l.52,2.12c-1.65.68-2.8,1.13-3.41,1.33-.53.13-1.06.17-1.54.14-.13-.03-.22-.03-.3-.01l-.18.07-.04.13c-.06.19.08.36.17.45.34.31.78.53,1.25.62.2.12.42.15.65.09.21-.05.42-.17.62-.34.48-.28,1.27-.67,2.35-1.16.28.29.55.56.79.77.25.37.4.77.46,1.22.33,1.34.62,2.63.86,3.83-.68-.14-1.37-.3-2.07-.48-.16-.03-.31-.06-.46-.08.08-.25.17-.5.3-.76.14-.1.19-.21.21-.3.04-.17-.01-.36-.17-.58-.08-.1-.25-.23-.91-.49-.5-.2-.9-.29-1.17-.27-.13-.03-.22-.03-.3-.01l-.18.07-.04.13c-.06.19.08.36.15.43l.04.04.05.02c.38.18.5.31.52.34.23.53.16,1.38-.23,2.54-.36,1.13-.93,2.3-1.66,3.43-.18.19-.15.34-.1.43.13.21.4.14.55.11l.07-.02.05-.06c1.17-1.27,1.4-1.72,1.43-1.88.31-.43.68-1.18,1.15-2.31.47.04,1.25.25,2.3.6,1.22.41,2.76.99,4.62,1.73.2.05.44.04.7-.03.12-.03.25-.07.39-.13l2.37-.94c.25-.13.52-.3.47-.56-.05-.26-.36-.28-.52-.29Z"/>
                <path class="cls-5" d="m67.79,122.72c-.05-.22-.26-.42-.68-.66.3-.59.66-1.36,1.04-2.27.07-.11.19-.25.32-.37.2-.1.24-.26.25-.34.02-.27-.23-.49-.48-.67-.5-.25-1.04-.4-1.58-.45-.13-.03-.22-.03-.3-.01l-.18.07-.04.13c-.06.19.08.36.21.48.18.11.4.28.41.39-.41,1.44-.89,2.71-1.45,3.79-.42.92-1.05,1.95-1.87,3.08l-.03.04v.05c-.03.09-.08.31.06.45l.15.11.14-.03c.08-.02.16-.07.28-.17.84-.88,1.66-1.94,2.42-3.15.06.08.13.18.22.32.51,2.8.79,4.58.85,5.27.04.66.08,1.07.13,1.26.1.42.3.85.6,1.28.22.31.45.33.6.29.12-.03.24-.11.34-.23l.06-.08v-.1c-.06-.95-.46-3.31-1.22-7.18-.06-.47-.13-.91-.23-1.31Z"/>
                <path class="cls-5" d="m62.98,120.07h.05s.04-.04.04-.04c1.51-1.08,2.99-2.52,4.39-4.27.26-.13.38-.29.37-.49-.02-.31-.35-.61-1.92-1.04-.24-.03-.42-.03-.54,0-.19.05-.25.17-.28.23-.04.13,0,.26.11.39l.05.05.07.02c.23.07.36.17.39.21-.07.51-.68,1.7-3.25,4.49l-.09.1.03.13c.03.12.14.31.58.21Z"/>
                <path class="cls-5" d="m104.42,119.93c-1.58-.25-2.8-.55-3.62-.86-.96-.38-2.11-.89-3.44-1.53l4.01-.98c.31-.07.5-.2.59-.39.05-.1.09-.28-.02-.51l-.04-.08-.08-.04c-.58-.3-1.36-.34-2.4-.09-.03,0-.06.01-.09.02-.15.1-.41.25-.72.43l-2.83.87-1.08-.25c-.14-.02-.24-.02-.32,0l-.2.08-.04.13c-.06.19.08.37.13.42l.03.04.13.06-1.55.59c.02-.07.02-.13,0-.2-.03-.14-.14-.25-.36-.32-.23-.05-.43-.11-.59-.18,1.33-.61,2.94-1.2,4.79-1.77.11.12.3.18.57.12.17-.04.41-.17.53-.5.12-.29.21-.83.26-1.65.04-.53.06-1.18.05-1.92.23-.44-.05-.66-.17-.74-.27-.11-.6-.24-.99-.39l-.1-.04-.69.37-.64.21.03-1.07c.45-.13.85-.24,1.21-.33.4-.1.73-.17,1.04-.21.64-.16.97-.35,1.06-.63.04-.12.05-.3-.19-.56-.33-.2-.85-.27-1.61-.21h-.08s-.06.06-.06.06c-.18.16-.37.28-.52.37l-.82.26c0-.29,0-.56-.02-.82v-.06s-.04-.05-.04-.05c-.1-.16-.3-.35-.69-.35-.37-.03-.73,0-1.07.07-.1-.02-.17-.02-.24,0l-.18.07-.04.13c-.06.19.08.36.15.43l.03.04.05.02c.31.15.44.23.5.27l.12.74-3.73,1.39-.33-.76c-.15-.28-.32-.44-.49-.48-.16-.06-.48-.1-1.44.13-.22.05-.34.16-.36.31-.04.23.19.38.36.45.3.05.61.37.9.93-.53.22-1.04.38-1.49.5-.47.06-.96.02-1.46-.15-.13-.03-.22-.03-.3-.01l-.18.07-.04.13c-.06.19.08.36.14.42.3.4.94.72,1.95.98l.06.02h.06c.14-.05.29-.12.5-.25.04-.03.24-.16,1.3-.68l.48.97c-.43.2-.89.41-1.36.62-.58-.16-.76-.16-.88-.13l-.1.02-.05.09c-.12.19-.05.4.25.66.09.06.29.24.57.83.11.47.44,1.33,1.06,2.72.31.31.58.43.84.36.2-.05.38-.2.38-.49l.11-.05c.16.11.27.22.35.34,0,.16-.05.33-.11.5-1.85.79-2.95,1.23-3.26,1.31-.37.09-.84.12-1.37.1-.13-.03-.22-.03-.3-.01l-.18.07-.04.13c-.06.19.08.36.14.43l.03.04.05.02c.87.42,1.43.61,1.87.58.27-.12.62-.3,1.03-.52l1.4-.64c-.79,1.39-1.87,2.67-3.25,3.85-.05.08-.19.3-.04.5.08.12.23.16.48.1.02,0,.04-.01.06-.02,1.17-.72,2.25-1.74,3.23-3.04.04.07.08.12.12.16.4.39.79.7,1.19.94.13.05.26.05.39.02.17-.04.34-.15.45-.28l.28-.13c-.59,1.73-1.63,3.15-3.14,4.3-.05.08-.19.3-.05.5.08.11.22.15.47.09.02,0,.05-.01.08-.02,1.08-.75,1.94-1.5,2.54-2.26.63-.8,1.19-1.91,1.67-3.3l2.28-.84s.04.04.07.12c-.15,3.05-.59,3.24-.64,3.26-.43.1-1.17.14-2.28.11-.22.05-.33.16-.34.31-.02.25.25.37.39.42.73.22,1.42.57,2.11,1.07.14.05.28.06.42.03s.25-.11.38-.24c.64-.9,1.09-2.33,1.38-4.39l.21-.34c.13-.16.19-.33.16-.5-.03-.18-.15-.33-.36-.46-.43-.26-.95-.5-1.55-.72l-.14-.05-.48.43-1.39.55c.01-.07.03-.13.05-.18.14-.13.31-.34.26-.57-.02-.08-.08-.22-.28-.3-.49-.19-1.02-.29-1.64-.27-.22.05-.34.16-.36.31-.04.24.19.38.27.42.15.09.24.21.27.31,0,.2-.03.47-.09.82l-.99.4c-.05.02-.1.03-.16.05-.35.09-.67.02-1.08-.25-.04-.01-.08-.02-.12-.02.36-.52.71-1.08,1.04-1.68l3.46-1.26c.8.53,2.24,1.43,4.3,2.68.39.24.83.34,1.27.29.93-.05,1.93-.12,2.98-.19h.04c.22-.06.34-.16.36-.32.04-.24-.19-.38-.36-.46Zm-7.76-7.66c-.08.01-.18.03-.28.06-1.02.25-3.14,1.12-6.46,2.64l-.24-.59c1.21-.62,2.26-1.09,3.13-1.41,1.17-.46,2.43-.85,3.74-1.18.07,0,.11,0,.13,0v.48Zm-.04,1.2c-.02.26-.04.54-.07.82-2.02.61-4.04,1.39-6.03,2.3l-.19-.59c2.57-1.2,4.68-2.06,6.3-2.54Zm-2.34-3.22l.08,1.04c-1.07.37-2.13.79-3.16,1.24l-.36-.98,3.44-1.3Z"/>
                <path class="cls-5" d="m126,116.34c-1.87-.24-3.33-.51-4.33-.79-1.22-.34-2.38-.75-3.46-1.21,1.64-.54,3.09-.97,4.33-1.27l1.11-.27c.37-.12.76-.3.78-.61.01-.19-.11-.35-.43-.5-.69-.13-1.29-.2-1.78-.2h-.06s-.98.52-.98.52c-.31.13-.81.31-1.53.55-.71.23-1.6.52-2.68.89,0-.06,0-.11,0-.18.14-.17.14-.32.11-.43-.07-.27-.38-.39-.61-.46-.23-.06-.43-.13-.6-.2,1.2-.36,2.47-.78,3.77-1.25l1.95-.48c.14-.05.52-.18.51-.49,0-.32-.41-.48-.85-.61-.33-.1-.68-.12-1.1-.02-.03,0-.07.02-.11.03-.24.17-.48.32-.73.43-.65.27-1.59.61-2.83,1.02l-.21-.85c1.61-.56,2.72-.97,3.38-1.25l.05-.02.04-.04c.15-.16.15-.31.13-.4-.05-.25-.32-.36-.46-.41-.45-.08-.86-.1-1.23-.07h-.08s-.06.06-.06.06c-.18.16-.34.31-.48.45-.49.17-1,.36-1.52.58-.04-.3-.1-.61-.17-.92,1.45-.47,2.48-.83,3.23-1.16.18-.18.26-.37.21-.54s-.19-.3-.42-.37c-.31-.13-.74-.16-1.3-.09h-.1s-.06.09-.06.09c-.27.31-.87.64-1.8.98-.04-.28-.08-.53-.13-.74l-.02-.1-.07-.04c1.51-.57,2.66-1,3.46-1.31.21-.12.46-.29.44-.55,0-.11-.07-.27-.35-.39-.73-.19-1.24-.25-1.62-.16h-.02c-.22.12-.46.27-.73.46-.2.15-.66.43-1.74.91.15-.37.31-.76.46-1.16.08-.13.18-.26.32-.41.17-.21.17-.39.14-.5-.05-.17-.21-.3-.45-.38-.24-.09-.61-.09-1.16-.02-.17,0-.3.03-.41.05-.14.03-.24.08-.32.15l-.12.1.04.15c.08.31.45.4.53.38h0s.01.04-.02.21c-.06.67-.14,1.33-.26,1.96-.7.33-1.41.61-2.13.85-.08.03-.16.06-.23.08-.08.02-.15.03-.21.03.08-.2.15-.42.22-.66.05-.22.12-.44.21-.66.22-.16.33-.34.31-.54-.03-.29-.31-.51-.89-.72-.43-.17-.82-.22-1.16-.13-.07.02-.14.04-.2.06-.14.05-.46.18-.43.45.03.27.35.35.7.4.17.12.15.21.09.36-.38,1.77-1.16,3.64-2.35,5.63-.02.09-.07.31.07.45l.15.11.14-.03c.08-.02.16-.07.29-.18.64-.77,1.29-1.69,1.94-2.72.27,1.12.5,2.21.71,3.26.05.47.12.85.19,1.14.16.67.38,1.11.72,1.37.18.07.33.08.46.05.15-.04.38-.16.39-.6.58-.25,1.28-.52,2.08-.82.47.23.74.51.83.86l.11.45c-2.67,1.01-4.49,1.7-5.53,2.12-.62.15-.86.16-.95.16-.12,0-.38-.05-.99-.19-.13-.03-.22-.03-.3-.01l-.18.07-.04.13c-.06.19.08.36.17.46.63.53,1.11.84,1.41.93.26.16.47.22.71.16.01,0,.02,0,.03,0,.36-.2.77-.42,1.26-.66.43-.25,1.35-.65,2.72-1.18-1.36,2.13-2.86,3.98-4.49,5.53-.12.19-.25.4-.12.58l.13.14.16-.04c.07-.02.15-.06.32-.2,1.41-1.06,2.56-2.07,3.41-3,1.14-1.42,2.03-2.58,2.64-3.46l.36,1.46c.16.65.24,1.35.26,2.16.18.74.44,1.21.75,1.4.18.14.36.19.52.16.22-.05.37-.27.43-.67-.01-.82-.12-1.39-.31-1.67l-.18-.74c-.19-.98-.37-1.82-.54-2.54.72.35,2.28,1.14,5.54,2.85.24.09.5.1.79.03,0,0,1.63-.51,1.63-.51l.88-.28c.08-.04.31-.16.3-.4,0-.1-.07-.25-.36-.35Zm-11.52-7.92l.23.94c-1.13.51-2.06.87-2.77,1.07l-.24-.98c.05,0,.1-.02.15-.03.15-.04.28-.09.38-.14.77-.29,1.52-.58,2.25-.86Zm-.26-1.08c-.92.37-1.86.7-2.79.99l-.22-.9c.15,0,.3-.01.46-.05,0,0,.01,0,.02,0,.75-.3,1.49-.57,2.17-.79.05-.01.17-.04.28.38l.09.38Zm-2.03,4.11c.09-.02.19-.04.28-.06.37-.09.77-.23,1.17-.41.48-.21.92-.4,1.33-.56l.21.85-2.53.94c-.09.02-.17.03-.26.04l-.2-.8Z"/>
                <path class="cls-5" d="m142.46,99.91c-.18-.06-.36-.07-.55-.03-.09.02-.17.05-.33.15l-.38.41c-1.55.6-3.14,1.18-4.72,1.74l-.6-2.76c-.04-.18-.04-.33.02-.48.11-.31,0-.59-.35-.8-1-.41-1.31-.44-1.52-.39h-.01c-.35.15-.66.36-.93.63-.14.16-.19.31-.13.45.04.09.13.21.44.22.13-.03.3-.02.48.02.14.05.22.26.26.43l.79,3.22c-1.25.47-2.64.98-4.21,1.54-.07.04-.17.07-.28.09-.23.06-.53.09-.81.12-.43-.15-1-.2-1.72-.15-.07,0-.13,0-.18.02-.18.04-.25.16-.27.23-.07.21.09.4.15.46l.05.06.07.02c.57.17.92.46,1.08.9.6,1.26,1.09,2.53,1.46,3.81.15.35.39.7.75,1.07.38.35.68.48.94.42.17-.04.45-.19.42-.81-.03-.11-.07-.23-.12-.37.15-.02.3-.04.44-.08.02,0,.05-.01.07-.02.89-.44,2.09-.93,3.59-1.47l1.45,5.93c.08.31.22.63.45.98.07.08.27.32.54.26.3-.07.36-.44.38-.58.11-.59.07-1.25-.1-1.95l-1.25-5.13c.91-.29,1.85-.55,2.8-.78.51-.12,1.02-.24,1.5-.34.37,0,.63-.03.79-.07.09-.02.21-.06.25-.13.2-.22.25-.54.15-.88l.36-4c0-.07.05-.21.29-.45.17-.14.24-.29.23-.45-.01-.16-.11-.29-.22-.34-.08-.09-.27-.24-1.51-.71Zm-5.7,3.43c1.83-.72,3.43-1.28,4.76-1.66.07-.02.13-.02.16,0,.02.01.07.06.09.25l.14,3.58c-.17,0-.34.01-.53.06-.19.05-.39.12-.57.21-1.11.38-2.18.73-3.19,1.03l-.85-3.47Zm-1.54.53l.86,3.53c-1.34.5-2.65.99-3.91,1.46-.16.04-.35.05-.56.03l-1.35-3.31c.13,0,.26-.03.38-.06s.25-.07.35-.12c1.23-.41,2.65-.92,4.23-1.53Z"/>
                <path class="cls-5" d="m153.75,107.56c-.11,0-.22.01-.32.04-.23.06-.45.18-.64.37-.28.27-.43.59-.43.95,0,.36.13.68.41.96.27.28.59.43.95.43.11,0,.22-.01.32-.04.23-.06.45-.18.64-.37.28-.27.43-.59.43-.95,0-.35-.13-.68-.41-.96-.28-.28-.59-.43-.95-.43Z"/>
                <path class="cls-5" d="m154.66,95.12c-.17-.16-.42-.24-.75-.25-.14,0-.26.01-.37.04-.42.1-.66.42-.67.9l.3,10.26c0,.18.05.33.15.44.11.11.25.16.44.17.07,0,.13,0,.19-.02.26-.06.41-.27.41-.56l.57-10.27c0-.3-.09-.54-.27-.71Z"/>
              </g>
            </g>
            <g>
              <g>
                <path class="cls-6" d="m258.15,139.14l-30.86-12.44-.29-.12-30.86-12.44c-.84-.34-1.76-.01-2.06.73l-17.23,42.72c-.3.74.14,1.61.97,1.95l30.86,12.44.29.12,30.86,12.44c.84.34,1.76.01,2.05-.73l17.23-42.72c.3-.74-.14-1.61-.97-1.95Z"/>
                <g>
                  <g>
                    <path class="cls-5" d="m257.35,139.48l-30.28-12.21-17.85,44.26,30.28,12.21c.84.34,1.76.01,2.06-.73l16.77-41.58c.3-.74-.14-1.61-.97-1.95Zm-45.15,30.83l-1.15-.46.46-1.15,1.15.46-.46,1.15Zm.92-2.29l-1.15-.46.46-1.15,1.15.46-.46,1.15Zm.92-2.29l-1.15-.46.46-1.15,1.15.46-.46,1.15Zm.92-2.29l-1.15-.46.46-1.15,1.15.46-.46,1.15Zm.92-2.29l-1.15-.46.46-1.15,1.15.46-.46,1.15Zm.92-2.29l-1.15-.46.46-1.15,1.15.46-.46,1.15Zm.92-2.29l-1.15-.46.46-1.15,1.15.46-.46,1.15Zm.92-2.29l-1.15-.46.46-1.15,1.15.46-.46,1.15Zm.92-2.29l-1.15-.46.46-1.15,1.15.46-.46,1.15Zm.92-2.29l-1.15-.46.46-1.15,1.15.46-.46,1.15Zm.92-2.29l-1.15-.46.46-1.15,1.15.46-.46,1.15Zm.92-2.29l-1.15-.46.46-1.15,1.15.46-.46,1.15Zm.92-2.29l-1.15-.46.46-1.15,1.15.46-.46,1.15Zm.92-2.29l-1.15-.46.46-1.15,1.15.46-.46,1.15Zm.92-2.29l-1.15-.46.46-1.15,1.15.46-.46,1.15Zm.92-2.29l-1.15-.46.46-1.15,1.15.46-.46,1.15Zm.92-2.29l-1.15-.46.46-1.15,1.15.46-.46,1.15Zm.92-2.29l-1.15-.46.46-1.15,1.15.46-.46,1.15Z"/>
                    <path class="cls-5" d="m194.44,115.67l-16.77,41.58c-.3.74.14,1.61.97,1.95l30.28,12.21,17.85-44.26-30.28-12.21c-.84-.34-1.76-.01-2.06.73Zm13.64,51.65l1.15.46-.46,1.15-1.15-.46.46-1.15Zm.92-2.29l1.15.46-.46,1.15-1.15-.46.46-1.15Zm.92-2.29l1.15.46-.46,1.15-1.15-.46.46-1.15Zm.92-2.29l1.15.46-.46,1.15-1.15-.46.46-1.15Zm.92-2.29l1.15.46-.46,1.15-1.15-.46.46-1.15Zm.92-2.29l1.15.46-.46,1.15-1.15-.46.46-1.15Zm.92-2.29l1.15.46-.46,1.15-1.15-.46.46-1.15Zm.92-2.29l1.15.46-.46,1.15-1.15-.46.46-1.15Zm.92-2.29l1.15.46-.46,1.15-1.15-.46.46-1.15Zm.92-2.29l1.15.46-.46,1.15-1.15-.46.46-1.15Zm.92-2.29l1.15.46-.46,1.15-1.15-.46.46-1.15Zm.92-2.29l1.15.46-.46,1.15-1.15-.46.46-1.15Zm.92-2.29l1.15.46-.46,1.15-1.15-.46.46-1.15Zm.92-2.29l1.15.46-.46,1.15-1.15-.46.46-1.15Zm.92-2.29l1.15.46-.46,1.15-1.15-.46.46-1.15Zm.92-2.29l1.15.46-.46,1.15-1.15-.46.46-1.15Zm.92-2.29l1.15.46-.46,1.15-1.15-.46.46-1.15Zm.92-2.29l1.15.46-.46,1.15-1.15-.46.46-1.15Z"/>
                    <rect class="cls-31" x="225.55" y="127.7" width=".62" height="4.32" transform="translate(20.94 290.75) rotate(-68.04)"/>
                    <rect class="cls-32" x="224.62" y="129.99" width=".62" height="4.32" transform="translate(18.24 291.33) rotate(-68.04)"/>
                    <rect class="cls-12" x="223.7" y="132.28" width=".62" height="4.32" transform="translate(15.54 291.9) rotate(-68.04)"/>
                    <rect class="cls-11" x="222.77" y="134.57" width=".62" height="4.32" transform="translate(12.83 292.48) rotate(-68.04)"/>
                    <rect class="cls-15" x="221.85" y="136.86" width=".62" height="4.32" transform="translate(10.13 293.06) rotate(-68.04)"/>
                    <rect class="cls-2" x="220.92" y="139.16" width=".62" height="4.32" transform="translate(7.42 293.63) rotate(-68.04)"/>
                    <rect class="cls-9" x="220" y="141.45" width=".62" height="4.32" transform="translate(4.72 294.21) rotate(-68.04)"/>
                    <rect class="cls-46" x="219.08" y="143.74" width=".62" height="4.32" transform="translate(2.02 294.79) rotate(-68.04)"/>
                    <rect class="cls-3" x="218.15" y="146.03" width=".62" height="4.32" transform="translate(-.69 295.37) rotate(-68.04)"/>
                    <rect class="cls-44" x="217.23" y="148.32" width=".62" height="4.32" transform="translate(-3.39 295.94) rotate(-68.04)"/>
                    <rect class="cls-18" x="216.3" y="150.61" width=".62" height="4.32" transform="translate(-6.09 296.52) rotate(-68.04)"/>
                    <rect class="cls-25" x="215.38" y="152.91" width=".62" height="4.32" transform="translate(-8.8 297.1) rotate(-68.04)"/>
                    <rect class="cls-38" x="214.46" y="155.2" width=".62" height="4.32" transform="translate(-11.5 297.68) rotate(-68.04)"/>
                    <rect class="cls-29" x="213.53" y="157.49" width=".62" height="4.32" transform="translate(-14.21 298.25) rotate(-68.04)"/>
                    <rect class="cls-8" x="212.61" y="159.78" width=".62" height="4.32" transform="translate(-16.91 298.83) rotate(-68.04)"/>
                    <rect class="cls-37" x="211.68" y="162.07" width=".62" height="4.32" transform="translate(-19.61 299.41) rotate(-68.04)"/>
                    <rect class="cls-45" x="210.76" y="164.36" width=".62" height="4.32" transform="translate(-22.32 299.99) rotate(-68.04)"/>
                    <rect class="cls-16" x="209.83" y="166.66" width=".62" height="4.32" transform="translate(-25.02 300.56) rotate(-68.04)"/>
                  </g>
                  <g>
                    <line class="cls-23" x1="255.42" y1="142.03" x2="229.35" y2="131.52"/>
                    <line class="cls-23" x1="254.84" y1="143.46" x2="228.77" y2="132.95"/>
                    <line class="cls-23" x1="254.26" y1="144.9" x2="228.19" y2="134.38"/>
                    <line class="cls-23" x1="253.68" y1="146.33" x2="227.62" y2="135.81"/>
                    <line class="cls-23" x1="253.11" y1="147.76" x2="227.04" y2="137.25"/>
                    <line class="cls-23" x1="252.53" y1="149.19" x2="226.46" y2="138.68"/>
                    <line class="cls-23" x1="251.95" y1="150.63" x2="225.88" y2="140.11"/>
                    <line class="cls-23" x1="251.37" y1="152.06" x2="225.31" y2="141.54"/>
                    <line class="cls-23" x1="250.8" y1="153.49" x2="224.73" y2="142.98"/>
                    <line class="cls-23" x1="250.22" y1="154.92" x2="224.15" y2="144.41"/>
                    <line class="cls-23" x1="249.64" y1="156.35" x2="223.57" y2="145.84"/>
                    <line class="cls-23" x1="249.06" y1="157.79" x2="222.99" y2="147.27"/>
                    <line class="cls-23" x1="248.49" y1="159.22" x2="222.42" y2="148.71"/>
                    <line class="cls-23" x1="247.91" y1="160.65" x2="221.84" y2="150.14"/>
                    <line class="cls-23" x1="247.33" y1="162.08" x2="221.26" y2="151.57"/>
                    <line class="cls-23" x1="246.75" y1="163.52" x2="220.68" y2="153"/>
                    <line class="cls-23" x1="246.17" y1="164.95" x2="220.11" y2="154.43"/>
                    <line class="cls-23" x1="245.6" y1="166.38" x2="219.53" y2="155.87"/>
                    <line class="cls-23" x1="245.02" y1="167.81" x2="218.95" y2="157.3"/>
                    <line class="cls-23" x1="244.44" y1="169.24" x2="218.37" y2="158.73"/>
                    <line class="cls-23" x1="243.86" y1="170.68" x2="217.8" y2="160.16"/>
                    <line class="cls-23" x1="243.29" y1="172.11" x2="217.22" y2="161.6"/>
                    <line class="cls-23" x1="242.71" y1="173.54" x2="216.64" y2="163.03"/>
                    <line class="cls-23" x1="242.13" y1="174.97" x2="216.06" y2="164.46"/>
                    <line class="cls-23" x1="241.55" y1="176.41" x2="215.49" y2="165.89"/>
                    <line class="cls-23" x1="240.98" y1="177.84" x2="214.91" y2="167.32"/>
                    <line class="cls-23" x1="240.4" y1="179.27" x2="214.33" y2="168.76"/>
                    <line class="cls-23" x1="239.82" y1="180.7" x2="213.75" y2="170.19"/>
                  </g>
                  <g>
                    <line class="cls-23" x1="222.19" y1="128.63" x2="196.12" y2="118.12"/>
                    <line class="cls-23" x1="221.61" y1="130.06" x2="195.54" y2="119.55"/>
                    <line class="cls-23" x1="221.03" y1="131.49" x2="194.96" y2="120.98"/>
                    <line class="cls-23" x1="220.45" y1="132.93" x2="194.39" y2="122.41"/>
                    <line class="cls-23" x1="219.88" y1="134.36" x2="193.81" y2="123.85"/>
                    <line class="cls-23" x1="219.3" y1="135.79" x2="193.23" y2="125.28"/>
                    <line class="cls-23" x1="218.72" y1="137.22" x2="192.65" y2="126.71"/>
                    <line class="cls-23" x1="218.14" y1="138.66" x2="192.08" y2="128.14"/>
                    <line class="cls-23" x1="217.57" y1="140.09" x2="191.5" y2="129.57"/>
                    <line class="cls-23" x1="216.99" y1="141.52" x2="190.92" y2="131.01"/>
                    <line class="cls-23" x1="216.41" y1="142.95" x2="190.34" y2="132.44"/>
                    <line class="cls-23" x1="215.83" y1="144.38" x2="189.76" y2="133.87"/>
                    <line class="cls-23" x1="215.26" y1="145.82" x2="189.19" y2="135.3"/>
                    <line class="cls-23" x1="214.68" y1="147.25" x2="188.61" y2="136.74"/>
                    <line class="cls-23" x1="214.1" y1="148.68" x2="188.03" y2="138.17"/>
                    <line class="cls-23" x1="213.52" y1="150.11" x2="187.45" y2="139.6"/>
                    <line class="cls-23" x1="212.94" y1="151.55" x2="186.88" y2="141.03"/>
                    <line class="cls-23" x1="212.37" y1="152.98" x2="186.3" y2="142.46"/>
                    <line class="cls-23" x1="211.79" y1="154.41" x2="185.72" y2="143.9"/>
                    <line class="cls-23" x1="211.21" y1="155.84" x2="185.14" y2="145.33"/>
                    <line class="cls-23" x1="210.63" y1="157.27" x2="184.57" y2="146.76"/>
                    <line class="cls-23" x1="210.06" y1="158.71" x2="183.99" y2="148.19"/>
                    <line class="cls-23" x1="209.48" y1="160.14" x2="183.41" y2="149.63"/>
                    <line class="cls-23" x1="208.9" y1="161.57" x2="182.83" y2="151.06"/>
                    <line class="cls-23" x1="208.32" y1="163" x2="182.26" y2="152.49"/>
                    <line class="cls-23" x1="207.75" y1="164.44" x2="181.68" y2="153.92"/>
                    <line class="cls-23" x1="207.17" y1="165.87" x2="181.1" y2="155.36"/>
                    <line class="cls-23" x1="206.59" y1="167.3" x2="180.52" y2="156.79"/>
                  </g>
                </g>
              </g>
              <g>
                <path class="cls-47" d="m215.51,130.36c-.12-.14-.25-.28-.39-.39-.17-.14-.35-.26-.55-.36.04-.18.02-.37,0-.55-.02-.14-.05-.28-.09-.41-.08-.27-.2-.52-.36-.75-.31-.48-.74-.89-1.2-1.22-.48-.35-1.02-.63-1.59-.83-.36-.13-.74-.21-1.12-.24-.19-.01-.39-.02-.58,0-.05,0-.09,0-.14,0-.02,0-.04,0-.06,0-.02,0-.03,0-.04,0-.04-.08-.08-.15-.13-.22-.2-.29-.46-.53-.74-.73-.29-.21-.62-.38-.95-.51-.35-.15-.72-.25-1.09-.32-1.72-.28-3.58.12-5.01,1.14-.14.1-.28.22-.4.35-.07.07-.13.14-.19.21-.03.04-.06.07-.08.11,0,.01-.02,0-.03,0-.03,0-.05-.02-.08-.03-.36-.12-.75-.15-1.13-.14-.37,0-.75.06-1.11.16-.35.09-.7.22-1.02.39-.61.33-1.15.79-1.61,1.31-.23.26-.43.54-.62.83-.21.32-.38.66-.53,1.02-.15.36-.28.72-.36,1.1-.07.35-.09.7-.07,1.05.04.51.17,1.02.38,1.49-.17.07-.34.14-.49.23-.15.09-.3.2-.42.32-.25.25-.44.56-.56.89-.13.34-.2.71-.21,1.08-.01.29,0,.59.02.88.06.54.21,1.07.47,1.55.27.51.65.95,1.08,1.33.23.2.48.39.75.54.29.16.61.27.92.36-.02.37.07.73.21,1.07.07.17.16.33.26.48.1.15.22.29.34.42.13.13.26.25.41.35.15.11.31.2.47.29.33.18.67.32,1.02.43.37.12.74.21,1.12.29.38.07.77.11,1.16.12.38.01.77,0,1.16-.04.37-.04.73-.11,1.09-.2.17-.04.33-.09.49-.15.03-.01.07-.03.1-.04.03-.01.05-.02.07-.04.03-.03.05-.08.04-.13,0-.05-.03-.09-.08-.11-.06-.03-.12-.01-.18,0-.07.02-.14.05-.2.08-.08.03-.16.05-.24.08-.37.1-.74.17-1.12.22-.38.05-.76.07-1.14.06-.39-.01-.78-.06-1.16-.14-.37-.08-.74-.18-1.1-.3-.36-.13-.69-.3-1.01-.51-.31-.2-.57-.47-.76-.78-.25-.4-.42-.86-.42-1.33.19.04.38.05.57.05.18,0,.36-.03.53-.09.16-.06.33-.13.46-.25.11-.11.2-.26.2-.42,0-.33-.38-.5-.65-.57-.18-.04-.37-.04-.56-.01-.17.03-.33.07-.48.16-.27.16-.48.42-.56.72-.17-.06-.34-.12-.5-.19-.13-.06-.25-.13-.37-.21-.24-.15-.46-.34-.66-.54-.4-.41-.71-.91-.92-1.44-.21-.53-.32-1.09-.32-1.66,0-.38.03-.75.14-1.11.1-.32.25-.64.46-.9.11-.13.23-.25.37-.34.08-.05.16-.1.24-.14.03-.02.07-.05.11-.05.01,0,.06.08.07.09.19.27.47.48.8.55.31.06.66,0,.9-.19.12-.1.22-.25.2-.41-.02-.16-.16-.28-.3-.35-.32-.18-.71-.21-1.07-.18-.09,0-.19.02-.27.04-.02,0-.02,0-.03-.02,0-.02-.02-.04-.02-.06-.02-.05-.03-.09-.05-.14-.06-.18-.11-.36-.15-.54-.16-.73-.08-1.49.16-2.19.23-.71.6-1.37,1.06-1.96.42-.53.91-1.02,1.49-1.38.6-.38,1.31-.6,2.02-.63.34-.01.72,0,1.03.16-.09.16-.17.33-.22.51-.04.15-.05.31.01.46.13.31.5.41.8.35.14-.03.28-.1.37-.21.09-.11.13-.25.12-.39-.03-.31-.24-.56-.48-.74.2-.3.45-.57.75-.78,1.43-.98,3.39-1.41,5.06-.84.65.22,1.3.59,1.71,1.16.06.09.11.18.16.27-.32.07-.64.21-.85.46-.09.11-.17.26-.14.41.04.15.16.25.3.3.29.11.65.08.9-.09.13-.09.25-.22.32-.36.04-.08.07-.16.09-.25.01-.09,0-.18-.02-.27.38-.04.77-.03,1.15.05.19.04.37.1.55.17.18.07.35.14.52.23.16.09.33.18.48.29.15.11.3.23.44.34.28.23.54.48.78.76.2.23.37.49.48.77.11.3.18.61.16.93-.19-.04-.38-.05-.58-.03-.16.01-.32.04-.46.11-.13.06-.27.17-.28.33-.01.16.13.3.26.37.23.14.51.18.77.13.14-.02.27-.07.39-.14.12-.07.22-.16.29-.28.24.16.46.35.63.59.18.24.3.52.41.79.13.34.21.7.25,1.06.04.37.02.74-.02,1.11-.05.38-.13.77-.23,1.14-.1.35-.25.68-.45.99-.19.28-.42.53-.7.73-.15.11-.31.21-.47.29-.04.02-.08.04-.12.05-.02,0-.04.01-.05.02-.02,0-.03.01-.05,0-.07-.06-.14-.11-.22-.16-.3-.18-.68-.25-1.03-.18-.14.03-.33.09-.41.23-.04.06-.04.15,0,.21.04.06.11.11.18.14.19.09.4.12.6.14.22.02.43.02.65,0,.1.16.16.34.2.52.04.18.06.36.06.54,0,.36-.09.71-.23,1.05-.12.29-.28.57-.48.81-.1.12-.21.23-.33.33-.13.11-.28.2-.42.29-.52.3-1.1.49-1.69.58-.08-.32-.26-.6-.52-.8-.24-.18-.54-.26-.84-.25-.28,0-.6.1-.77.34-.09.12-.12.27-.05.41.07.14.22.23.36.31.41.23.87.32,1.34.32,0,.19-.04.38-.11.55-.06.16-.15.32-.26.45-.11.13-.23.25-.38.35-.12.08-.24.14-.37.19-.55.22-1.17.26-1.75.17-.29-.04-.56-.12-.83-.24-.29-.12-.57-.26-.83-.43-.26-.18-.49-.39-.67-.66-.1-.15-.18-.31-.24-.48-.01-.04-.03-.08-.04-.12,0-.04,0-.08-.02-.12-.02-.06-.1-.1-.16-.11-.07-.02-.14-.02-.21-.01-.06,0-.15.04-.16.12,0,.08.03.17.06.25.03.09.07.17.11.25.14.29.33.55.57.77.24.21.51.38.79.52.17.09.34.17.52.24.16.07.33.13.5.18.44.12.89.17,1.34.16.47,0,.94-.08,1.37-.26.41-.16.78-.43,1.02-.8.14-.21.23-.46.27-.71,0-.05.01-.09.01-.14,0-.05,0-.1,0-.15,0-.02.07-.02.08-.02.05,0,.1-.01.14-.02.19-.03.38-.07.56-.11.35-.09.69-.21,1.02-.38.3-.16.6-.33.86-.56.45-.41.78-.96.92-1.56.07-.3.09-.6.06-.91-.03-.33-.12-.67-.31-.95.33-.1.64-.28.92-.48.27-.2.51-.45.7-.72.2-.3.36-.62.48-.96.12-.33.2-.67.26-1.01.1-.57.11-1.17,0-1.74-.12-.6-.34-1.21-.73-1.69Zm-18.54,9.02c.1-.11.22-.2.36-.25.09-.02.18-.05.27-.05.08,0,.17.04.24.08.15.1.11.31.02.44-.1.13-.26.21-.41.26-.18.06-.37.05-.55.02-.01,0-.17-.02-.16-.04.04-.17.12-.33.23-.46Zm-1.29-6.5c.11,0,.22,0,.33.05.09.03.19.09.21.19.02.1-.04.2-.12.27-.08.07-.18.12-.28.12-.13-.01-.25-.11-.34-.2-.1-.11-.18-.23-.25-.35.15-.04.3-.06.45-.06Zm5.49-6.27c0,.14-.05.26-.18.33-.18-.19-.06-.51.03-.71.09.11.13.25.15.38Zm7.66-.19c-.05.06-.11.12-.17.17-.03.02-.06.04-.1.05-.02,0-.06.03-.09,0-.12-.12,0-.3.1-.4.12-.11.26-.19.41-.25.02.16-.06.31-.15.42Zm4.96,3.56c-.09.06-.19.1-.3.1-.09,0-.19-.09-.21-.18,0-.01,0-.03,0-.04,0-.01.01-.03.02-.04.06-.09.17-.12.27-.14.14-.02.29-.01.42.02-.05.11-.11.21-.2.28Zm-.8,6.82c-.08,0-.16,0-.24,0-.08,0-.15-.02-.23-.04-.03,0-.03-.01-.03-.04,0,0,0,0,0,.01,0-.02.02-.04.03-.06,0,0,0,0,0,0,.03-.04.09-.06.14-.07.07-.01.14-.01.2,0,.13.03.25.1.35.19,0,0-.01,0-.02,0,0,0,.02,0,.02,0-.07,0-.14,0-.21,0Zm-3.22,4.42c-.17-.01-.34-.05-.49-.11-.08-.03-.15-.07-.22-.11-.06-.04-.13-.08-.18-.14-.03-.04-.03-.08-.03-.13,0,0,0,.01,0,.02.02-.14.14-.25.26-.3.16-.07.33-.03.47.06.24.16.39.44.44.72-.08,0-.16,0-.25,0Z"/>
                <path class="cls-47" d="m196.72,139.99s0,0,0,0c0,0,0,0,0,0Z"/>
                <path class="cls-47" d="m211.43,132.36c-.19-.42-.45-.8-.73-1.15-.14-.18-.3-.34-.46-.5-.17-.16-.35-.31-.53-.44-.37-.28-.77-.52-1.18-.71-.42-.2-.87-.36-1.32-.48-.45-.12-.92-.2-1.38-.25-.23-.02-.46-.04-.7-.05-.24,0-.47-.01-.71,0-.47.01-.94.05-1.41.13-.45.08-.9.19-1.33.34-.42.15-.83.34-1.23.57-.76.44-1.46,1.02-2,1.74-.14.18-.27.37-.38.56-.12.2-.23.4-.33.61-.2.43-.34.88-.43,1.35-.04.24-.07.48-.09.72-.01.24-.01.48,0,.72.03.47.1.94.22,1.4.12.44.29.88.51,1.27.22.39.48.76.77,1.09.14.16.3.32.46.47.16.15.33.28.51.41.18.13.36.25.54.36.19.11.39.21.59.3.21.09.42.17.63.23.22.07.43.13.65.17.23.04.45.07.68.09.09,0,.18.02.27.02.03,0,.06,0,.09,0,.1,0,.21,0,.31.01,0,0,.01,0,.02,0,.05,0,.1,0,.14-.02.03-.01.06-.03.06-.07,0-.04-.03-.06-.05-.08-.04-.03-.09-.04-.14-.04-.07,0-.14,0-.21,0-.13,0-.26-.02-.39-.03-.13-.01-.26-.02-.4-.04-.12-.02-.25-.03-.37-.06-.16-.03-.31-.08-.47-.13-.18-.06-.37-.12-.55-.2-.16-.07-.32-.15-.48-.23-.2-.11-.4-.24-.59-.38-.23-.17-.46-.36-.67-.56-.26-.26-.5-.55-.72-.85-.12-.18-.23-.36-.33-.55-.1-.18-.18-.37-.26-.56-.1-.27-.19-.54-.25-.82-.07-.28-.11-.57-.14-.86-.03-.3-.04-.61-.03-.91.01-.31.05-.61.11-.91.05-.26.12-.52.21-.76.09-.25.19-.48.31-.71.23-.44.52-.86.84-1.23.28-.32.59-.61.92-.86.29-.22.6-.42.92-.6.27-.15.55-.27.84-.39.24-.09.47-.17.72-.23.26-.07.52-.12.78-.16.29-.04.57-.07.86-.09.3-.02.6-.02.91-.01.29,0,.58.03.87.06.24.03.49.07.73.12.23.05.47.11.7.18.21.07.42.14.63.23.23.1.46.21.68.33.24.14.47.28.69.45.23.17.45.36.65.56.24.25.46.52.66.81.1.16.2.32.29.49.09.17.17.35.23.53.08.22.15.45.19.69.04.22.07.44.09.67.04.51,0,1.02-.1,1.51-.04.18-.09.36-.16.54-.06.17-.14.32-.22.48-.08.14-.17.28-.26.41-.09.12-.18.23-.28.34-.22.24-.46.45-.72.65-.24.17-.48.33-.74.46-.21.11-.43.2-.65.29-.22.08-.44.15-.66.21-.09.02-.19.04-.28.07-.07.02-.14.03-.21.05-.03,0-.06.02-.09.02-.2.03-.39.06-.59.09-.2.02-.39.03-.59.05-.1,0-.21,0-.31,0-.12,0-.23,0-.35,0-.17,0-.33-.02-.5-.04-.15-.02-.3-.04-.45-.07-.14-.03-.28-.07-.42-.11-.15-.05-.29-.1-.43-.15-.14-.06-.27-.12-.41-.2-.1-.06-.21-.12-.3-.19-.12-.09-.23-.18-.33-.28-.16-.16-.3-.33-.43-.51-.06-.08-.11-.17-.16-.26-.05-.09-.1-.19-.14-.29-.05-.12-.09-.25-.11-.37-.03-.12-.05-.24-.06-.37-.01-.14-.02-.28,0-.41,0-.13.03-.25.05-.38.05-.25.14-.48.26-.7.07-.12.14-.23.22-.34.08-.11.17-.22.26-.32.16-.18.34-.35.53-.5.12-.09.25-.17.39-.25.12-.06.23-.11.35-.16.1-.04.21-.07.31-.1.11-.03.22-.05.33-.07.11-.02.22-.03.32-.03.12,0,.24,0,.36,0,.11,0,.22.01.33.02.11.01.23.03.34.06.12.03.25.06.37.1.11.03.22.07.33.12.11.05.22.1.32.16.1.05.19.11.28.18.08.06.17.13.24.21.08.08.15.16.21.25.07.11.13.22.17.34.03.08.05.15.07.23.01.07.02.14.03.21,0,.08,0,.17,0,.25,0,.07-.02.14-.03.21-.03.15-.09.28-.16.41-.08.14-.17.26-.27.38-.11.12-.24.23-.37.33-.11.08-.22.15-.33.21-.08.04-.16.08-.24.11-.08.03-.16.05-.24.07-.08.02-.15.03-.23.05-.08.01-.16.02-.24.02-.06,0-.13,0-.19,0-.06,0-.13,0-.19-.01-.05,0-.1-.02-.15-.03-.05-.01-.09-.02-.14-.04-.04-.01-.08-.03-.13-.05-.04-.02-.09-.04-.13-.06-.04-.02-.07-.05-.11-.07-.05-.04-.09-.07-.13-.11-.05-.05-.1-.11-.14-.17-.05-.07-.09-.15-.12-.23-.01-.04-.03-.08-.04-.12,0-.04-.02-.08-.02-.12,0-.04,0-.08,0-.12,0-.04,0-.07.01-.1,0-.04.02-.08.03-.11.01-.04.03-.08.05-.11.03-.05.06-.1.1-.15.03-.03.06-.06.1-.09.02-.02.05-.03.07-.04.03-.01.06-.03.08-.04.02,0,.05-.01.07-.02.03,0,.05-.01.08-.02.02,0,.05,0,.07,0,.02,0,.04,0,.06,0,.05,0,.1,0,.14.01,0,0,.02,0,.02,0,0,0,.01,0,.02,0,0,0,0,0,0,0,0,0,0,0,0,0,0,0,0,0,0,0,.05.02.09.03.14.03.04,0,.09,0,.13-.03.03-.02.05-.04.04-.08,0-.04-.05-.06-.08-.08-.04-.02-.08-.03-.12-.04-.04,0-.09-.02-.13-.02-.06,0-.12-.01-.19-.01-.08,0-.15,0-.23,0-.04,0-.09.01-.13.02-.04,0-.08.02-.12.03-.08.03-.15.06-.22.1-.07.05-.13.1-.19.16-.11.12-.18.28-.21.45-.02.09-.02.17-.01.26,0,.04.01.09.02.13.01.04.02.09.04.13.03.08.07.16.11.23.05.07.1.14.15.2.11.12.24.22.38.29.2.11.41.18.63.21.23.04.46.05.68.03.23-.02.45-.05.67-.12.21-.06.42-.15.61-.27.18-.11.35-.24.51-.39.16-.15.3-.33.41-.52.11-.19.18-.4.2-.62.03-.23,0-.47-.06-.69-.07-.21-.17-.41-.3-.59-.14-.17-.3-.32-.47-.44-.1-.07-.2-.13-.3-.19-.1-.05-.2-.1-.3-.15-.21-.09-.43-.17-.65-.22-.23-.06-.45-.1-.68-.13-.23-.02-.46-.03-.69-.02-.45.02-.9.1-1.32.28-.2.08-.39.19-.57.31-.18.12-.35.27-.51.42-.16.16-.31.33-.44.51-.13.18-.25.37-.34.58-.09.21-.16.42-.19.65-.02.12-.03.24-.04.36,0,.11,0,.22.01.33.02.22.06.45.13.66.04.11.08.21.13.32.05.1.1.19.16.28.12.18.25.36.4.52.08.09.16.17.24.24.08.07.16.14.25.2.18.13.37.24.58.34.2.1.42.18.63.25.22.07.44.13.66.17.23.04.45.07.68.09.12,0,.25.01.37.02.02,0,.05,0,.07,0,.1,0,.2,0,.31,0,.08,0,.17,0,.25,0,.06,0,.12,0,.17-.01.11,0,.22-.02.33-.03.06,0,.12,0,.18-.02.18-.03.36-.06.55-.09.02,0,.04,0,.06,0,.02,0,.03,0,.05-.01.1-.02.2-.05.3-.07.08-.02.16-.04.24-.06.08-.02.16-.04.25-.07.11-.03.21-.06.32-.1.21-.07.42-.15.63-.25.2-.09.39-.2.58-.31.38-.23.74-.51,1.06-.83.15-.16.3-.32.43-.5.13-.18.25-.38.35-.58.1-.22.19-.44.25-.67.06-.23.11-.46.13-.7.05-.48.04-.97-.03-1.45-.07-.47-.2-.93-.4-1.36Z"/>
                <path class="cls-47" d="m204.5,129.75s-.08.02-.12.04c-.02,0-.03.02-.05.03-.02,0-.04,0-.06.01-.04.01-.06.04-.08.08-.02.04-.03.08-.05.12-.03.09-.02.18,0,.27.01.08.04.17.11.22.07.05.17.07.26.06.09,0,.17-.05.24-.12.06-.06.1-.14.12-.22.02-.09.03-.18.02-.27-.01-.18-.22-.24-.38-.21Z"/>
                <path class="cls-47" d="m206.92,130.05c-.07-.04-.16-.05-.25-.04-.08,0-.17.04-.23.09-.07.05-.11.13-.15.2-.04.08-.07.16-.04.25,0,.02,0,.04,0,.06,0,.02,0,.04.01.06.01.04.03.07.06.09.07.06.17.07.26.06.09,0,.19-.03.25-.1.12-.12.19-.32.18-.48,0-.08-.04-.14-.11-.18Z"/>
                <path class="cls-47" d="m207.66,130.87c-.07-.03-.17-.04-.25,0-.04.02-.05.06-.06.09-.02.04-.03.08-.05.12-.16.32-.38.62-.69.81-.16.1-.34.16-.52.22-.18.06-.37.11-.56.13-.37.04-.78-.02-1.1-.21-.08-.05-.15-.1-.22-.16-.07-.06-.14-.12-.19-.2-.11-.14-.19-.31-.24-.48-.03-.09-.05-.18-.06-.28,0-.05,0-.1,0-.14,0-.04.01-.07-.02-.1-.05-.06-.15-.08-.23-.08-.04,0-.08,0-.12.03-.04.02-.04.05-.04.09-.02.19.03.38.1.56.06.17.14.33.25.47.23.28.54.49.88.6.42.14.87.18,1.3.11.19-.03.37-.08.55-.14.17-.06.35-.13.51-.22.32-.18.56-.47.74-.78.05-.08.09-.16.12-.25.01-.04.03-.07,0-.11-.02-.03-.06-.05-.09-.06Z"/>
                <g>
                  <path class="cls-47" d="m197.4,130.15c-.07-.02-.15-.01-.22.02-.07.03-.12.09-.17.14-.07.07-.14.14-.2.21-.14.14-.27.28-.4.42-.07.07-.13.14-.2.21-.03.03-.05.07-.02.1.02.03.06.04.09.04.07.01.14,0,.21-.02.05-.03.09-.08.13-.12.1-.11.2-.22.3-.32.1-.11.21-.22.31-.33.05-.05.1-.1.15-.15.03-.03.07-.05.09-.09.04-.06-.02-.1-.07-.12Z"/>
                  <path class="cls-47" d="m197.44,132.05s-.05-.05-.07-.08c-.04-.06-.08-.13-.11-.2-.08-.16-.13-.34-.18-.51-.06-.18-.1-.37-.14-.56-.02-.09-.03-.19-.04-.29,0-.03,0-.07-.01-.11-.01-.03-.05-.05-.08-.06-.07-.02-.15-.02-.21,0-.03.01-.07.03-.08.07-.01.03,0,.07,0,.1.04.38.14.75.26,1.11.05.16.12.32.21.47.07.12.18.22.32.23.05,0,.1,0,.14-.03.04-.02.1-.06.07-.11-.02-.03-.05-.03-.07-.05Z"/>
                  <path class="cls-47" d="m198.02,130.42c-.09-.04-.22-.02-.29.04-.12.11-.24.23-.35.35-.05.06-.12.12-.16.18-.04.07.05.1.1.11.06.01.12,0,.18-.01.06-.02.1-.06.13-.11.09-.11.19-.21.29-.31.03-.03.05-.05.08-.08.02-.02.05-.04.07-.07.04-.05,0-.09-.04-.12Z"/>
                  <path class="cls-47" d="m198.53,130.81s-.07-.03-.1-.04c-.07,0-.16,0-.22.05-.03.03-.05.07-.07.11-.02.04-.04.07-.07.11-.05.07-.1.13-.17.17-.04.03-.07.01-.11,0-.03,0-.07,0-.1,0-.05,0-.11.02-.14.06-.04.05,0,.1.05.12.05.02.1.03.16.03.16.01.32-.03.46-.12.07-.05.13-.1.18-.17.05-.07.11-.15.15-.23.02-.04.02-.07-.01-.1Z"/>
                  <path class="cls-47" d="m198.99,130.23c-.07,0-.14.03-.21.06-.02,0-.03-.01-.05-.02-.08-.04-.14-.1-.2-.16-.06-.06-.12-.13-.16-.21-.02-.04-.04-.06-.08-.07-.04,0-.08,0-.11,0-.07.01-.14.04-.18.09-.03.04-.01.07,0,.11.02.04.05.07.07.1.06.07.11.14.18.2.06.06.14.11.22.14.09.04.18.04.28.02.08-.01.16-.04.23-.08.05-.02.11-.06.11-.12,0-.05-.07-.07-.11-.07Z"/>
                  <path class="cls-47" d="m199.57,129.61c-.15-.12-.3-.25-.45-.38-.02-.02-.04-.03-.06-.05-.01-.01-.02-.03-.04-.04-.03-.02-.07-.02-.11-.01-.07,0-.15.04-.2.1-.03.03-.04.07-.02.1.02.03.06.06.08.08.07.06.14.12.22.19.07.06.15.12.22.18.04.03.07.06.11.09.03.02.07.02.11.02.08,0,.15-.04.21-.1.02-.02.05-.06.02-.1-.02-.03-.06-.05-.09-.07Z"/>
                  <path class="cls-47" d="m200.8,128.77c-.08-.05-.16-.09-.25-.13-.08-.04-.17-.09-.25-.12-.16-.07-.34-.12-.51-.07-.04.01-.07.03-.09.06-.02.03-.03.07-.03.11-.02.09-.04.19-.06.29-.02.09-.03.19-.03.29,0,.05,0,.09.01.14,0,.03.04.05.07.07.08.04.17.05.26.03.03,0,.07-.02.09-.05.01-.02,0-.04,0-.06,0-.02,0-.04,0-.06,0-.2.05-.4.09-.6.09.04.17.09.26.13.07.04.15.09.23.11.08.02.17.03.24,0,.03,0,.06-.03.06-.07,0-.04-.05-.06-.08-.07Z"/>
                  <path class="cls-47" d="m202.67,128.1c-.06-.02-.13-.03-.19-.02-.04,0-.08.02-.1.05-.02.03-.03.06-.04.09-.04.08-.09.15-.16.2-.01.01-.03.03-.05.03-.02,0-.04-.01-.05-.02-.04-.02-.07-.04-.11-.06-.15-.08-.33-.12-.49-.04,0-.1.01-.2.02-.3,0-.09.02-.19.03-.28.02-.13-.15-.15-.24-.14-.05,0-.12.01-.14.06-.02.04-.02.09-.02.13,0,.05,0,.09-.01.14-.02.19-.03.39-.03.58,0,.1,0,.19,0,.29,0,.08.02.15.1.19.06.03.13.04.2.02.03,0,.07-.01.09-.03.02-.02.04-.05.05-.08.03-.06.06-.13.09-.19.03-.07.07-.13.11-.19.15.09.3.15.48.14.16-.01.3-.09.41-.22.05-.06.1-.13.12-.21.02-.07-.01-.11-.07-.13Z"/>
                  <path class="cls-47" d="m204.5,127.36c-.06-.02-.12-.02-.18-.02-.19,0-.38,0-.58,0-.08,0-.17-.01-.24.03-.03.01-.06.04-.06.08,0,.03.03.06.05.07.04.02.1.03.15.03.05,0,.11,0,.16,0,.11,0,.23,0,.34,0,.09,0,.18,0,.27,0,.05,0,.11-.02.14-.06.04-.05,0-.1-.05-.12Z"/>
                  <path class="cls-47" d="m204.48,128.16s-.07-.04-.11-.06c-.08-.04-.17-.08-.25-.11-.09-.03-.18-.05-.28-.06-.02,0-.02,0-.03-.03,0-.02,0-.05,0-.07,0-.05-.01-.09-.02-.14-.02-.1-.03-.19-.05-.29-.01-.09-.03-.19-.03-.28.01-.05-.04-.08-.08-.1-.05-.02-.1-.02-.15-.01-.04,0-.09.02-.13.05-.04.04-.03.1-.02.15.01.12.03.24.05.36.02.12.04.24.05.36-.11.01-.22.04-.32.09-.08.04-.17.09-.19.19-.02.09.05.18.11.24.08.07.17.11.28.12.13.02.28,0,.4-.07.05-.03.1-.07.11-.13,0-.04,0-.08,0-.12,0-.04,0-.08,0-.12.07.01.14.04.2.07.06.03.11.05.16.09.04.03.07.05.12.06.04,0,.08.01.13,0,.05,0,.18-.05.13-.13-.02-.03-.05-.05-.08-.07Zm-1.06.22c-.06-.01-.1-.07-.11-.13,0-.02,0-.03.02-.04.04-.03.08-.05.13-.06,0,.05,0,.1,0,.16,0,.03,0,.06-.03.07Z"/>
                  <path class="cls-47" d="m205.38,128s.01,0,.02.01c0,0,0,0,0,0,0,0-.01,0-.02-.01Z"/>
                  <path class="cls-47" d="m205.8,128.32c-.14-.1-.27-.2-.41-.31-.12-.09-.26-.18-.38-.28.13-.09.28-.17.42-.24.07-.04.14-.07.21-.11.04-.02.07-.03.11-.05.03,0,.05-.01.08-.03.05-.03.07-.08.03-.12-.04-.04-.09-.05-.14-.06-.14-.02-.27.06-.39.11-.17.08-.33.17-.49.27-.04.02-.08.05-.12.07-.03.02-.07.04-.09.08-.04.07.04.15.09.19.14.12.31.22.46.34.08.06.15.11.23.17.06.05.12.11.2.13.07.02.14.02.21-.01.03-.02.06-.04.06-.08,0-.03-.03-.05-.06-.07Z"/>
                  <path class="cls-47" d="m207.33,127.69s0,0,0,0c0,0,0,0,.01,0,0,0-.01,0-.02,0Z"/>
                  <path class="cls-47" d="m207.6,127.5c-.07-.03-.15-.04-.23-.05-.1-.02-.19-.03-.29-.05-.19-.04-.38-.08-.57-.12-.08-.02-.17-.03-.24,0-.03.01-.07.04-.06.08,0,.03.03.06.06.08.04.02.08.03.13.04.04,0,.09.02.13.03.1.02.19.04.29.06-.14.05-.29.1-.4.21-.11.11-.15.28-.15.43,0,.14.09.25.19.32.12.09.27.15.42.17.08.01.16.02.24.01.06,0,.15-.01.2-.05.08-.06,0-.13-.06-.16-.07-.03-.15-.02-.22,0-.08.02-.17,0-.24-.05-.06-.03-.13-.09-.15-.16-.01-.04,0-.08,0-.12,0-.04.01-.08.02-.13.02-.08.07-.14.14-.19.08-.04.16-.07.24-.1.08-.03.17-.05.26-.06,0,0,0,0,0,0,0,0,.01,0,.02,0,0,0,0,0-.01,0,.09,0,.19.02.28-.02.03-.01.06-.04.06-.08,0-.04-.04-.07-.08-.09Z"/>
                  <path class="cls-47" d="m207.55,128.1s-.05-.05-.07-.09c-.02-.03-.03-.05-.06-.07-.06-.03-.13-.04-.2-.03-.05,0-.11.02-.13.07-.01.05.04.11.07.15.05.06.1.11.17.14.06.04.14.05.21.04.04,0,.11-.02.13-.06.03-.07-.08-.11-.12-.15Z"/>
                  <path class="cls-47" d="m207.97,127.91s-.06-.06-.1-.07c-.06-.02-.12-.02-.18,0-.04,0-.09.03-.11.07-.01.04.02.09.04.13.02.04.06.07.1.08.06.02.12.02.18.01.04,0,.09-.02.11-.06.01-.03,0-.05-.02-.08-.01-.02-.02-.05-.03-.07Z"/>
                  <path class="cls-47" d="m209.62,128.04s-.1-.05-.16-.06c-.11-.03-.22-.06-.33-.1-.09-.03-.19-.06-.28-.09-.08-.03-.17-.08-.26-.09-.06,0-.14,0-.19.03-.04.03-.04.08,0,.11.04.03.08.04.12.06.09.03.17.06.26.09.19.06.37.11.56.17.07.02.16.03.23,0,.06-.02.09-.08.04-.13Z"/>
                  <path class="cls-47" d="m209.51,128.46s-.11-.04-.16-.06c-.19-.05-.38-.09-.56-.13-.08-.02-.17-.05-.25-.06-.06,0-.16,0-.19.06-.03.06.06.1.1.12.09.03.18.05.27.07.19.04.38.08.56.14.08.03.22.04.28-.04.03-.04,0-.08-.04-.1Z"/>
                  <path class="cls-47" d="m209.26,127.54c-.06-.03-.14-.03-.21-.02-.04,0-.07.02-.09.05-.02.03-.02.06-.03.1-.05.18-.09.37-.13.56-.02.09-.03.19-.05.28,0,.05-.01.1-.02.15,0,.03.03.06.05.07.07.04.16.05.24.03.03,0,.08-.03.09-.06.01-.03,0-.07.01-.11.02-.2.06-.39.11-.59.02-.09.04-.19.07-.28,0-.02.01-.05.02-.07,0-.02.01-.03,0-.05-.01-.03-.04-.06-.07-.07Z"/>
                  <path class="cls-47" d="m209.15,129.04c-.06-.02-.13-.02-.19-.01-.07.02-.14.05-.21.08-.07.02-.14.02-.2-.01-.07-.03-.11-.09-.14-.16-.01-.04-.02-.08-.02-.11,0-.02,0-.04,0-.05,0-.02.02-.03.03-.05.02-.03-.01-.07-.04-.09-.03-.02-.06-.03-.1-.04-.07-.01-.14-.01-.2.02-.14.08-.08.29-.03.41.07.15.23.23.38.27.14.04.3.05.44.02.07-.01.14-.04.21-.06.05-.02.13-.04.16-.09.03-.06-.05-.1-.1-.11Z"/>
                  <path class="cls-47" d="m211.24,128.93c-.18-.09-.36-.2-.54-.3-.08-.05-.16-.09-.24-.14-.07-.05-.13-.11-.22-.12-.06,0-.12,0-.17.02-.04.02-.08.06-.05.1.02.03.06.05.09.07.04.02.08.05.12.08.08.05.16.1.25.15.17.1.34.19.51.28.07.04.17.04.25.01.03-.01.07-.03.07-.07,0-.04-.04-.06-.07-.08Z"/>
                  <path class="cls-47" d="m210.89,129.36c-.15-.1-.3-.2-.45-.29-.08-.05-.16-.1-.25-.15-.07-.05-.13-.1-.22-.12-.07-.01-.16,0-.22.04-.07.06.02.12.07.15.15.11.32.2.47.29.08.05.16.1.24.16.07.05.13.1.22.11.07.01.15.01.21-.03.08-.06-.02-.12-.07-.15Z"/>
                  <path class="cls-47" d="m210.76,128.37c-.09-.03-.27-.05-.31.07-.06.18-.12.37-.18.55-.03.09-.06.18-.1.27-.02.04-.04.09-.06.13,0,.02-.02.04-.03.06,0,.01,0,.03-.02.02-.13-.08-.29-.12-.44-.11-.13,0-.28.06-.31.2-.03.17.12.29.26.35.16.06.34.05.5,0,.04.08.07.16.1.24,0,.02.01.04.02.06,0,.02,0,.04.01.06.01.03.04.04.07.06.07.03.16.04.24.01.03,0,.06-.03.07-.05.01-.03,0-.08-.01-.12-.03-.08-.06-.17-.1-.25-.02-.04-.04-.08-.07-.12-.01-.02-.02-.03-.04-.05,0-.01-.02-.02-.03-.04,0-.01.02-.03.03-.04.01-.02.03-.03.04-.05.02-.03.05-.07.07-.11.04-.07.07-.15.1-.23.07-.17.12-.35.17-.52.03-.09.06-.17.09-.25.02-.07-.02-.11-.08-.13Zm-.98,1.38s-.06-.05-.07-.09c0-.02,0-.04,0-.06,0,0,0-.03.02-.04.02,0,.06.02.08.04.04.02.07.05.11.08-.04.03-.08.05-.13.07Z"/>
                  <path class="cls-47" d="m211.92,129.54c-.08,0-.16.03-.23.07-.16.09-.31.19-.45.31-.13.11-.26.25-.34.4-.08.15-.09.33,0,.47.08.12.22.2.36.22.12.01.23-.02.33-.07.07-.03.22-.1.16-.2-.05-.08-.18-.1-.26-.07-.05.02-.09.05-.14.07-.01,0-.03.02-.05.01-.02-.01-.04-.03-.05-.05-.11-.14,0-.32.09-.44.11-.14.25-.27.4-.37.07-.05.15-.1.24-.13.06-.02.14-.06.11-.14-.02-.07-.11-.1-.18-.1Z"/>
                  <path class="cls-47" d="m213.03,131.05c-.15-.13-.31-.25-.47-.37-.03-.05-.1-.06-.16-.07-.05,0-.1,0-.14.01-.03.01-.08.04-.08.08,0,.05.07.09.11.11.1.08.21.15.31.24.05.04.09.08.14.12.04.03.08.06.13.08.07.02.18.02.24-.03.07-.06-.04-.13-.08-.16Z"/>
                  <path class="cls-47" d="m213.12,130.66c-.07-.03-.16-.04-.23-.01-.04.02-.08.04-.11.07-.04.02-.08.05-.11.07-.16.1-.32.19-.48.26-.18.08-.36.16-.54.23-.09.04-.18.07-.27.11-.03.01-.06.03-.06.07,0,.04.04.06.06.08.02.01.04.02.07.03.08.03.16.02.24,0,.09-.03.17-.07.26-.11.18-.07.36-.15.54-.23.17-.08.33-.16.49-.26.04-.03.08-.05.13-.08.04-.02.07-.04.11-.07.08-.06-.02-.13-.07-.15Z"/>
                  <path class="cls-47" d="m213.08,131.88c-.05-.08-.11-.16-.16-.24-.03-.04-.06-.08-.08-.12-.02-.03-.04-.06-.07-.08-.06-.03-.13-.04-.2-.03-.05,0-.13.02-.13.08,0,.04.03.06.05.09.03.04.05.08.08.12.05.08.11.16.16.24.03.04.05.08.08.12.02.03.05.04.09.06.08.03.19.03.26-.02.04-.03.04-.06.01-.1-.02-.04-.05-.08-.07-.12Z"/>
                  <path class="cls-47" d="m212.61,132.38s-.1-.02-.16-.03c-.21-.03-.3-.27-.21-.45.03-.02.06-.05.04-.09-.02-.03-.05-.05-.08-.06-.07-.03-.15-.03-.22-.01-.14.04-.17.23-.15.36.03.14.12.26.24.33.13.08.28.11.42.12.04,0,.09,0,.13-.01.03-.01.08-.04.07-.08,0-.04-.05-.06-.08-.08Z"/>
                  <path class="cls-47" d="m214.09,132.34c-.06-.02-.14-.03-.21-.01-.08.02-.14.07-.21.11-.08.05-.17.1-.25.15-.17.1-.33.2-.5.31-.08.05-.16.1-.24.15-.03.02-.06.05-.04.08.01.03.04.05.07.06.06.03.14.04.21.02.07-.02.12-.06.18-.09.13-.08.26-.16.4-.24.14-.08.27-.17.41-.25.05-.03.1-.06.16-.09.04-.02.08-.04.1-.07.04-.05-.03-.1-.08-.12Z"/>
                  <path class="cls-47" d="m212.4,133.22s0-.1-.03-.13c-.03-.04-.09-.06-.13-.06-.05,0-.1,0-.15,0-.04.01-.1.04-.08.09.02.16.06.41.25.45.05.01.11.02.16,0,.04,0,.1-.03.1-.08,0-.04-.05-.08-.07-.12-.02-.05-.03-.1-.04-.16Z"/>
                </g>
              </g>
              <g>
                <path class="cls-47" d="m236.73,171.12c.02-.1.02-.21.01-.31,0-.12-.02-.25-.06-.37.09-.05.16-.13.23-.21.05-.06.1-.13.14-.19.08-.14.14-.28.18-.43.08-.31.09-.65.05-.97-.04-.33-.13-.67-.26-.98-.09-.2-.2-.39-.33-.56-.07-.09-.14-.17-.22-.24-.02-.02-.04-.04-.06-.06,0,0-.02-.02-.03-.03,0,0-.02-.01-.01-.02.02-.05.03-.09.04-.14.04-.19.04-.39.02-.59-.02-.2-.08-.4-.15-.59-.07-.2-.17-.4-.29-.58-.54-.82-1.42-1.45-2.38-1.65-.1-.02-.2-.03-.3-.03-.05,0-.11,0-.16,0-.03,0-.05,0-.08,0,0,0,0,0-.01-.01,0-.01-.01-.03-.02-.04-.09-.2-.22-.37-.37-.52-.15-.15-.31-.29-.49-.4-.17-.11-.36-.21-.55-.28-.37-.13-.77-.18-1.16-.17-.19,0-.39.02-.58.06-.21.04-.42.09-.63.17-.2.07-.4.16-.59.27-.17.1-.33.23-.46.37-.2.21-.36.46-.47.73-.09-.04-.19-.09-.29-.12-.1-.03-.19-.05-.3-.05-.2-.01-.4.03-.59.11-.19.08-.37.19-.53.32-.13.11-.25.22-.36.35-.2.23-.36.5-.47.79-.11.31-.15.63-.14.96,0,.17.02.35.06.52.04.18.12.35.2.52-.16.13-.28.31-.36.5-.04.09-.08.19-.1.29-.02.1-.04.2-.05.3,0,.1,0,.2,0,.31.01.1.03.2.06.3.05.2.12.4.21.59.09.2.19.39.31.58.11.19.25.36.39.53.14.16.29.32.46.47.16.14.33.26.5.37.08.05.16.1.25.15.02,0,.04.02.06.03.01,0,.03.01.05.01.03,0,.05-.01.07-.03.02-.02.02-.05.02-.07-.01-.03-.04-.06-.07-.07-.04-.02-.07-.04-.11-.05-.04-.02-.08-.05-.12-.07-.18-.11-.36-.24-.52-.38-.17-.14-.32-.29-.46-.45-.14-.17-.27-.35-.38-.54-.11-.18-.21-.38-.29-.57-.08-.2-.14-.4-.17-.61-.03-.2-.02-.42.03-.61.07-.25.2-.5.39-.68.06.09.12.18.2.26.07.08.15.14.24.19.09.04.18.09.28.09.09,0,.18-.02.25-.08.14-.13.07-.35-.01-.49-.05-.09-.12-.17-.21-.24-.08-.06-.16-.11-.25-.14-.17-.05-.36-.04-.51.04-.04-.09-.08-.18-.11-.28-.02-.08-.04-.16-.06-.23-.03-.16-.03-.32-.03-.48.02-.32.11-.64.25-.93.14-.29.33-.55.57-.77.16-.14.33-.27.52-.37.17-.08.36-.14.55-.15.1,0,.19,0,.28.02.05.01.1.03.15.05.02,0,.05.01.06.03,0,0-.01.06-.01.06-.04.19-.02.38.08.54.09.15.25.28.42.3.09.01.19,0,.25-.07.06-.07.05-.17.03-.26-.05-.2-.19-.37-.33-.51-.04-.03-.08-.07-.12-.1-.01,0,0-.01,0-.02,0-.01.01-.02.02-.03.01-.02.02-.05.04-.07.05-.09.11-.18.17-.27.25-.34.59-.6.97-.77.38-.17.8-.27,1.22-.31.38-.03.77,0,1.14.09.39.11.75.32,1.03.6.14.14.27.3.33.49-.1.02-.2.05-.29.1-.08.04-.15.1-.19.18-.08.17.02.37.16.47.07.05.15.08.23.07.08,0,.16-.04.21-.1.12-.13.14-.31.12-.48.2-.03.41-.03.61.02.95.22,1.88.88,2.28,1.79.16.36.25.77.17,1.15-.01.06-.03.11-.05.17-.15-.1-.33-.19-.52-.18-.08,0-.17.03-.22.1-.05.07-.04.16-.01.24.06.16.21.3.38.34.09.02.18.02.27,0,.05-.01.09-.03.14-.06.04-.03.08-.07.11-.11.16.15.31.31.42.5.05.09.1.19.14.29.04.1.08.2.1.3.03.1.05.21.06.31.01.1.02.21.02.32.01.2,0,.41-.02.61-.02.17-.06.34-.14.49-.08.16-.18.31-.32.42-.06-.09-.13-.18-.21-.25-.06-.06-.14-.12-.22-.15-.08-.03-.17-.05-.24,0-.07.06-.07.17-.06.25.03.15.12.28.24.37.06.05.13.09.21.11.07.02.15.03.23.01.03.16.03.33,0,.49-.03.17-.1.32-.17.47-.09.18-.21.36-.35.51-.14.16-.3.29-.47.41-.18.13-.37.24-.56.34-.18.09-.38.16-.58.19-.19.03-.38.03-.57-.01-.1-.02-.2-.05-.3-.09-.02,0-.04-.02-.07-.03,0,0-.02,0-.03-.01-.01,0-.01,0-.02-.02,0-.05,0-.1-.02-.15-.04-.19-.15-.38-.32-.5-.07-.05-.17-.1-.25-.08-.04,0-.08.04-.09.08-.01.04,0,.09,0,.13.03.11.1.21.17.3.07.1.16.19.25.27-.03.1-.08.2-.14.28-.06.09-.13.16-.2.23-.15.14-.33.23-.52.3-.17.06-.34.1-.52.11-.09,0-.18,0-.26,0-.1-.01-.19-.04-.28-.07-.32-.1-.62-.27-.89-.48.1-.15.15-.34.13-.52-.02-.17-.1-.32-.21-.45-.11-.12-.27-.21-.44-.19-.08,0-.16.05-.19.13-.03.08-.01.18,0,.26.06.26.2.49.38.68-.08.07-.17.12-.27.16-.09.04-.19.06-.29.07-.1,0-.19,0-.29-.02-.08-.02-.15-.05-.22-.08-.3-.14-.56-.39-.74-.67-.09-.14-.16-.28-.22-.43-.06-.17-.11-.34-.14-.51-.03-.18-.03-.35.02-.53.03-.1.06-.19.11-.28.01-.02.02-.04.04-.06.01-.02.03-.04.04-.06.02-.03,0-.08-.01-.11-.02-.04-.04-.07-.07-.09-.03-.02-.08-.05-.11-.02-.04.03-.06.08-.08.12-.02.05-.05.09-.06.14-.07.17-.1.35-.1.53,0,.18.04.36.08.53.03.1.06.21.1.31.03.09.07.19.12.28.12.23.27.44.45.62.18.19.39.36.63.47.22.11.47.16.72.12.14-.02.28-.08.4-.16.02-.01.04-.03.06-.05.02-.02.04-.04.06-.06,0,0,.03.02.04.03.02.02.04.04.06.05.08.07.17.13.26.19.17.11.35.21.55.28.18.07.37.12.56.14.34.03.7-.04,1-.21.15-.08.29-.19.4-.32.12-.14.23-.31.27-.49.17.1.36.16.55.2.19.04.38.04.57.01.2-.03.39-.09.58-.17.18-.08.36-.17.52-.28.28-.18.53-.4.73-.67.2-.28.37-.6.42-.95Zm-10.82-4.28c.08,0,.17.02.24.05.04.03.09.06.12.1.03.03.05.09.06.13.02.1-.09.17-.17.18-.09.01-.18-.03-.26-.07-.09-.05-.16-.14-.22-.22,0,0-.06-.08-.05-.08.09-.05.18-.08.28-.08Zm2.21-3.01s.08.1.11.15c.02.05.04.11,0,.16-.03.05-.1.06-.16.05-.06,0-.12-.03-.16-.07-.05-.06-.05-.15-.04-.22,0-.08.02-.16.05-.24.07.05.14.1.2.16Zm4.7-.11c-.06.05-.13.08-.2.05.01-.15.19-.22.31-.26-.01.08-.05.15-.1.21Zm3,3.12s-.09,0-.13,0c-.02,0-.04-.01-.06-.02-.01,0-.03-.02-.04-.03,0-.1.13-.11.2-.11.09,0,.18.03.26.08-.06.07-.15.09-.23.1Zm.41,3.42c-.06-.02-.12-.04-.16-.09-.03-.04-.04-.12,0-.16,0,0,.01,0,.02-.01,0,0,.02,0,.02,0,.06,0,.12.02.16.06.06.05.11.11.15.19-.06.02-.13.03-.19.02Zm-3.15,2.27s-.06-.07-.09-.1c-.03-.04-.05-.07-.07-.11,0-.01,0-.02,0-.03,0,0,0,0,0,0,0,0,.02,0,.03-.01,0,0,0,0,0,0,.03,0,.06.01.08.03.03.02.06.05.08.08.04.07.05.14.05.22,0,0,0,0,0,0,0,0,0,0,0,0-.03-.03-.06-.06-.08-.09Zm-3.07.34c-.06-.08-.11-.16-.14-.25-.02-.04-.03-.09-.04-.14,0-.04-.01-.09,0-.13,0-.03.02-.05.05-.06,0,0,0,0-.01,0,.07-.04.16-.04.23,0,.09.04.14.12.15.22.02.16-.04.33-.13.46-.03-.03-.06-.07-.09-.1Z"/>
                <path class="cls-47" d="m225.55,166.97s0,0,0,0c0,0,0,0,0,0Z"/>
                <path class="cls-47" d="m234.34,170.18c.1-.24.16-.49.2-.74.02-.13.03-.25.03-.38,0-.13,0-.26-.02-.39-.03-.26-.08-.52-.15-.76-.08-.25-.18-.5-.3-.73-.12-.24-.27-.46-.42-.67-.08-.11-.16-.21-.25-.31-.09-.1-.18-.2-.27-.3-.18-.19-.38-.37-.59-.53-.2-.16-.42-.3-.65-.42-.23-.12-.46-.22-.7-.29-.47-.15-.98-.22-1.49-.17-.13.01-.25.03-.38.06-.13.03-.25.06-.38.1-.25.08-.5.19-.73.34-.11.07-.23.15-.33.24-.11.09-.21.18-.3.28-.19.19-.36.4-.5.62-.14.22-.25.45-.34.7-.08.24-.13.49-.16.74-.01.12-.02.25-.02.37,0,.12,0,.25.02.37.01.12.03.24.06.36.03.12.06.24.1.36.04.12.09.24.14.35.05.12.11.23.18.34.07.11.15.21.22.32.03.04.06.08.09.12,0,.01.02.03.03.04.04.05.08.09.11.13,0,0,0,0,0,0,.02.02.04.04.06.05.02,0,.04.01.05,0,.02-.01.02-.04.01-.05,0-.03-.02-.05-.04-.07-.03-.03-.05-.06-.08-.09-.05-.06-.09-.11-.14-.17-.05-.06-.09-.12-.13-.18-.04-.06-.08-.12-.12-.18-.05-.08-.09-.16-.13-.24-.05-.1-.09-.2-.13-.3-.03-.09-.06-.19-.09-.29-.03-.13-.05-.26-.07-.39-.02-.16-.03-.33-.02-.5,0-.21.04-.42.08-.62.03-.12.06-.23.1-.35.04-.11.08-.22.14-.32.07-.14.15-.28.24-.42.09-.14.2-.27.31-.39.12-.13.24-.25.37-.36.13-.11.27-.21.42-.3.13-.08.26-.15.4-.2.14-.06.27-.1.42-.14.27-.07.55-.11.83-.12.24,0,.48.02.71.06.2.04.41.09.6.16.17.06.33.13.48.2.13.06.25.13.37.21.13.08.25.17.36.26.13.1.25.21.37.32.12.12.24.24.35.37.11.12.21.25.31.39.08.11.16.23.23.35.07.12.13.24.19.36.05.11.1.23.15.35.05.13.09.27.12.41.04.15.06.3.08.46.02.16.02.32.02.49-.01.2-.04.39-.09.58-.03.1-.06.21-.09.31-.04.1-.08.2-.13.3-.06.12-.13.23-.21.34-.07.1-.16.2-.24.29-.2.21-.42.39-.67.54-.09.05-.19.1-.29.14-.09.04-.19.07-.28.09-.09.02-.18.04-.27.05-.08,0-.17.01-.25.01-.18,0-.37-.02-.54-.05-.16-.03-.32-.08-.47-.13-.13-.05-.25-.1-.37-.16-.12-.06-.23-.13-.34-.19-.05-.03-.09-.06-.14-.09-.03-.02-.07-.05-.1-.07-.01,0-.03-.02-.04-.03-.09-.07-.18-.14-.26-.21-.08-.08-.16-.15-.24-.23-.04-.04-.08-.09-.12-.13-.05-.05-.09-.1-.13-.15-.06-.07-.12-.15-.18-.22-.05-.07-.1-.14-.14-.21-.04-.07-.08-.14-.11-.22-.04-.08-.07-.16-.1-.24-.03-.08-.05-.16-.07-.24-.02-.07-.03-.13-.03-.2,0-.08-.01-.16,0-.24,0-.13.02-.25.05-.37.01-.06.03-.11.05-.16.02-.06.04-.11.07-.17.03-.07.07-.13.11-.19.04-.06.08-.11.13-.16.05-.06.11-.11.17-.16.06-.05.12-.09.18-.12.12-.07.25-.12.39-.16.08-.02.15-.03.23-.04.08,0,.15-.01.23-.02.14,0,.27,0,.41.03.08.02.17.04.25.07.07.02.14.05.2.09.05.03.11.06.16.09.05.04.1.07.15.11.05.04.09.08.14.12.05.05.09.1.14.15.04.05.08.1.11.15.04.05.07.11.11.16.04.06.07.13.1.19.03.06.05.12.08.18.02.06.04.13.06.2.01.06.03.12.03.18,0,.06,0,.12,0,.18,0,.06-.01.12-.02.18-.02.07-.04.14-.07.2-.02.04-.04.08-.07.12-.02.03-.05.06-.08.09-.03.03-.07.07-.11.1-.03.02-.06.05-.1.07-.07.04-.15.07-.23.09-.09.02-.17.03-.26.03-.09,0-.19,0-.28-.03-.07-.01-.14-.03-.21-.06-.05-.02-.09-.04-.14-.06-.04-.02-.08-.05-.12-.07-.04-.02-.07-.05-.11-.08-.04-.03-.07-.06-.1-.09-.03-.03-.05-.05-.07-.08-.02-.03-.05-.06-.07-.08-.02-.02-.03-.05-.05-.07-.01-.02-.03-.05-.04-.07-.01-.02-.02-.05-.03-.07,0-.03-.02-.05-.02-.08,0-.02,0-.05-.01-.07,0-.03,0-.07,0-.1,0-.04,0-.08.02-.12.01-.05.03-.09.05-.14.01-.02.02-.04.04-.06.01-.02.03-.04.04-.06.02-.02.03-.03.05-.05.02-.01.03-.02.05-.03.02-.01.04-.02.06-.03.02,0,.04-.02.07-.02.03,0,.07-.01.1-.01.02,0,.05,0,.07,0,.02,0,.03,0,.04.01.02,0,.03.01.05.02.01,0,.02.01.04.02.01,0,.02.02.04.03.01,0,.02.02.03.03,0,0,.02.02.02.02.02.02.03.04.05.06,0,0,0,0,0,.01,0,0,0,0,0,0,0,0,0,0,0,0,0,0,0,0,0,0,0,0,0,0,0,0,0,.03.02.05.04.07.02.02.04.04.06.04.02,0,.04,0,.05-.01.01-.02,0-.04,0-.06,0-.02-.02-.04-.03-.06-.01-.02-.03-.04-.04-.06-.02-.03-.04-.06-.07-.08-.03-.03-.06-.07-.09-.09-.02-.02-.04-.03-.06-.05-.02-.01-.04-.03-.06-.04-.04-.02-.08-.04-.13-.05-.05-.01-.09-.02-.14-.02-.09,0-.19.03-.27.08-.04.03-.08.06-.11.09-.02.02-.03.04-.05.06-.01.02-.03.04-.04.07-.02.04-.04.09-.05.13-.01.05-.02.09-.03.14,0,.09,0,.18.02.27.03.12.08.24.15.34.07.11.15.21.25.3.09.09.19.17.31.23.11.06.22.12.34.15.12.03.24.05.36.06.12,0,.25,0,.37-.03.12-.03.24-.08.34-.15.11-.08.2-.17.26-.29.06-.11.11-.23.13-.35.02-.12.02-.25,0-.37,0-.07-.02-.13-.04-.2-.01-.06-.03-.12-.05-.18-.04-.12-.09-.24-.15-.35-.06-.12-.13-.23-.21-.33-.08-.1-.16-.2-.25-.3-.18-.18-.38-.34-.62-.44-.11-.05-.23-.09-.35-.12-.12-.03-.25-.05-.37-.05-.13,0-.26,0-.38.01-.13.01-.25.04-.37.08-.12.04-.24.1-.34.17-.06.04-.11.08-.16.12-.05.04-.09.09-.13.13-.09.09-.16.2-.22.31-.03.06-.06.11-.08.17-.02.06-.04.11-.06.17-.03.12-.05.24-.06.36,0,.06,0,.13,0,.2,0,.06,0,.12.01.18.01.13.04.25.08.37.04.12.08.24.14.36.05.12.11.23.18.34.07.11.14.22.22.32.04.05.09.11.13.16,0,.01.02.02.03.03.04.04.08.08.12.13.03.03.06.07.1.1.02.02.05.04.07.07.05.04.09.08.14.13.02.02.05.05.08.07.08.06.16.13.24.19,0,0,.02.02.03.02,0,0,.02.01.03.02.05.03.1.07.15.1.04.03.08.05.12.08.04.03.08.05.12.08.05.03.11.06.16.09.11.06.23.12.34.17.11.05.23.09.35.12.24.07.49.11.75.12.12,0,.25,0,.37-.01.13-.01.25-.04.38-.08.13-.04.26-.09.38-.15.12-.06.23-.13.34-.21.22-.16.42-.35.59-.56.17-.21.31-.44.41-.69Z"/>
                <path class="cls-47" d="m232.78,166.31s-.04-.03-.06-.03c-.01,0-.02,0-.03-.01,0,0-.02-.01-.03-.02-.02-.01-.04-.01-.06,0-.02,0-.04.01-.07.02-.05.02-.08.06-.12.1-.03.04-.06.08-.05.13,0,.05.04.1.07.13.04.03.09.05.14.05.05,0,.09-.01.14-.04.04-.02.09-.06.12-.09.07-.08.01-.19-.06-.24Z"/>
                <path class="cls-47" d="m233.58,167.43s-.04-.09-.08-.12c-.03-.03-.08-.05-.13-.06-.05,0-.1,0-.14.01-.05.01-.09.03-.12.08,0,.01-.02.02-.02.03,0,0-.01.02-.02.03,0,.02-.01.04-.01.06,0,.05.04.1.07.13.04.04.09.06.14.07.1,0,.2-.04.27-.11.03-.03.05-.07.03-.11Z"/>
                <path class="cls-47" d="m233.52,168.05s-.05-.09-.09-.11c-.02,0-.04,0-.06.01-.02,0-.05.02-.07.02-.2.05-.4.08-.6.02-.1-.03-.2-.08-.29-.13-.09-.05-.19-.11-.27-.18-.16-.14-.29-.33-.33-.54-.01-.05-.02-.1-.02-.15,0-.05,0-.1,0-.16.02-.1.06-.2.11-.28.03-.05.06-.09.09-.13.02-.02.04-.04.06-.06.02-.01.03-.02.04-.05,0-.05-.02-.09-.05-.12-.02-.02-.03-.03-.06-.04-.02,0-.04,0-.05.02-.09.06-.15.16-.2.25-.05.09-.08.18-.1.28-.03.2,0,.41.09.6.1.23.26.43.45.58.08.07.18.12.27.18.09.05.19.1.28.13.2.06.41.05.61,0,.05-.01.1-.02.15-.05.02,0,.04-.02.04-.04,0-.02,0-.04,0-.06Z"/>
                <g>
                  <path class="cls-47" d="m229.91,163.5s-.05-.07-.09-.08c-.04-.02-.08-.01-.13-.02-.05,0-.11,0-.16,0-.11,0-.22,0-.33,0-.06,0-.11,0-.17,0-.02,0-.05,0-.05.03,0,.02,0,.04.02.06.02.03.05.06.09.08.03.01.07,0,.1,0,.08,0,.17,0,.25,0,.09,0,.17,0,.26,0,.04,0,.08,0,.12,0,.02,0,.05,0,.07,0,.04,0,.04-.05.02-.08Z"/>
                  <path class="cls-47" d="m229.13,164.24s0-.04,0-.06c0-.04.02-.08.04-.12.04-.09.09-.18.14-.27.06-.09.11-.18.18-.27.03-.04.07-.09.1-.13.01-.01.03-.03.04-.05,0-.02,0-.04,0-.06-.02-.04-.05-.07-.09-.09-.02,0-.04-.02-.06,0-.02,0-.03.03-.04.04-.14.16-.26.35-.36.53-.05.08-.09.17-.11.27-.02.07-.03.16.03.22.02.02.04.04.07.05.02.01.06.02.07-.02,0-.02,0-.03,0-.05Z"/>
                  <path class="cls-47" d="m230.03,163.86c-.02-.05-.07-.1-.13-.11-.09,0-.19-.01-.28-.01-.04,0-.09,0-.14,0-.04.01-.03.06,0,.09.02.03.04.05.07.07.03.02.06.02.1.01.08,0,.16,0,.24,0,.02,0,.04,0,.06,0,.02,0,.04,0,.05,0,.03,0,.04-.03.03-.06Z"/>
                  <path class="cls-47" d="m230.07,164.23s-.01-.04-.02-.06c-.02-.03-.06-.07-.11-.07-.02,0-.05,0-.07.01-.02,0-.05,0-.07.01-.04,0-.09,0-.14,0-.03,0-.03-.02-.04-.04-.01-.02-.02-.03-.04-.04-.02-.02-.05-.04-.08-.03-.03,0-.04.04-.03.06,0,.03.03.05.05.08.06.07.14.12.23.14.05.01.09.02.14.01.05,0,.1-.01.15-.02.02,0,.04-.02.04-.04Z"/>
                  <path class="cls-47" d="m230.48,164.2s-.07-.05-.1-.06c0,0,0-.02,0-.03-.01-.05-.01-.1,0-.14,0-.05,0-.1.02-.15,0-.02.01-.04,0-.06-.01-.02-.03-.03-.04-.05-.03-.02-.07-.04-.11-.04-.03,0-.04.02-.04.04,0,.02-.01.05-.01.07,0,.05-.01.1-.01.15,0,.05,0,.1.02.15.02.05.05.09.1.12.04.03.08.05.12.07.03.01.07.03.09,0,.02-.02,0-.06-.02-.07Z"/>
                  <path class="cls-47" d="m230.96,164.2c0-.11-.01-.22-.02-.33,0-.01,0-.03,0-.04,0,0,0-.02,0-.03,0-.02-.02-.04-.04-.05-.03-.03-.07-.05-.12-.05-.02,0-.04,0-.05.03,0,.02,0,.04,0,.07,0,.05,0,.11,0,.16,0,.05,0,.11,0,.16,0,.03,0,.05,0,.08,0,.02.02.04.03.05.03.03.08.05.12.05.02,0,.04,0,.05-.03,0-.02,0-.04,0-.06Z"/>
                  <path class="cls-47" d="m231.78,164.39c-.01-.05-.03-.1-.04-.15-.01-.05-.03-.1-.04-.15-.03-.09-.08-.19-.17-.24-.02-.01-.04-.02-.06-.01-.02,0-.04.02-.06.03-.05.03-.1.05-.14.08-.05.03-.09.06-.13.1-.02.02-.04.04-.05.06-.01.02,0,.04,0,.06.01.05.05.09.09.12.01.01.03.02.05.02.01,0,.02-.01.02-.02,0,0,.01-.02.02-.03.08-.08.18-.13.28-.19.02.05.03.1.04.16.01.05.02.09.04.14.02.04.05.08.09.1.01,0,.04.01.05,0,.01-.02,0-.04,0-.06Z"/>
                  <path class="cls-47" d="m232.78,164.91s-.04-.06-.06-.09c-.02-.01-.04-.03-.06-.03-.02,0-.04.01-.05.02-.05.01-.1.02-.14.01-.01,0-.03,0-.03-.01,0,0,0-.02-.01-.03,0-.02-.01-.05-.02-.07-.02-.09-.08-.18-.17-.22.04-.04.09-.07.13-.11.04-.03.08-.06.13-.09.06-.04,0-.12-.03-.15-.02-.02-.05-.04-.08-.04-.02,0-.04.03-.06.04-.02.02-.04.03-.06.05-.09.07-.17.13-.25.21-.04.04-.08.08-.12.12-.03.03-.06.07-.04.11.01.04.04.07.07.09.01.01.03.02.05.02.02,0,.04,0,.05,0,.04,0,.08-.03.12-.04.04-.01.08-.02.12-.03.02.1.05.18.13.25.07.06.15.09.25.09.04,0,.09,0,.13-.03.04-.02.04-.05.03-.08Z"/>
                  <path class="cls-47" d="m233.77,165.4s-.04-.06-.06-.08c-.07-.08-.15-.16-.22-.24-.03-.03-.06-.07-.1-.09-.02,0-.04-.01-.06,0-.01.01-.01.03,0,.05,0,.03.03.05.04.07.02.02.04.05.06.07.04.05.09.1.13.14.03.04.06.08.1.11.02.02.05.04.08.04.03,0,.04-.04.03-.07Z"/>
                  <path class="cls-47" d="m233.44,165.69s0-.05-.02-.07c-.01-.05-.03-.1-.05-.15-.02-.05-.05-.09-.08-.14,0-.01,0-.01,0-.02,0-.01.02-.02.03-.03.02-.02.03-.04.05-.06.03-.04.07-.09.1-.13.03-.04.07-.08.11-.12.03-.01.02-.05,0-.07-.01-.03-.03-.05-.05-.07-.02-.02-.04-.03-.07-.03-.03,0-.05.03-.07.05-.04.05-.09.1-.13.16-.04.05-.08.11-.13.16-.05-.04-.1-.08-.16-.1-.05-.02-.1-.04-.15,0-.05.03-.06.09-.06.14,0,.06.02.11.06.16.04.06.11.12.18.14.03,0,.07.01.1,0,.02-.01.04-.03.05-.04.02-.01.03-.03.05-.04.02.03.04.07.05.11.01.03.02.07.03.1,0,.03,0,.05.02.07.01.02.03.04.05.05.02.02.09.05.1,0,0-.02,0-.04,0-.06Zm-.49-.36s-.01-.07,0-.1c0,0,.01,0,.02,0,.03,0,.05.02.07.03-.02.02-.04.04-.06.06-.01.01-.03.03-.04.01Z"/>
                  <path class="cls-47" d="m233.85,166.01s0,0,0,.01c0,0,0,0,0,0,0,0,0,0,0-.01Z"/>
                  <path class="cls-47" d="m233.88,166.3c0-.1-.02-.19-.03-.29,0-.09-.03-.18-.03-.26.09.02.17.05.26.08.04.01.08.03.12.05.02,0,.04.02.06.03.01,0,.03.02.04.02.03,0,.06,0,.06-.04,0-.03-.01-.06-.03-.08-.05-.06-.13-.09-.2-.12-.1-.04-.2-.07-.3-.1-.03,0-.05-.02-.08-.02-.02,0-.04-.01-.07,0-.05.01-.05.07-.04.11,0,.11.02.21.03.32,0,.05.01.11.01.16,0,.04,0,.09.02.13.02.03.05.07.08.08.02,0,.04,0,.06,0,.01-.01,0-.03,0-.05Z"/>
                  <polygon class="cls-47" points="234.72 166.7 234.72 166.7 234.73 166.71 234.72 166.7"/>
                  <path class="cls-47" d="m234.9,166.74s-.04-.08-.07-.11c-.03-.05-.06-.09-.09-.14-.06-.09-.11-.19-.17-.28-.02-.04-.05-.08-.09-.1-.02,0-.04-.01-.06,0-.01.01-.01.04,0,.05,0,.03.02.05.03.07.01.02.03.04.04.07.03.05.06.1.09.14-.07-.04-.15-.08-.24-.09-.09,0-.17.04-.24.1-.06.05-.07.13-.06.2,0,.09.04.17.09.24.03.04.05.07.09.1.03.02.06.06.1.06.05.01.06-.05.04-.08-.02-.04-.05-.07-.08-.09-.04-.03-.06-.07-.07-.12,0-.04-.01-.09,0-.13.01-.02.03-.03.05-.05.02-.01.04-.03.06-.04.04-.02.09-.03.13-.01.05.01.09.04.13.06.04.03.09.05.12.09,0,0,0,0,0,0,0,0,0,0,0,0,0,0,0,0,0,0,.04.04.07.09.12.11.02,0,.04,0,.06,0,.02-.02.01-.04,0-.06Z"/>
                  <path class="cls-47" d="m234.64,166.95s0-.04.01-.06c0-.02.01-.03,0-.05,0-.04-.03-.07-.06-.09-.02-.02-.05-.04-.08-.03-.03.01-.03.06-.03.09,0,.04,0,.08,0,.12,0,.04.03.08.06.1.02.02.05.04.07.03.04-.01.02-.08.02-.11Z"/>
                  <path class="cls-47" d="m234.87,167.05s0-.05,0-.07c-.01-.03-.04-.06-.06-.08-.02-.01-.05-.03-.07-.02-.02.01-.03.04-.04.07,0,.02,0,.05,0,.07.01.03.03.06.06.08.02.01.04.03.07.02.02,0,.02-.02.02-.04,0-.01.01-.03.02-.04Z"/>
                  <path class="cls-47" d="m235.45,167.78s-.02-.06-.03-.09c-.03-.06-.06-.11-.08-.17-.02-.05-.05-.1-.07-.15-.02-.05-.03-.1-.06-.14-.02-.03-.05-.06-.08-.07-.03,0-.05.01-.05.04,0,.03.01.05.02.07.02.05.04.1.06.14.05.1.1.2.14.3.02.04.05.08.09.1.03.01.07,0,.07-.03Z"/>
                  <path class="cls-47" d="m235.23,167.9s-.02-.06-.04-.09c-.05-.1-.11-.19-.16-.29-.02-.04-.04-.09-.07-.13-.02-.03-.06-.06-.1-.05-.03,0-.02.06-.01.09.02.05.05.09.07.14.05.1.11.19.16.29.02.04.07.11.12.1.03,0,.03-.03.03-.05Z"/>
                  <path class="cls-47" d="m235.52,167.45s-.04-.07-.07-.1c-.02-.01-.04-.02-.06-.02-.02,0-.04.01-.05.02-.1.05-.19.1-.28.16-.05.03-.09.06-.14.09-.02.02-.05.03-.07.05-.01.01-.01.03-.01.05,0,.05.04.09.08.11.02.01.04.02.06.01.02,0,.03-.02.05-.04.09-.07.19-.12.29-.18.05-.03.09-.05.14-.08.01,0,.03-.01.04-.02,0,0,.02,0,.02-.02,0-.02,0-.04,0-.06Z"/>
                  <path class="cls-47" d="m234.85,167.97s-.04-.06-.07-.08c-.03-.02-.08-.04-.11-.06-.04-.02-.06-.05-.07-.09-.01-.04,0-.08.02-.12.01-.02.02-.04.04-.05,0,0,.01-.01.02-.02.01,0,.02,0,.03,0,.02,0,.03-.03.02-.05,0-.02-.01-.04-.02-.05-.02-.03-.05-.06-.09-.08-.09-.03-.15.07-.18.14-.04.09,0,.18.03.26.04.08.09.14.16.19.03.02.07.04.11.06.03.01.07.04.1.03.03-.01.02-.06.01-.08Z"/>
                  <path class="cls-47" d="m235.69,168.8c-.03-.11-.06-.23-.08-.34-.01-.05-.02-.1-.03-.15,0-.05,0-.1-.04-.14-.02-.03-.04-.05-.07-.06-.02-.01-.05-.01-.06.02,0,.02,0,.04,0,.07,0,.03,0,.05.01.08,0,.05.02.11.03.16.02.11.05.21.08.32.01.04.05.09.09.11.02,0,.04.01.06,0,.02-.01.01-.04,0-.06Z"/>
                  <path class="cls-47" d="m235.38,168.82c-.01-.1-.03-.2-.05-.3-.01-.05-.02-.11-.03-.16,0-.05,0-.1-.03-.14-.02-.03-.06-.07-.1-.08-.05,0-.04.06-.04.09.01.1.04.21.06.31,0,.05.02.11.03.16,0,.05,0,.09.04.13.02.03.05.07.09.07.05,0,.04-.06.04-.09Z"/>
                  <path class="cls-47" d="m235.75,168.39c-.02-.05-.08-.13-.15-.1-.1.04-.2.09-.3.14-.05.02-.1.04-.15.06-.03,0-.05.02-.08.03-.01,0-.02,0-.04,0,0,0-.02,0-.02,0-.02-.08-.06-.17-.12-.23-.05-.05-.13-.09-.2-.05-.08.05-.08.16-.04.24.04.09.11.16.19.2-.02.05-.04.09-.06.13,0,.01-.01.02-.02.03,0,0-.02.02-.02.03,0,.02,0,.03,0,.05.01.04.05.08.09.11.01,0,.03.02.05,0,.02,0,.03-.03.04-.05.02-.04.05-.09.07-.13,0-.02.02-.05.02-.07,0-.01,0-.02,0-.03,0,0,0-.02,0-.03,0,0,.02,0,.03,0,.01,0,.02,0,.03,0,.02,0,.05,0,.07-.01.05-.01.09-.03.13-.04.1-.04.19-.08.28-.13.05-.02.09-.04.14-.06.04-.02.04-.05.03-.08Zm-.95.12s0-.04,0-.06c0,0,.01-.02.02-.02,0,0,.02,0,.02,0,.01,0,.01.03.01.04,0,.02,0,.05,0,.07-.03,0-.05-.01-.08-.03Z"/>
                  <path class="cls-47" d="m235.7,169.31s-.08-.05-.12-.07c-.1-.03-.2-.06-.3-.07-.1,0-.2-.01-.3.01-.09.02-.17.08-.2.18-.02.08,0,.17.05.23.04.05.09.09.16.11.04.02.13.05.14-.01.01-.05-.03-.11-.07-.13-.02-.01-.05-.02-.08-.03,0,0-.02,0-.02-.01,0-.01,0-.03,0-.04.02-.1.13-.12.22-.13.1,0,.21,0,.31.03.05.01.1.02.14.05.03.02.08.03.1,0,.02-.04,0-.08-.03-.11Z"/>
                  <path class="cls-47" d="m235.49,170.36c0-.11-.02-.22-.02-.34,0-.03-.01-.07-.03-.09-.02-.02-.04-.04-.06-.05-.02,0-.05-.02-.06,0-.02.02,0,.06,0,.09,0,.07.01.14.02.22,0,.03,0,.07,0,.1,0,.03,0,.06.02.08.02.04.06.08.11.09.05,0,.04-.06.04-.09Z"/>
                  <path class="cls-47" d="m235.69,170.24s-.04-.08-.08-.1c-.02-.01-.05-.01-.07-.02-.02,0-.05-.01-.07-.02-.1-.03-.2-.06-.29-.1-.1-.04-.2-.09-.3-.14-.05-.02-.1-.05-.15-.07-.02,0-.04-.01-.05,0-.01.02-.01.04,0,.06,0,.01,0,.03.01.04.02.04.05.07.09.1.05.02.1.04.14.07.1.05.2.09.3.14.1.04.19.08.29.1.03,0,.05.01.08.02.02,0,.05.01.07.02.05,0,.05-.06.04-.09Z"/>
                  <path class="cls-47" d="m235.17,170.69c.01-.05.03-.11.04-.16,0-.03.01-.05.02-.08,0-.02,0-.04,0-.06,0-.04-.03-.07-.06-.1-.02-.02-.06-.04-.08-.02-.02.01-.02.04-.02.05,0,.03-.01.05-.02.08-.01.05-.03.1-.04.16,0,.03-.02.05-.02.08,0,.02,0,.04,0,.06.02.04.06.09.11.1.03,0,.04,0,.05-.03,0-.03.01-.05.02-.08Z"/>
                  <path class="cls-47" d="m234.78,170.68s-.03-.05-.05-.08c-.07-.1,0-.23.1-.26.02,0,.04,0,.05-.02,0-.02,0-.04,0-.06-.02-.04-.04-.07-.08-.1-.07-.04-.16.02-.21.07-.05.06-.06.15-.05.23.02.08.06.16.11.22.02.02.03.04.05.05.02,0,.05.02.06,0,.01-.02,0-.04,0-.06Z"/>
                  <path class="cls-47" d="m235.36,171.29s-.04-.07-.08-.09c-.04-.02-.08-.03-.13-.05-.05-.02-.1-.03-.16-.05-.11-.03-.21-.06-.32-.09-.05-.01-.1-.03-.15-.04-.02,0-.04,0-.05.01,0,.02,0,.04,0,.05.01.04.04.07.07.1.03.02.07.03.11.04.08.02.17.05.25.07.09.02.17.05.26.08.03.01.07.02.1.03.02,0,.05.02.07.02.04,0,.03-.05.02-.08Z"/>
                  <path class="cls-47" d="m234.35,170.92s.04-.04.05-.06c0-.03-.01-.06-.02-.08-.02-.02-.04-.05-.06-.06-.02-.01-.05-.02-.07,0-.06.07-.15.18-.09.28.01.03.03.05.06.07.02.01.05.03.07.01.02-.02.02-.05.02-.07.01-.03.03-.05.05-.08Z"/>
                </g>
              </g>
            </g>
            <g>
              <path class="cls-17" d="m171,175.67c-7.82,0-14.17,3.98-14.17,8.88s6.34,8.88,14.17,8.88,14.17-3.98,14.17-8.88-6.34-8.88-14.17-8.88Z"/>
              <path class="cls-40" d="m155.35,166.8l-7.73.17s-.71,36.41-10.79,53.29l12.83,8.79,14.9-8.79s-11.25-33.51-9.21-53.46Z"/>
              <path class="cls-40" d="m150.7,122.6c-17.62,0-31.91,14.29-31.91,31.91s14.29,31.91,31.91,31.91,31.91-14.29,31.91-31.91-14.29-31.91-31.91-31.91Z"/>
              <polygon class="cls-19" points="151.87 151.87 151.15 151.22 146.34 156.52 151.92 156.52 151.92 155.56 148.52 155.56 151.87 151.87"/>
              <g>
                <path class="cls-40" d="m120.66,154.73c-2.34,0-4.24,1.9-4.24,4.24s1.9,4.24,4.24,4.24,4.24-1.9,4.24-4.24-1.9-4.24-4.24-4.24Z"/>
                <path class="cls-40" d="m180.73,154.73c-2.34,0-4.24,1.9-4.24,4.24s1.9,4.24,4.24,4.24,4.24-1.9,4.24-4.24-1.9-4.24-4.24-4.24Z"/>
              </g>
              <path class="cls-17" d="m165.43,143.25l.92-.31c-.04-.11-.83-2.39-3.73-3.51-.3-.12-.63-.22-.97-.31l-.23.94c3.17.79,3.99,3.09,4.02,3.18Z"/>
              <g>
                <path class="cls-17" d="m143.1,122.2c-25.62,3.92-24.81,31.49-24.81,31.49,0,0,15.17-10.73,27.58-12.98,14.27-2.59,24.27-12.55,24.27-12.55,0,0-5.9-9.2-27.04-5.96Z"/>
                <path class="cls-17" d="m169.32,127.22l-4.17,2.86s6.28,17.79,18.65,24.86c0,0-1.79-22.26-14.48-27.72Z"/>
              </g>
              <g>
                <path class="cls-7" d="m122.25,213.71c-2.33,8.4-7.97,41.89-8.73,45.83h11.72l3.23-18.96-2.94-30.5c-1.22.51-2.76,1.74-3.28,3.64Z"/>
                <path class="cls-7" d="m177.99,210.07l-2.94,30.5,3.23,18.96h11.72c-.75-3.94-6.4-37.43-8.73-45.83-.53-1.9-2.07-3.13-3.28-3.64Z"/>
                <path class="cls-7" d="m149.54,215.2c-6.74-.42-12.16-4.56-13.91-9.61l-10.2,4.53,3.66,49.41h45.41l3.66-49.41-10.19-4.56c-1.74,5.08-7.2,9.29-13.97,9.64-1.11.06-3.34.06-4.45,0Z"/>
              </g>
              <g>
                <g>
                  <path class="cls-17" d="m138.6,147.23c.05.02.11.03.16.03.19,0,.36-.11.43-.3.09-.24-.03-.5-.27-.59l-2.59-1.22,2.27,2.08Z"/>
                  <path class="cls-17" d="m138.6,148.53c.05.02.11.03.16.03.19,0,.36-.11.43-.3.09-.24-.03-.5-.27-.59l-2.59-1.22,2.27,2.08Z"/>
                </g>
                <circle class="cls-5" cx="140.4" cy="148.71" r="2.8"/>
                <circle class="cls-17" cx="139.97" cy="148.71" r="2.37"/>
              </g>
              <g>
                <g>
                  <path class="cls-17" d="m163.36,147.66c-.05.02-.11.03-.16.03-.19,0-.36-.11-.43-.3-.09-.24.03-.5.27-.59l2.59-1.22-2.27,2.08Z"/>
                  <path class="cls-17" d="m163.36,148.96c-.05.02-.11.03-.16.03-.19,0-.36-.11-.43-.3-.09-.24.03-.5.27-.59l2.59-1.22-2.27,2.08Z"/>
                </g>
                <circle class="cls-5" cx="161.21" cy="148.71" r="2.8"/>
                <circle class="cls-17" cx="160.78" cy="148.71" r="2.37"/>
              </g>
              <circle class="cls-42" cx="149.78" cy="168.96" r="3.37"/>
            </g>
            <g>
              <g>
                <g>
                  <path class="cls-10" d="m209.42,187.12c-1.01.68-2.12,1.4-3.26,2.14.12.25.21.52.27.79,1.35-.12,2.67-.24,3.89-.33-.02-.94-.33-1.85-.9-2.6Z"/>
                  <path class="cls-33" d="m206.16,189.26c-.49.32-.99.64-1.49.96.59-.06,1.18-.11,1.76-.17-.07-.27-.16-.53-.27-.79Z"/>
                </g>
                <rect class="cls-48" x="208.58" y="179.34" width="47.27" height="2.75" transform="translate(-46.2 85.49) rotate(-19.01)"/>
              </g>
              <rect class="cls-36" x="251.85" y="172.34" width="1.4" height="2.75" transform="translate(-42.81 91.74) rotate(-19.01)"/>
              <rect class="cls-21" x="250.47" y="172.95" width=".63" height="2.75" transform="translate(-43.1 91.2) rotate(-19.01)"/>
            </g>
          </g>
        </g>
      </g>
    </g>
  </g>
</svg>