<?xml version="1.0" encoding="UTF-8"?>
<svg id="_レイヤー_2" data-name="レイヤー 2" xmlns="http://www.w3.org/2000/svg" xmlns:xlink="http://www.w3.org/1999/xlink" viewBox="0 0 292 292">
  <defs>
    <style>
      .cls-1 {
        fill: #30306d;
      }

      .cls-2, .cls-3, .cls-4 {
        fill: #fff;
      }

      .cls-5 {
        fill: #242363;
      }

      .cls-6 {
        fill: #c8c9ca;
      }

      .cls-7 {
        fill: #f4b719;
      }

      .cls-8 {
        fill: #00993e;
      }

      .cls-9 {
        fill: #dbdcdc;
      }

      .cls-10 {
        fill: #8da8b2;
      }

      .cls-11 {
        fill: #032637;
      }

      .cls-12 {
        fill: #ffb89e;
      }

      .cls-13 {
        fill: #595757;
      }

      .cls-14 {
        fill: #f0cda3;
      }

      .cls-15 {
        fill: #e50012;
      }

      .cls-16 {
        opacity: .45;
      }

      .cls-3 {
        stroke-width: .5px;
      }

      .cls-3, .cls-4 {
        stroke: #dbdcdc;
      }

      .cls-3, .cls-4, .cls-17 {
        stroke-miterlimit: 10;
      }

      .cls-4 {
        stroke-width: .15px;
      }

      .cls-18 {
        fill: #e5e5e5;
      }

      .cls-19 {
        clip-path: url(#clippath);
      }

      .cls-17 {
        stroke: #595757;
        stroke-width: .47px;
      }

      .cls-17, .cls-20 {
        fill: none;
      }

      .cls-21 {
        fill: #1b1464;
      }

      .cls-22 {
        fill: #e45251;
      }

      .cls-23 {
        fill: #ffe100;
      }

      .cls-24 {
        fill: #9c9fa0;
      }

      .cls-25 {
        fill: #7a8c89;
      }

      .cls-26 {
        fill: #706059;
      }

      .cls-27 {
        fill: #ffd1b7;
      }

      .cls-28 {
        fill: #1eaa39;
      }

      .cls-29 {
        fill: #888;
      }

      .cls-30 {
        fill: #b4b4b5;
      }
    </style>
    <clipPath id="clippath">
      <circle class="cls-20" cx="146" cy="146" r="146"/>
    </clipPath>
  </defs>
  <g id="_レイヤー_1-2" data-name="レイヤー 1">
    <g class="cls-19">
      <g>
        <g class="cls-16">
          <g>
            <path class="cls-25" d="m131.7,173.31v13.87h-3.38v-8.32l-3.1,8.32h-2.73l-3.12-8.34v8.34h-3.38v-13.87h3.99l3.89,9.6,3.85-9.6h3.97Z"/>
            <path class="cls-25" d="m145.39,176.16l-6.92,16.26h-3.64l2.53-5.61-4.49-10.65h3.77l2.55,6.9,2.53-6.9h3.66Z"/>
            <path class="cls-25" d="m166.63,176.16l-2.98,11.03h-3.73l-1.74-7.15-1.8,7.15h-3.71l-3-11.03h3.38l1.56,7.88,1.86-7.88h3.58l1.88,7.84,1.54-7.84h3.18Z"/>
            <path class="cls-25" d="m170.02,186.65c-.86-.46-1.54-1.12-2.04-1.97-.49-.86-.74-1.86-.74-3s.25-2.13.75-2.99c.5-.86,1.19-1.52,2.06-1.99.87-.46,1.84-.69,2.92-.69s2.05.23,2.92.69c.87.46,1.55,1.12,2.05,1.99.5.86.75,1.86.75,2.99s-.25,2.13-.76,2.99c-.51.86-1.2,1.52-2.08,1.98-.88.46-1.85.69-2.93.69s-2.05-.23-2.92-.69Zm4.56-2.94c.45-.47.68-1.15.68-2.04s-.22-1.56-.66-2.04-.98-.71-1.63-.71-1.21.23-1.64.7-.65,1.15-.65,2.04.21,1.56.64,2.04c.43.47.96.71,1.61.71s1.2-.24,1.65-.71Z"/>
            <path class="cls-25" d="m185.36,176.56c.59-.35,1.25-.52,1.98-.52v3.58h-.93c-.84,0-1.48.18-1.9.54-.42.36-.63,1-.63,1.91v5.12h-3.38v-11.03h3.38v1.84c.4-.61.89-1.08,1.48-1.43Z"/>
            <path class="cls-25" d="m193.82,176.56c.59-.35,1.25-.52,1.98-.52v3.58h-.93c-.84,0-1.48.18-1.9.54-.42.36-.63,1-.63,1.91v5.12h-3.38v-11.03h3.38v1.84c.4-.61.89-1.08,1.48-1.43Z"/>
            <path class="cls-25" d="m197.66,174.49c-.38-.35-.56-.78-.56-1.29s.19-.96.56-1.31c.38-.35.86-.52,1.45-.52s1.06.17,1.43.52c.38.35.56.79.56,1.31s-.19.95-.56,1.29c-.38.35-.85.52-1.43.52s-1.08-.17-1.45-.52Zm3.13,1.67v11.03h-3.38v-11.03h3.38Z"/>
            <path class="cls-25" d="m213.58,182.48h-7.65c.05.68.27,1.21.66,1.57s.87.54,1.43.54c.84,0,1.43-.36,1.76-1.07h3.6c-.18.72-.52,1.38-1,1.96s-1.08,1.03-1.81,1.36-1.54.49-2.43.49c-1.08,0-2.04-.23-2.88-.69-.84-.46-1.5-1.12-1.98-1.97-.47-.86-.71-1.86-.71-3s.23-2.15.7-3c.47-.86,1.12-1.51,1.97-1.98s1.81-.69,2.9-.69,2.02.22,2.85.67,1.48,1.09,1.95,1.92c.47.83.7,1.8.7,2.9,0,.32-.02.65-.06.99Zm-3.4-1.88c0-.58-.2-1.04-.59-1.38-.39-.34-.89-.51-1.48-.51s-1.04.17-1.43.49-.63.8-.72,1.4h4.23Z"/>
            <path class="cls-25" d="m217.33,186.84c-.75-.33-1.34-.78-1.78-1.35s-.68-1.22-.73-1.93h3.34c.04.38.22.69.53.93.32.24.71.36,1.17.36.42,0,.75-.08.98-.25.23-.16.35-.38.35-.64,0-.32-.16-.55-.49-.7-.33-.15-.86-.32-1.6-.5-.79-.18-1.45-.38-1.98-.58-.53-.2-.98-.53-1.36-.97s-.57-1.04-.57-1.79c0-.63.17-1.21.52-1.73.35-.52.86-.93,1.54-1.23.68-.3,1.49-.45,2.42-.45,1.38,0,2.47.34,3.27,1.03.8.69,1.25,1.59,1.37,2.73h-3.12c-.05-.38-.22-.69-.5-.91-.28-.22-.66-.34-1.12-.34-.39,0-.7.08-.91.23-.21.15-.32.36-.32.62,0,.32.17.55.5.71s.86.32,1.57.47c.82.21,1.48.42,2,.62.51.21.96.53,1.35.99.39.45.59,1.06.6,1.83,0,.65-.18,1.22-.54,1.73-.36.51-.88.91-1.56,1.2-.68.29-1.47.43-2.36.43-.96,0-1.82-.17-2.57-.49Z"/>
          </g>
          <g>
            <path class="cls-25" d="m76.97,92.31v2.71h-3.67v11.16h-3.38v-11.16h-3.67v-2.71h10.73Z"/>
            <path class="cls-25" d="m78.91,93.49c-.38-.35-.56-.78-.56-1.29s.19-.96.56-1.31c.38-.35.86-.52,1.45-.52s1.06.17,1.43.52c.38.35.56.79.56,1.31s-.19.95-.56,1.29c-.38.35-.85.52-1.43.52s-1.08-.17-1.45-.52Zm3.13,1.67v11.03h-3.38v-11.03h3.38Z"/>
            <path class="cls-25" d="m101.83,96.28c.81.83,1.21,1.98,1.21,3.46v6.44h-3.36v-5.99c0-.71-.19-1.26-.56-1.65s-.89-.58-1.55-.58-1.18.19-1.55.58c-.38.39-.56.94-.56,1.65v5.99h-3.36v-5.99c0-.71-.19-1.26-.56-1.65-.38-.39-.89-.58-1.55-.58s-1.18.19-1.55.58-.56.94-.56,1.65v5.99h-3.38v-11.03h3.38v1.38c.34-.46.79-.83,1.34-1.1.55-.27,1.18-.41,1.88-.41.83,0,1.57.18,2.22.53.65.36,1.16.86,1.53,1.52.38-.61.9-1.1,1.56-1.48.66-.38,1.38-.57,2.15-.57,1.37,0,2.46.42,3.27,1.24Z"/>
            <path class="cls-25" d="m115.75,101.48h-7.65c.05.69.27,1.21.66,1.57s.87.54,1.43.54c.84,0,1.43-.36,1.76-1.07h3.6c-.18.72-.52,1.38-1,1.96s-1.08,1.03-1.81,1.36c-.72.33-1.54.49-2.43.49-1.08,0-2.04-.23-2.88-.69-.84-.46-1.5-1.12-1.98-1.98s-.71-1.86-.71-3,.23-2.15.7-3c.47-.86,1.12-1.51,1.97-1.98s1.81-.69,2.9-.69,2.02.22,2.85.67,1.48,1.09,1.95,1.92c.47.83.7,1.8.7,2.9,0,.32-.02.65-.06.99Zm-3.4-1.88c0-.58-.2-1.04-.59-1.38-.39-.34-.89-.51-1.48-.51s-1.04.17-1.43.49-.63.8-.72,1.4h4.23Z"/>
          </g>
          <g>
            <path class="cls-25" d="m17.91,198.03v21.54h-5.25v-21.54h5.25Z"/>
            <path class="cls-25" d="m36.95,204.21c1.2,1.3,1.79,3.08,1.79,5.35v10h-5.21v-9.3c0-1.15-.3-2.03-.89-2.67-.59-.63-1.39-.95-2.39-.95s-1.8.32-2.39.95c-.59.63-.89,1.52-.89,2.67v9.3h-5.25v-17.12h5.25v2.27c.53-.76,1.25-1.35,2.15-1.79.9-.44,1.91-.66,3.04-.66,2,0,3.6.65,4.8,1.95Z"/>
            <path class="cls-25" d="m51.93,215.12v4.45h-2.67c-1.9,0-3.38-.46-4.45-1.4-1.06-.93-1.59-2.45-1.59-4.56v-6.81h-2.09v-4.36h2.09v-4.17h5.25v4.17h3.44v4.36h-3.44v6.87c0,.51.12.88.37,1.1.25.23.65.34,1.23.34h1.87Z"/>
            <path class="cls-25" d="m70.89,212.26h-11.87c.08,1.06.42,1.88,1.03,2.44s1.34.84,2.22.84c1.31,0,2.22-.55,2.73-1.66h5.58c-.29,1.12-.8,2.14-1.55,3.04-.75.9-1.68,1.61-2.81,2.12-1.12.51-2.38.77-3.77.77-1.68,0-3.17-.36-4.48-1.07-1.31-.72-2.33-1.74-3.07-3.07-.74-1.33-1.1-2.88-1.1-4.66s.36-3.33,1.09-4.66c.73-1.33,1.74-2.35,3.05-3.07,1.31-.71,2.81-1.07,4.51-1.07s3.13.35,4.42,1.04,2.3,1.69,3.02,2.97c.73,1.29,1.09,2.79,1.09,4.51,0,.49-.03,1-.09,1.53Zm-5.28-2.92c0-.9-.31-1.62-.92-2.15-.61-.53-1.38-.8-2.3-.8s-1.62.26-2.22.77c-.6.51-.98,1.24-1.12,2.18h6.57Z"/>
            <path class="cls-25" d="m81.29,203.07c.92-.54,1.94-.81,3.07-.81v5.55h-1.44c-1.31,0-2.29.28-2.94.84-.66.56-.98,1.55-.98,2.96v7.95h-5.25v-17.12h5.25v2.85c.61-.94,1.38-1.68,2.3-2.22Z"/>
            <path class="cls-25" d="m102.11,204.21c1.2,1.3,1.79,3.08,1.79,5.35v10h-5.21v-9.3c0-1.15-.3-2.03-.89-2.67-.59-.63-1.39-.95-2.39-.95s-1.8.32-2.39.95c-.59.63-.89,1.52-.89,2.67v9.3h-5.25v-17.12h5.25v2.27c.53-.76,1.25-1.35,2.15-1.79.9-.44,1.91-.66,3.04-.66,2,0,3.6.65,4.8,1.95Z"/>
            <path class="cls-25" d="m123.6,212.26h-11.87c.08,1.06.42,1.88,1.03,2.44s1.34.84,2.22.84c1.31,0,2.22-.55,2.73-1.66h5.58c-.29,1.12-.8,2.14-1.55,3.04-.75.9-1.68,1.61-2.81,2.12-1.12.51-2.38.77-3.77.77-1.68,0-3.17-.36-4.48-1.07-1.31-.72-2.33-1.74-3.07-3.07-.74-1.33-1.1-2.88-1.1-4.66s.36-3.33,1.09-4.66c.73-1.33,1.74-2.35,3.05-3.07,1.31-.71,2.81-1.07,4.51-1.07s3.13.35,4.42,1.04,2.3,1.69,3.02,2.97c.73,1.29,1.09,2.79,1.09,4.51,0,.49-.03,1-.09,1.53Zm-5.28-2.92c0-.9-.31-1.62-.92-2.15-.61-.53-1.38-.8-2.3-.8s-1.62.26-2.22.77c-.6.51-.98,1.24-1.12,2.18h6.57Z"/>
            <path class="cls-25" d="m135.99,215.12v4.45h-2.67c-1.9,0-3.38-.46-4.45-1.4-1.06-.93-1.59-2.45-1.59-4.56v-6.81h-2.09v-4.36h2.09v-4.17h5.25v4.17h3.44v4.36h-3.44v6.87c0,.51.12.88.37,1.1.25.23.65.34,1.23.34h1.87Z"/>
          </g>
          <g>
            <path class="cls-25" d="m175.12,234.79c-.37.67-.94,1.21-1.72,1.63s-1.73.62-2.87.62h-2.12v5.03h-3.41v-14.01h5.53c1.12,0,2.06.19,2.83.58s1.35.92,1.74,1.6c.39.68.58,1.46.58,2.33,0,.81-.19,1.55-.56,2.22Zm-3.39-.93c.32-.31.48-.74.48-1.3s-.16-.99-.48-1.3-.8-.46-1.46-.46h-1.86v3.51h1.86c.65,0,1.14-.15,1.46-.46Z"/>
            <path class="cls-25" d="m182.36,231.34c.6-.35,1.26-.53,2-.53v3.61h-.94c-.85,0-1.49.18-1.92.55s-.64,1.01-.64,1.92v5.17h-3.41v-11.13h3.41v1.86c.4-.61.9-1.09,1.5-1.45Z"/>
            <path class="cls-25" d="m186.24,229.25c-.38-.35-.57-.79-.57-1.31s.19-.97.57-1.33c.38-.35.87-.53,1.47-.53s1.07.18,1.45.53c.38.35.57.79.57,1.33s-.19.95-.57,1.31-.86.53-1.45.53-1.09-.18-1.47-.53Zm3.16,1.69v11.13h-3.41v-11.13h3.41Z"/>
            <path class="cls-25" d="m191.91,233.46c.47-.86,1.13-1.53,1.98-2,.84-.46,1.81-.7,2.9-.7,1.4,0,2.56.37,3.5,1.1.94.73,1.55,1.76,1.85,3.09h-3.63c-.31-.85-.9-1.28-1.78-1.28-.62,0-1.12.24-1.5.73s-.56,1.18-.56,2.08.19,1.6.56,2.08.87.73,1.5.73c.88,0,1.47-.43,1.78-1.28h3.63c-.29,1.3-.91,2.33-1.86,3.07-.94.75-2.11,1.12-3.49,1.12-1.09,0-2.06-.23-2.9-.7-.84-.46-1.5-1.13-1.98-2-.47-.86-.71-1.88-.71-3.03s.24-2.17.71-3.03Z"/>
            <path class="cls-25" d="m214.38,237.32h-7.72c.05.69.28,1.22.67,1.59.39.37.87.55,1.45.55.85,0,1.44-.36,1.78-1.08h3.63c-.19.73-.52,1.39-1.01,1.98s-1.09,1.04-1.83,1.38c-.73.33-1.55.5-2.45.5-1.09,0-2.06-.23-2.91-.7-.85-.46-1.52-1.13-2-2-.48-.86-.72-1.88-.72-3.03s.24-2.17.71-3.03c.47-.86,1.13-1.53,1.99-2,.85-.46,1.83-.7,2.93-.7s2.04.23,2.87.68,1.49,1.1,1.96,1.94c.47.84.71,1.82.71,2.93,0,.32-.02.65-.06,1Zm-3.43-1.89c0-.59-.2-1.05-.6-1.4-.4-.35-.9-.52-1.5-.52s-1.05.17-1.45.5c-.39.33-.63.8-.73,1.42h4.27Z"/>
          </g>
          <g>
            <path class="cls-25" d="m29.12,122.17l-6.29,24.14h-7.12l-3.85-15.89-3.99,15.89H.75l-6.12-24.14H.92l3.47,17.57,4.3-17.57h6.47l4.13,17.57,3.51-17.57h6.33Z"/>
            <path class="cls-25" d="m49.16,129.1c1.33,1.46,1.99,3.46,1.99,6v11.21h-5.85v-10.42c0-1.28-.33-2.28-1-2.99-.67-.71-1.56-1.07-2.68-1.07s-2.02.36-2.68,1.07c-.67.71-1,1.71-1,2.99v10.42h-5.88v-25.45h5.88v8.84c.6-.85,1.41-1.52,2.44-2.03,1.03-.5,2.19-.76,3.47-.76,2.2,0,3.97.73,5.3,2.18Z"/>
            <path class="cls-25" d="m55.2,131.49c.75-1.49,1.76-2.64,3.04-3.44,1.28-.8,2.72-1.2,4.3-1.2,1.35,0,2.54.27,3.56.83,1.02.55,1.81,1.27,2.36,2.17v-2.72h5.88v19.19h-5.88v-2.72c-.57.89-1.37,1.62-2.39,2.17-1.02.55-2.21.83-3.56.83-1.56,0-2.98-.41-4.26-1.22-1.28-.81-2.3-1.97-3.04-3.47-.75-1.5-1.12-3.24-1.12-5.21s.37-3.7,1.12-5.19Zm12.04,1.75c-.81-.85-1.81-1.27-2.97-1.27s-2.16.42-2.97,1.26c-.81.84-1.22,1.99-1.22,3.46s.41,2.63,1.22,3.49,1.81,1.29,2.97,1.29,2.16-.42,2.97-1.27c.81-.85,1.22-2.01,1.22-3.47s-.41-2.62-1.22-3.47Z"/>
            <path class="cls-25" d="m89.29,141.33v4.99h-2.99c-2.13,0-3.79-.52-4.99-1.56-1.19-1.04-1.79-2.75-1.79-5.11v-7.63h-2.34v-4.88h2.34v-4.68h5.88v4.68h3.85v4.88h-3.85v7.7c0,.57.14.99.41,1.24s.73.38,1.38.38h2.1Z"/>
            <path class="cls-25" d="m103.18,145.73c-1.31-.57-2.34-1.36-3.09-2.36-.76-1-1.18-2.12-1.27-3.35h5.81c.07.67.38,1.2.93,1.62.55.41,1.23.62,2.03.62.73,0,1.3-.14,1.7-.43.4-.29.6-.66.6-1.12,0-.55-.29-.96-.86-1.22-.57-.26-1.5-.56-2.79-.88-1.38-.32-2.52-.66-3.44-1.01-.92-.35-1.71-.92-2.37-1.69-.67-.77-1-1.81-1-3.11,0-1.1.3-2.1.91-3.01.61-.91,1.5-1.62,2.68-2.15s2.58-.79,4.21-.79c2.41,0,4.3.6,5.69,1.79,1.39,1.19,2.18,2.77,2.39,4.75h-5.43c-.09-.66-.38-1.19-.88-1.58-.49-.39-1.14-.58-1.94-.58-.69,0-1.22.13-1.58.4-.37.26-.55.62-.55,1.08,0,.55.29.96.88,1.24.58.27,1.5.55,2.73.83,1.42.37,2.58.73,3.47,1.08.89.36,1.68.93,2.36,1.72.68.79,1.03,1.85,1.05,3.18,0,1.12-.32,2.13-.95,3.01-.63.88-1.54,1.58-2.72,2.08-1.18.5-2.55.76-4.11.76-1.67,0-3.16-.29-4.47-.86Z"/>
            <path class="cls-25" d="m136.13,129.1c1.33,1.46,1.99,3.46,1.99,6v11.21h-5.85v-10.42c0-1.28-.33-2.28-1-2.99-.67-.71-1.56-1.07-2.68-1.07s-2.02.36-2.68,1.07c-.67.71-1,1.71-1,2.99v10.42h-5.88v-25.45h5.88v8.84c.6-.85,1.41-1.52,2.44-2.03,1.03-.5,2.19-.76,3.47-.76,2.2,0,3.97.73,5.3,2.18Z"/>
            <path class="cls-25" d="m145.88,145.39c-1.5-.8-2.68-1.95-3.54-3.44-.86-1.49-1.29-3.23-1.29-5.23s.44-3.71,1.31-5.21,2.06-2.65,3.58-3.46c1.51-.8,3.21-1.2,5.09-1.2s3.58.4,5.09,1.2c1.51.8,2.71,1.95,3.58,3.46s1.31,3.24,1.31,5.21-.44,3.71-1.32,5.21c-.88,1.5-2.09,2.65-3.61,3.46-1.52.8-3.23,1.2-5.11,1.2s-3.57-.4-5.07-1.2Zm7.94-5.12c.79-.83,1.19-2.01,1.19-3.54s-.38-2.72-1.15-3.54c-.77-.83-1.71-1.24-2.84-1.24s-2.1.41-2.85,1.22c-.76.81-1.13,2-1.13,3.56s.37,2.72,1.12,3.54,1.68,1.24,2.8,1.24,2.08-.41,2.87-1.24Z"/>
            <path class="cls-25" d="m183.07,127.13v19.19h-5.88v-2.61c-.6.85-1.4,1.53-2.42,2.05-1.02.52-2.15.77-3.39.77-1.47,0-2.76-.33-3.89-.98-1.12-.65-1.99-1.6-2.61-2.84-.62-1.24-.93-2.69-.93-4.37v-11.21h5.85v10.42c0,1.28.33,2.28,1,2.99.66.71,1.56,1.07,2.68,1.07s2.05-.36,2.72-1.07c.67-.71,1-1.71,1-2.99v-10.42h5.88Z"/>
            <path class="cls-25" d="m193.18,120.87v25.45h-5.88v-25.45h5.88Z"/>
            <path class="cls-25" d="m197.39,131.49c.75-1.49,1.76-2.64,3.04-3.44,1.28-.8,2.72-1.2,4.3-1.2,1.26,0,2.41.26,3.46.79s1.86,1.24,2.46,2.13v-8.91h5.88v25.45h-5.88v-2.75c-.55.92-1.34,1.65-2.36,2.2-1.02.55-2.21.83-3.56.83-1.58,0-3.01-.41-4.3-1.22-1.28-.81-2.3-1.97-3.04-3.47-.75-1.5-1.12-3.24-1.12-5.21s.37-3.7,1.12-5.19Zm12.04,1.75c-.81-.85-1.81-1.27-2.97-1.27s-2.16.42-2.97,1.26c-.81.84-1.22,1.99-1.22,3.46s.41,2.63,1.22,3.49,1.81,1.29,2.97,1.29,2.16-.42,2.97-1.27c.81-.85,1.22-2.01,1.22-3.47s-.41-2.62-1.22-3.47Z"/>
            <path class="cls-25" d="m233.96,122.17v24.14h-5.88v-24.14h5.88Z"/>
            <path class="cls-25" d="m245.46,131.49c.75-1.49,1.76-2.64,3.04-3.44,1.28-.8,2.72-1.2,4.3-1.2,1.26,0,2.41.26,3.46.79s1.86,1.24,2.46,2.13v-8.91h5.88v25.45h-5.88v-2.75c-.55.92-1.34,1.65-2.36,2.2-1.02.55-2.21.83-3.56.83-1.58,0-3.01-.41-4.3-1.22-1.28-.81-2.3-1.97-3.04-3.47-.75-1.5-1.12-3.24-1.12-5.21s.37-3.7,1.12-5.19Zm12.04,1.75c-.81-.85-1.81-1.27-2.97-1.27s-2.16.42-2.97,1.26c-.81.84-1.22,1.99-1.22,3.46s.41,2.63,1.22,3.49,1.81,1.29,2.97,1.29,2.16-.42,2.97-1.27c.81-.85,1.22-2.01,1.22-3.47s-.41-2.62-1.22-3.47Z"/>
            <path class="cls-25" d="m272.52,145.39c-1.5-.8-2.68-1.95-3.54-3.44-.86-1.49-1.29-3.23-1.29-5.23s.44-3.71,1.31-5.21,2.06-2.65,3.58-3.46c1.51-.8,3.21-1.2,5.09-1.2s3.58.4,5.09,1.2c1.51.8,2.71,1.95,3.58,3.46s1.31,3.24,1.31,5.21-.44,3.71-1.32,5.21c-.88,1.5-2.09,2.65-3.61,3.46-1.52.8-3.23,1.2-5.11,1.2s-3.57-.4-5.07-1.2Zm7.94-5.12c.79-.83,1.19-2.01,1.19-3.54s-.38-2.72-1.15-3.54c-.77-.83-1.71-1.24-2.84-1.24s-2.1.41-2.85,1.22c-.76.81-1.13,2-1.13,3.56s.37,2.72,1.12,3.54,1.68,1.24,2.8,1.24,2.08-.41,2.87-1.24Z"/>
            <path class="cls-25" d="m303.71,122.76c1.48,1.28,2.22,3.09,2.22,5.43,0,2.16-.71,3.83-2.11,5.04-1.41,1.2-3.27,1.82-5.59,1.84l-.17,2.58h-5.16l-.17-6.4h2.06c1.77,0,3.11-.22,4.04-.65.93-.44,1.39-1.23,1.39-2.37,0-.8-.22-1.43-.65-1.89-.44-.46-1.04-.69-1.82-.69-.83,0-1.47.24-1.92.71-.46.47-.69,1.11-.69,1.91h-5.54c-.05-1.4.25-2.66.88-3.78.63-1.12,1.57-2.01,2.82-2.67,1.25-.65,2.76-.98,4.52-.98,2.45,0,4.42.64,5.9,1.93Zm-10.69,22.92c-.65-.61-.98-1.36-.98-2.25s.33-1.69.98-2.3c.65-.62,1.5-.93,2.53-.93s1.84.31,2.49.93c.65.62.98,1.39.98,2.3s-.33,1.65-.98,2.25c-.65.61-1.48.91-2.49.91s-1.87-.3-2.53-.91Z"/>
          </g>
        </g>
        <g>
          <g>
            <path class="cls-18" d="m51.37,178.75c2.06-3.74,4.94-6.65,8.64-8.74,3.69-2.09,7.88-3.13,12.56-3.13,5.73,0,10.64,1.51,14.73,4.54,4.08,3.03,6.81,7.16,8.19,12.39h-12.94c-.96-2.02-2.33-3.56-4.09-4.61-1.77-1.05-3.77-1.58-6.02-1.58-3.62,0-6.56,1.26-8.81,3.78-2.25,2.52-3.37,5.9-3.37,10.12s1.12,7.59,3.37,10.12c2.25,2.52,5.18,3.78,8.81,3.78,2.25,0,4.25-.53,6.02-1.58,1.77-1.05,3.13-2.59,4.09-4.61h12.94c-1.38,5.23-4.11,9.35-8.19,12.35-4.08,3.01-8.99,4.51-14.73,4.51-4.68,0-8.87-1.04-12.56-3.13-3.69-2.09-6.57-4.99-8.64-8.71s-3.1-7.96-3.1-12.73,1.03-9.03,3.1-12.77Z"/>
            <path class="cls-18" d="m125.89,207.21h-18.03l-2.89,8.53h-12.32l17.48-48.31h13.63l17.48,48.31h-12.46l-2.89-8.53Zm-3.03-9.08l-5.99-17.69-5.92,17.69h11.91Z"/>
            <path class="cls-18" d="m153.15,214.5c-2.8-1.15-5.04-2.84-6.71-5.09-1.68-2.25-2.56-4.95-2.65-8.12h12.52c.18,1.79.8,3.15,1.86,4.09,1.06.94,2.43,1.41,4.13,1.41s3.12-.4,4.13-1.2c1.01-.8,1.51-1.92,1.51-3.34,0-1.19-.4-2.18-1.2-2.96-.8-.78-1.79-1.42-2.96-1.93-1.17-.5-2.83-1.08-4.99-1.72-3.12-.96-5.67-1.93-7.64-2.89-1.97-.96-3.67-2.38-5.09-4.27-1.42-1.88-2.13-4.34-2.13-7.36,0-4.5,1.63-8.02,4.89-10.56,3.26-2.55,7.5-3.82,12.73-3.82s9.61,1.27,12.87,3.82c3.26,2.55,5,6.09,5.23,10.63h-12.73c-.09-1.56-.67-2.79-1.72-3.68-1.06-.89-2.41-1.34-4.06-1.34-1.42,0-2.57.38-3.44,1.14-.87.76-1.31,1.85-1.31,3.27,0,1.56.73,2.78,2.2,3.65,1.47.87,3.76,1.81,6.88,2.82,3.12,1.06,5.65,2.06,7.6,3.03,1.95.96,3.64,2.36,5.06,4.2,1.42,1.84,2.13,4.2,2.13,7.09s-.7,5.25-2.1,7.5c-1.4,2.25-3.43,4.04-6.09,5.37-2.66,1.33-5.8,2-9.43,2s-6.7-.57-9.5-1.72Z"/>
            <path class="cls-18" d="m199.25,176.86v9.77h15.76v9.08h-15.76v10.6h17.82v9.43h-29.59v-48.31h29.59v9.43h-17.82Z"/>
            <path class="cls-18" d="m229.18,176.45v-10.94h19.06v50.24h-12.25v-39.29h-6.81Z"/>
          </g>
          <g>
            <path class="cls-9" d="m148.71,93c-2.24.42-4.49.85-6.73,1.27-5.87,1.11-11.73,2.22-17.6,3.33l-6.73,1.27c8.12,6.13,8.27,18.53,2.95,27.2l8.85-1.68c5.87-1.11,11.73-2.22,17.6-3.33,2.24-.42,7.04-1.33,9.28-1.76-8.12-6.13-12.94-17.64-7.63-26.31Z"/>
            <rect class="cls-30" x="120.45" y="122.68" width="36.36" height="1.73" transform="translate(-20.58 27.97) rotate(-10.73)"/>
            <rect class="cls-6" x="123.51" y="105.57" width="23.44" height="1.47" transform="translate(-17.43 27.03) rotate(-10.73)"/>
            <path class="cls-9" d="m90.33,38.35h76.85c4.39,0,7.95,3.56,7.95,7.95v51.34c0,4.72-3.84,8.56-8.56,8.56h-75.8c-4.72,0-8.56-3.84-8.56-8.56v-51.17c0-4.48,3.64-8.11,8.11-8.11Z" transform="translate(-11.21 25.22) rotate(-10.73)"/>
            <path class="cls-13" d="m89.18,38.46h76.85c4.39,0,7.95,3.56,7.95,7.95v47.6h-92.91v-47.44c0-4.48,3.64-8.11,8.11-8.11Z" transform="translate(-10.1 24.9) rotate(-10.73)"/>
            <path class="cls-10" d="m106.64,26.66h41.79v79.15h-41.62c-.09,0-.17-.07-.17-.17V26.66h0Z" transform="translate(168.87 -71.39) rotate(79.27)"/>
            <path class="cls-13" d="m136.59,99.05c.29,1.52-.71,2.98-2.23,3.27s-2.98-.71-3.27-2.22.71-2.98,2.22-3.27,2.98.71,3.27,2.23Z"/>
            <rect class="cls-2" x="103.53" y="49.53" width="47.88" height="32.78" transform="translate(-10.04 24.88) rotate(-10.73)"/>
            <path class="cls-9" d="m154.15,77.64l-47.24,8.95-6.14-32.4,47.24-8.95,6.14,32.4Zm-47.08,8.72l46.85-8.88-6.07-32.01-46.85,8.88,6.07,32.01Z"/>
            <rect class="cls-9" x="100.78" y="49.67" width="47.88" height="3.97" transform="translate(-7.44 24.12) rotate(-10.73)"/>
            <rect class="cls-9" x="111.17" y="72.47" width="6.3" height="1.7" transform="translate(-11.65 22.56) rotate(-10.73)"/>
            <rect class="cls-9" x="111.64" y="74.61" width="14.13" height="1.7" transform="translate(-11.97 23.42) rotate(-10.73)"/>
            <rect class="cls-9" x="112.19" y="77.48" width="14.13" height="1.7" transform="translate(-12.5 23.57) rotate(-10.73)"/>
            <rect class="cls-9" x="106.57" y="81.32" width="47.88" height=".79" transform="translate(-12.93 25.72) rotate(-10.73)"/>
            <path class="cls-22" d="m109.65,67.57c.43.87,1.09,1.64,1.95,2.22l3.16-4.75-5.12,2.53Z"/>
            <path class="cls-22" d="m109.07,64.68c-.06,1,.14,2,.58,2.9l5.12-2.53-5.7-.36Z"/>
            <path class="cls-22" d="m112.23,59.92c-.87.43-1.64,1.09-2.22,1.95l4.75,3.16-2.53-5.12Z"/>
            <path class="cls-10" d="m115.13,59.34l-.36,5.7,3.17-4.75c-.87-.58-1.83-.88-2.8-.95Z"/>
            <path class="cls-10" d="m112.23,59.92l2.53,5.12.36-5.7c-1-.06-2,.14-2.9.58Z"/>
            <path class="cls-22" d="m110.01,61.87c-.58.87-.88,1.83-.95,2.8l5.7.36-4.75-3.16Z"/>
            <path class="cls-8" d="m111.6,69.79c.87.58,1.83.88,2.8.95l.36-5.7-3.16,4.75Z"/>
            <path class="cls-7" d="m114.76,65.04l4.75,3.17c.58-.87.88-1.83.95-2.8l-5.7-.36Z"/>
            <path class="cls-10" d="m117.93,60.29l-3.17,4.75,5.12-2.53c-.43-.87-1.09-1.64-1.95-2.22Z"/>
            <path class="cls-7" d="m119.88,62.51l-5.12,2.53,5.7.36c.06-1-.14-2-.58-2.9Z"/>
            <path class="cls-8" d="m114.76,65.04l-.36,5.7c1,.06,2-.14,2.9-.58l-2.53-5.12Z"/>
            <path class="cls-8" d="m114.76,65.04l2.53,5.12c.87-.43,1.64-1.09,2.22-1.95l-4.75-3.17Z"/>
            <polygon class="cls-10" points="140.68 74.82 136.03 70.15 131.54 75.45 130.93 74.94 135.99 68.98 140.44 73.46 143.96 65.97 144.68 66.31 140.68 74.82"/>
            <polygon class="cls-22" points="136.63 75.68 131.31 70.28 131.88 69.73 136.48 74.39 140.32 67.97 146.17 68.38 146.12 69.17 140.75 68.79 136.63 75.68"/>
            <rect class="cls-9" x="127.72" y="55.73" width="16.09" height="9.34" transform="translate(-8.87 26.33) rotate(-10.73)"/>
            <path class="cls-10" d="m141.18,58.59c0-.3,0-.59-.02-.89-.02-.3-.03-.58-.06-.87-.03-.29-.07-.57-.1-.85l-.07-.03c-.23.17-.46.33-.68.49-.23.16-.47.3-.69.45-.23.15-.47.27-.7.4-.23.13-.48.24-.71.35l.93.57c-.42.79-.92,1.54-1.49,2.24-.57.7-1.22,1.33-1.93,1.9-.72.56-1.5,1.04-2.34,1.42-.84.38-1.73.67-2.65.79v.06c.95-.01,1.88-.21,2.79-.5.9-.29,1.78-.7,2.6-1.2.82-.51,1.59-1.1,2.29-1.78.7-.68,1.33-1.43,1.88-2.23l.93.57c.01-.31.04-.61.03-.91Z"/>
            <path class="cls-15" d="m104.28,55.53c.07.36-.17.71-.53.78s-.71-.17-.78-.53.17-.71.53-.78.71.17.78.53Z"/>
            <path class="cls-23" d="m105.97,55.21c.07.36-.17.71-.53.78s-.71-.17-.78-.53.17-.71.53-.78.71.17.78.53Z"/>
            <path class="cls-28" d="m107.66,54.89c.07.36-.17.71-.53.78s-.71-.17-.78-.53.17-.71.53-.78.71.17.78.53Z"/>
          </g>
          <g>
            <rect class="cls-13" x="200.65" y="87.26" width="43.29" height="65" rx="4.25" ry="4.25" transform="translate(34.76 288.85) rotate(-70.35)"/>
            <rect class="cls-10" x="195.64" y="101.2" width="49.63" height="35.82" transform="translate(52.88 -67.19) rotate(19.65)"/>
            <circle class="cls-29" cx="192.99" cy="113.58" r=".7"/>
            <circle class="cls-29" cx="248.1" cy="128.98" r="2.84"/>
            <path class="cls-29" d="m196.76,104.6l-2.24,6.26c-.1.28-.4.42-.68.32h0c-.28-.1-.42-.4-.32-.68l2.24-6.26c.1-.28.4-.42.68-.32h0c.28.1.42.4.32.68Z"/>
            <rect class="cls-4" x="202.97" y="106.74" width="35.19" height="24.09" transform="translate(52.78 -67.25) rotate(19.65)"/>
            <rect class="cls-9" x="206.53" y="107.26" width="35.19" height="2.92" transform="translate(49.6 -69.03) rotate(19.65)"/>
            <rect class="cls-9" x="199.03" y="129.65" width="35.19" height=".58" transform="translate(56.3 -65.27) rotate(19.65)"/>
            <path class="cls-15" d="m209.73,103.58c-.09.25-.37.39-.62.3s-.39-.37-.3-.62.37-.39.62-.3.39.37.3.62Z"/>
            <path class="cls-23" d="m210.92,104.01c-.09.25-.37.39-.62.3s-.39-.37-.3-.62.37-.39.62-.3.39.37.3.62Z"/>
            <path class="cls-28" d="m212.11,104.43c-.09.25-.37.39-.62.3s-.39-.37-.3-.62.37-.39.62-.3.39.37.3.62Z"/>
            <rect class="cls-8" x="229.63" y="126.75" width="2.25" height="4.78" transform="translate(404.66 328.34) rotate(-160.35)"/>
            <rect class="cls-7" x="227.37" y="120.84" width="2.25" height="9.73" transform="translate(401.41 320.91) rotate(-160.35)"/>
            <rect class="cls-22" x="224.7" y="117.26" width="2.25" height="12.28" transform="translate(397.01 315.53) rotate(-160.35)"/>
            <rect class="cls-10" x="220.8" y="120.79" width="2.25" height="7.5" transform="translate(389.05 316.45) rotate(-160.35)"/>
            <line class="cls-17" x1="232.27" y1="132.22" x2="218.15" y2="127.17"/>
            <rect class="cls-9" x="207.59" y="108.42" width="6.5" height="1.76" transform="translate(49.03 -64.53) rotate(19.65)"/>
            <rect class="cls-9" x="206.22" y="112.96" width="14.58" height="1.76" transform="translate(50.71 -65.16) rotate(19.65)"/>
            <rect class="cls-9" x="205.09" y="116.14" width="14.58" height="1.76" transform="translate(51.71 -64.6) rotate(19.65)"/>
            <rect class="cls-9" x="203.95" y="119.32" width="14.58" height="1.76" transform="translate(52.71 -64.03) rotate(19.65)"/>
            <rect class="cls-9" x="202.82" y="122.49" width="14.58" height="1.76" transform="translate(53.71 -63.46) rotate(19.65)"/>
          </g>
          <g>
            <path class="cls-14" d="m77.05,177.43l-4.68-2.73c-.04-.11-.07-.21-.11-.32-2.26-6.01-8.96-9.06-14.98-6.8l-17.14,6.43.88,2.34c3.31,8.82,13.11,12.84,22.24,10.75l.2-.08,5.95,3.47,7.63-13.07Z"/>
            <path class="cls-14" d="m37.04,160.78h0c-.5,1.32-1.97,1.99-3.3,1.49l-7.81-2.94c-1.32-.5-1.99-1.97-1.49-3.3h0c.5-1.32,1.97-1.99,3.3-1.49l7.81,2.94c1.32.5,1.99,1.97,1.49,3.3Z"/>
            <rect class="cls-3" x="32.77" y="134.74" width="28.6" height="50" rx="3.03" ry="3.03" transform="translate(-53.12 26.72) rotate(-20.57)"/>
            <rect class="cls-10" x="27.7" y="146.48" width="37.41" height="23" transform="translate(178.01 59.02) rotate(69.43)"/>
            <circle class="cls-9" cx="35.6" cy="139.81" r=".54"/>
            <path class="cls-9" d="m56.47,178.57c.42,1.13-.15,2.39-1.28,2.81s-2.39-.15-2.81-1.28.15-2.39,1.28-2.81,2.39.15,2.81,1.28Z"/>
            <path class="cls-9" d="m42.75,137.56l-4.79,1.8c-.21.08-.45-.03-.52-.24h0c-.08-.21.03-.45.24-.52l4.79-1.8c.21-.08.45.03.52.24h0c.08.21-.03.45-.24.52Z"/>
            <path class="cls-14" d="m40.14,175.23h.45c.97,0,1.76.79,1.76,1.76v4.51c0,1.21-.98,2.19-2.19,2.19h-.03c-1.21,0-2.19-.98-2.19-2.19v-4.08c0-1.21.98-2.19,2.19-2.19Z" transform="translate(-143.22 165.6) rotate(-73.06)"/>
            <path class="cls-14" d="m43.23,175.02h0c-.42,1.13-1.75,1.68-2.95,1.22l-6.8-2.56c-1.21-.45-1.84-1.74-1.42-2.87l.31-.82c.25-.67,1.04-1,1.76-.73l7.89,2.17c1.21.45,1.62,2.46,1.2,3.58Z"/>
            <path class="cls-14" d="m40.76,168.34h0c-.42,1.13-1.67,1.7-2.78,1.29l-6.26-2.36c-1.11-.42-1.67-1.67-1.24-2.8l.31-.82c.25-.67,1-1.02,1.66-.77l7.21,1.98c1.11.42,1.53,2.36,1.11,3.49Z"/>
            <path class="cls-14" d="m71.12,173.95l-12.66-16.82c-.67-.89-1.93-1.07-2.82-.4-2.13,1.6-2.55,4.63-.95,6.75l6.39,8.48c-.55,1.53-.32,3.74.77,5.85,1.63,3.15,4.53,4.89,6.49,3.88.94-.49,1.49-1.52,1.63-2.81l.51-.38c1.44-1.08,1.72-3.12.64-4.56Z"/>
            <rect class="cls-10" x="64.75" y="180.6" width="16.81" height="6.92" transform="translate(-122.68 154.42) rotate(-59.72)"/>
            <circle class="cls-2" cx="45.52" cy="155.61" r="6.96"/>
            <path class="cls-10" d="m50.6,155.76c.03-.35,0-.71-.14-1.07-.54-1.44-2.43-1.88-3.67-.75-.39-1.05-1.49-1.79-3-1.22-1.42.53-2.04,2.13-1.27,3.56-.07-.2-.58.03-.7.1-.28.16-.51.45-.62.75-.16.43-.08.88.09,1.29.04.09.31.71.43.66l8.87-3.33Z"/>
          </g>
          <g>
            <path class="cls-27" d="m155.89,165.6l-9.54.19s-.87,40.01-13.31,58.56l15.84,9.67,18.38-9.67s-13.89-36.82-11.36-58.75Z"/>
            <path class="cls-21" d="m174.91,206.08l-13.56-6c-1.63,5.1-5.75,8.73-10.58,8.73s-8.94-3.62-10.58-8.71l-13.49,5.95v-.07s-9.91,3.64-11.33,10.07c-.87,3.96-2.04,20.44-3.03,36.65h76.67c-.99-16.22-2.16-32.7-3.03-36.65-1.28-5.82-9.52-9.35-11.07-9.97Z"/>
            <g>
              <g>
                <polygon class="cls-21" points="134.82 202.53 144.22 215.55 150.86 208.09 142.27 197.67 134.82 202.53"/>
                <polygon class="cls-2" points="144.25 214.89 135.46 202.76 134.79 203.25 144.18 216.21 151.17 208.37 150.55 207.82 144.25 214.89"/>
              </g>
              <g>
                <polygon class="cls-21" points="150.49 208.09 157.14 215.55 166.54 202.53 159.08 197.67 150.49 208.09"/>
                <polygon class="cls-2" points="157.1 214.89 150.8 207.82 150.18 208.37 157.17 216.21 166.57 203.25 165.89 202.76 157.1 214.89"/>
              </g>
            </g>
            <g>
              <polygon class="cls-27" points="119.67 245.35 151.19 252.32 151.29 245.46 120.89 240.02 119.67 245.35"/>
              <path class="cls-27" d="m112.26,245.81s-.01,0-.03,0c.02,0,.03,0,.03,0Z"/>
              <path class="cls-27" d="m118.04,232.05c-3.99-.44-6.23,1.02-6.64,2.11-.41,1.09,1.02,2.4,1.02,2.4,0,0-1.77.5-1.74,2.21.02,1.34,1.73,1.54,1.73,1.54,0,0-2.73-.23-2.03,2.29.37,1.34,1.65,1.18,1.85,1.15.02,0,.03,0,.03,0,0,0-.01,0-.03,0-.26.05-2.2.47-1.67,2.54.54,2.11,5.73,3.05,7.8,1.44,2.07-1.62,4.84-7.57,4.12-10.29,0,0-.44-4.96-4.44-5.4Z"/>
            </g>
            <path class="cls-5" d="m186.34,249.56c-7.47-3.36-62.28-11.63-62.28-11.63l-1.97,15.57s56.64,7.85,62.89,7.48c6.25-.37,7.39-8.72,1.36-11.43Z"/>
            <g>
              <polygon class="cls-27" points="150.95 246.86 150.67 253.71 182.52 248.47 181.6 243.08 150.95 246.86"/>
              <path class="cls-27" d="m189.93,249.34s-.03,0-.03,0c0,0,.01,0,.03,0Z"/>
              <path class="cls-27" d="m189.94,245.89s1.72-.11,1.82-1.44c.13-1.71-1.62-2.3-1.62-2.3,0,0,1.5-1.24,1.15-2.34-.35-1.11-2.5-2.7-6.51-2.47-4.01.23-4.72,5.15-4.72,5.15-.87,2.68,1.57,8.77,3.55,10.5,1.98,1.73,7.21,1.07,7.87-1.01.64-2.04-1.27-2.57-1.53-2.63-.02,0-.03,0-.03,0,0,0,.01,0,.03,0,.2.05,1.47.27,1.91-1.05.83-2.48-1.9-2.4-1.9-2.4Z"/>
            </g>
            <path class="cls-1" d="m115.73,249.04c-6.17,2.38-5.49,10.78.73,11.49,6.22.7,64.46-6.72,64.46-6.72l-1.12-15.66s-56.43,7.95-64.07,10.89Z"/>
            <path class="cls-27" d="m154.87,127.57c-16.99-1.72-32.27,11.87-34.14,30.34-1.87,18.47,10.4,34.84,27.38,36.55,16.99,1.72,32.27-11.87,34.14-30.34,1.87-18.47-10.39-34.84-27.38-36.55Z"/>
            <g>
              <g>
                <path class="cls-27" d="m119.61,151.69c-2.06-.21-3.93,1.66-4.18,4.17-.25,2.51,1.21,4.72,3.26,4.92,2.05.21,3.93-1.66,4.18-4.17.25-2.51-1.21-4.72-3.26-4.92Z"/>
                <path class="cls-27" d="m184.59,158.26c-2.06-.21-3.93,1.66-4.18,4.17-.25,2.51,1.21,4.72,3.26,4.92,2.05.21,3.93-1.66,4.18-4.17.25-2.51-1.21-4.72-3.26-4.92Z"/>
              </g>
              <g>
                <path class="cls-27" d="m121.01,156.14c-1.97-.2-3.76,1.59-4,3.99-.24,2.4,1.15,4.51,3.12,4.71,1.96.2,3.76-1.59,4-3.99.24-2.4-1.16-4.51-3.12-4.71Z"/>
                <path class="cls-27" d="m183.15,162.42c-1.97-.2-3.76,1.59-4,3.99-.24,2.4,1.15,4.51,3.12,4.71,1.97.2,3.76-1.59,4-3.99.24-2.4-1.15-4.51-3.12-4.71Z"/>
              </g>
            </g>
            <polygon class="cls-12" points="148.05 168.48 152.35 157.55 151.48 157.21 146.73 169.29 151.67 169.79 151.77 168.86 148.05 168.48"/>
            <path class="cls-26" d="m159.19,180.61c-9.34-6.9-19.08-1.98-19.17-1.93-.23.12-.32.4-.2.63.06.12.17.21.3.24.11.03.23.02.33-.04.09-.05,9.33-4.7,18.19,1.85.21.15.5.11.65-.1.15-.21.11-.5-.1-.65Z"/>
            <g>
              <path class="cls-26" d="m143.02,142.94c-1.3.08-2.44.72-3.38,1.9l1.22.97c.66-.83,1.4-1.26,2.25-1.32,1.84-.12,3.61,1.56,3.63,1.58l1.09-1.12c-.09-.09-2.27-2.18-4.81-2.02Z"/>
              <path class="cls-26" d="m163.61,145.02h-.04c-2.44-.65-4.97.95-5.07,1.02l.84,1.31s2.06-1.29,3.84-.83h.03c.82.23,1.46.8,1.94,1.75l1.39-.71c-.69-1.35-1.67-2.2-2.93-2.54Z"/>
            </g>
            <path class="cls-24" d="m168.86,128.72c-16.63-5.26-30.02-6.32-39.35,6.72-14.47,20.21,6.15-.19,9.59-2.4,0,0,7.45,3.91,16.65,5.88.63.14-5.55-4.88-4.93-4.59,1.45.65,7.77,3.68,13.39,5.73,6.63,2.42,4.9,1.63,11.73,3.58,0,0,3.39,5.85,7.08,8.95,0,0-1.66-19.91-14.16-23.86Z"/>
            <path class="cls-11" d="m85.34,148.84c.81,1.88,2.21,2.7,3.74,3.04-.08.6-.09,1.19,0,1.73.38,2.68,2.86,3.3,5.08,3.4.04.78.23,1.57.57,2.3.51,1.11,1.31,1.96,2.27,2.43.2,1.72,1.38,3.27,3.34,4.32.18.1.37.14.56.14.43,0,.84-.23,1.05-.63.31-.58.09-1.3-.49-1.61-.96-.51-1.61-1.15-1.92-1.84,1.77-.11,4.36-.63,4.88-2.14.24-.7.11-1.42-.35-1.98-.83-1.01-2.61-1.3-3.55-1.18-1.31.17-2.46,1.08-3.08,2.33-.22-.23-.41-.52-.57-.85-.19-.42-.31-.87-.34-1.33.28-.01.54-.02.77-.02.14,0,.29,0,.43,0,1.17,0,2.49.02,3.72-.43.4-.15,1.74-.72,2.2-1.93.23-.62.18-1.29-.15-1.9-.92-1.7-3.4-1.56-4.22-1.51-1.53.09-3.54,1.01-4.42,2.62-.15.27-.27.54-.37.82-1.85-.04-2.94-.37-3.08-1.36-.05-.36-.04-.76.02-1.18.55,0,1.09-.03,1.6-.06.5-.03.98-.05,1.41-.05h0c1.1,0,6.22-1.2,7.61-3.74.55-1.01.5-2.13-.16-3.16-1.89-2.95-7.64-.41-8.78.13-1.4.67-2.7,2.42-3.45,4.35-1-.21-1.73-.68-2.16-1.67-.71-1.64.45-3.14,1.54-4.1,2.76-2.44,7.99-3.89,10.87-2.2.57.33,1.3.14,1.63-.42.33-.57.14-1.3-.42-1.63-3.9-2.29-10.21-.58-13.66,2.47-2.35,2.07-3.13,4.57-2.15,6.83Zm6.91.85c.55-1.1,1.27-2.02,1.91-2.32,2.52-1.2,5.31-1.68,5.75-1,.24.37.17.56.08.73-.74,1.36-4.7,2.5-5.52,2.5h0c-.49,0-1,.03-1.53.05-.23.01-.46.02-.68.03Zm5,4.89c.54-.57,1.49-.97,2.19-1.01,1.42-.08,1.86.17,1.96.25-.1.13-.38.34-.76.48-.82.3-1.87.29-2.88.29-.16,0-.31,0-.46,0h-.05Zm2.7,5.12c.26-.28.58-.47.9-.51.24-.03.63.02.94.11-.48.17-1.19.32-1.84.4Z"/>
            <path class="cls-26" d="m164.36,182.76c-.26,0-.47-.2-.48-.46-.15-2.59-2.75-6.94-2.78-6.98-.14-.23-.06-.53.17-.67.23-.14.53-.06.67.17.11.19,2.76,4.6,2.92,7.43.02.27-.19.5-.46.51,0,0-.02,0-.03,0Z"/>
            <path class="cls-26" d="m136.19,180.7s-.02,0-.03,0c-.27-.02-.47-.24-.46-.51.16-2.83,2.8-7.24,2.92-7.43.14-.23.44-.3.67-.17.23.14.3.44.17.67-.03.04-2.63,4.4-2.78,6.98-.01.26-.23.46-.48.46Z"/>
            <g>
              <path class="cls-26" d="m142.15,163.85c-.36,0-.72-.02-1.09-.07-4.89-.59-8.4-5.05-7.8-9.95l.53-4.42c.08-.65.4-1.22.92-1.63.51-.4,1.15-.58,1.8-.5l12.91,1.56c1.34.16,2.29,1.38,2.13,2.71l-.53,4.42c-.29,2.37-1.48,4.49-3.36,5.96-1.59,1.25-3.51,1.91-5.5,1.91Zm-5.94-15.12c-.22,0-.43.07-.6.21-.21.16-.34.39-.37.66l-.53,4.42c-.49,4.1,2.44,7.83,6.53,8.33,1.98.24,3.94-.31,5.52-1.54,1.57-1.23,2.57-3.01,2.81-4.99l.53-4.42c.06-.54-.32-1.03-.86-1.09l-12.91-1.56s-.08,0-.12,0Z"/>
              <path class="cls-26" d="m164.72,166.72c-.36,0-.72-.02-1.09-.07l-.33-.04c-4.89-.59-8.4-5.05-7.8-9.95l.57-4.7c.08-.65.4-1.22.92-1.63.51-.4,1.15-.58,1.8-.5l13.24,1.6c1.33.16,2.29,1.38,2.13,2.71l-.57,4.7c-.29,2.37-1.48,4.49-3.36,5.96-1.59,1.25-3.51,1.91-5.5,1.91Zm-.91-1.51c1.98.24,3.94-.31,5.52-1.54,1.57-1.23,2.57-3.01,2.81-4.99l.57-4.7c.06-.54-.32-1.03-.86-1.09l-13.24-1.6c-.26-.03-.52.04-.72.2s-.34.39-.37.66l-.57,4.7c-.49,4.1,2.44,7.83,6.53,8.33l.33.04Z"/>
              <path class="cls-26" d="m155.8,157.3c-2.57-1.98-5.11-.83-5.22-.78l-.59-1.24c.14-.06,3.39-1.57,6.65.94l-.84,1.09Z"/>
            </g>
            <path class="cls-11" d="m168.14,160.42c-.09,0-.19-.02-.28-.06l-7.89-3.29c-.37-.15-.55-.58-.39-.95s.58-.55.95-.39l7.89,3.29c.37.15.55.58.39.95-.12.28-.39.45-.67.45Z"/>
            <path class="cls-11" d="m136.84,157.18c-.32,0-.61-.22-.68-.54-.08-.38.15-.75.53-.84l7.96-1.8c.38-.08.75.15.84.53.08.38-.15.75-.53.84l-7.96,1.8c-.05.01-.1.02-.15.02Z"/>
          </g>
        </g>
      </g>
    </g>
  </g>
</svg>