<?xml version="1.0" encoding="UTF-8"?>
<svg id="_レイヤー_2" data-name="レイヤー 2" xmlns="http://www.w3.org/2000/svg" viewBox="0 0 1139.45 586.48">
  <defs>
    <style>
      .cls-1 {
        fill: #9bc1bc;
      }
    </style>
  </defs>
  <g id="_レイヤー_2-2" data-name="レイヤー 2">
    <g>
      <path d="M112.76,350.29H247.83c2.76,0,5,2.24,5,5v98.17c0,2.76-2.24,5-5,5H5c-2.76,0-5-2.24-5-5V14.12c0-2.76,2.24-5,5-5H102.76c2.76,0,5,2.24,5,5V345.29c0,2.76,2.24,5,5,5Z"/>
      <path d="M297.76,110.41c17.28-34.77,41.38-61.87,72.3-81.29C400.96,9.71,436.01,0,475.19,0c48,0,89.09,14.08,123.28,42.25,32.7,26.94,55.03,63.26,66.99,108.95,.83,3.17-1.57,6.27-4.84,6.27h-98.65c-1.94,0-3.72-1.13-4.53-2.89-7.98-17.35-18.98-30.68-32.99-39.99-14.79-9.81-31.59-14.72-50.41-14.72-30.34,0-54.92,11.74-73.74,35.2-18.82,23.47-28.23,54.84-28.23,94.09s9.41,70.63,28.23,94.09c18.81,23.47,43.39,35.2,73.74,35.2,18.81,0,35.62-4.9,50.41-14.72,14.01-9.3,25.01-22.63,32.99-39.99,.81-1.77,2.59-2.89,4.53-2.89h98.65c3.27,0,5.67,3.1,4.84,6.27-11.96,45.68-34.3,81.89-66.99,108.63-34.19,27.95-75.28,41.92-123.28,41.92-39.17,0-74.22-9.7-105.13-29.12-30.92-19.41-55.01-46.41-72.3-80.97-17.28-34.57-25.92-74.03-25.92-118.42s8.64-83.95,25.92-118.74Z"/>
      <path d="M12.19,576.75h15.69v9.24H.22v-49.16H12.19v39.92Z"/>
      <path d="M50.15,536.83v49.16h-11.98v-49.16h11.98Z"/>
      <path d="M95.39,536.83v9.59h-20.03v10.37h14.99v9.31h-14.99v19.89h-11.98v-49.16h32.01Z"/>
      <path d="M118.22,546.42v9.94h16.04v9.25h-16.04v10.79h18.14v9.59h-30.11v-49.16h30.11v9.59h-18.14Z"/>
      <path d="M169.21,548.35c2.1-3.8,5.03-6.77,8.79-8.89,3.76-2.12,8.02-3.19,12.78-3.19,5.84,0,10.83,1.54,14.99,4.62,4.15,3.08,6.93,7.28,8.33,12.61h-13.17c-.98-2.05-2.37-3.62-4.17-4.69-1.8-1.07-3.84-1.61-6.13-1.61-3.69,0-6.68,1.28-8.96,3.85-2.29,2.57-3.43,6-3.43,10.29s1.14,7.73,3.43,10.29c2.29,2.57,5.28,3.85,8.96,3.85,2.29,0,4.33-.54,6.13-1.61,1.8-1.07,3.19-2.64,4.17-4.69h13.17c-1.4,5.32-4.18,9.51-8.33,12.57-4.16,3.06-9.15,4.59-14.99,4.59-4.76,0-9.02-1.06-12.78-3.19-3.76-2.12-6.69-5.08-8.79-8.86-2.1-3.78-3.15-8.1-3.15-12.96s1.05-9.19,3.15-12.99Z"/>
      <path d="M236.54,583.26c-3.85-2.15-6.91-5.15-9.17-9-2.27-3.85-3.4-8.18-3.4-12.99s1.13-9.13,3.4-12.96c2.26-3.83,5.32-6.82,9.17-8.96,3.85-2.15,8.09-3.22,12.71-3.22s8.86,1.08,12.71,3.22c3.85,2.15,6.89,5.14,9.1,8.96,2.22,3.83,3.33,8.15,3.33,12.96s-1.12,9.14-3.36,12.99c-2.24,3.85-5.28,6.85-9.1,9-3.83,2.15-8.05,3.22-12.68,3.22s-8.86-1.07-12.71-3.22Zm22.13-11.63c2.36-2.61,3.54-6.07,3.54-10.37s-1.18-7.81-3.54-10.4c-2.36-2.59-5.5-3.89-9.42-3.89s-7.13,1.29-9.49,3.85c-2.36,2.57-3.54,6.05-3.54,10.43s1.18,7.81,3.54,10.4c2.36,2.59,5.52,3.89,9.49,3.89s7.06-1.31,9.42-3.92Z"/>
      <path d="M341.28,536.83v49.16h-11.98v-29.48l-11,29.48h-9.67l-11.07-29.55v29.55h-11.98v-49.16h14.15l13.8,34.04,13.66-34.04h14.08Z"/>
      <path d="M410.12,536.83v49.16h-11.98v-29.48l-11,29.48h-9.66l-11.07-29.55v29.55h-11.98v-49.16h14.15l13.8,34.04,13.66-34.04h14.08Z"/>
      <path d="M435.05,536.83v29.41c0,2.94,.72,5.21,2.17,6.79,1.45,1.59,3.57,2.38,6.37,2.38s4.95-.79,6.44-2.38c1.49-1.59,2.24-3.85,2.24-6.79v-29.41h11.98v29.34c0,4.39-.93,8.1-2.8,11.14-1.87,3.04-4.38,5.32-7.53,6.86-3.15,1.54-6.67,2.31-10.54,2.31s-7.34-.76-10.4-2.28c-3.06-1.52-5.47-3.8-7.25-6.86-1.78-3.06-2.66-6.78-2.66-11.17v-29.34h11.98Z"/>
      <path d="M521.19,585.99h-11.98l-20.03-30.33v30.33h-11.98v-49.16h11.98l20.03,30.46v-30.46h11.98v49.16Z"/>
      <path d="M546.41,536.83v49.16h-11.98v-49.16h11.98Z"/>
      <path d="M560.76,548.35c2.1-3.8,5.03-6.77,8.79-8.89,3.76-2.12,8.02-3.19,12.78-3.19,5.84,0,10.83,1.54,14.99,4.62,4.16,3.08,6.93,7.28,8.33,12.61h-13.17c-.98-2.05-2.37-3.62-4.17-4.69-1.8-1.07-3.84-1.61-6.13-1.61-3.69,0-6.68,1.28-8.96,3.85-2.29,2.57-3.43,6-3.43,10.29s1.14,7.73,3.43,10.29c2.29,2.57,5.28,3.85,8.96,3.85,2.29,0,4.33-.54,6.13-1.61,1.8-1.07,3.19-2.64,4.17-4.69h13.17c-1.4,5.32-4.18,9.51-8.33,12.57-4.16,3.06-9.15,4.59-14.99,4.59-4.76,0-9.02-1.06-12.78-3.19-3.76-2.12-6.69-5.08-8.79-8.86-2.1-3.78-3.15-8.1-3.15-12.96s1.05-9.19,3.15-12.99Z"/>
      <path d="M648.17,577.31h-18.35l-2.94,8.68h-12.54l17.79-49.16h13.87l17.79,49.16h-12.68l-2.94-8.68Zm-3.08-9.24l-6.09-18-6.02,18h12.12Z"/>
      <path d="M709.1,536.83v9.59h-13.03v39.57h-11.98v-39.57h-13.03v-9.59h38.03Z"/>
      <path d="M731.65,536.83v49.16h-11.98v-49.16h11.98Z"/>
      <path d="M755.42,583.26c-3.85-2.15-6.91-5.15-9.17-9-2.27-3.85-3.4-8.18-3.4-12.99s1.13-9.13,3.4-12.96c2.26-3.83,5.32-6.82,9.17-8.96,3.85-2.15,8.09-3.22,12.71-3.22s8.86,1.08,12.71,3.22c3.85,2.15,6.89,5.14,9.1,8.96,2.22,3.83,3.33,8.15,3.33,12.96s-1.12,9.14-3.36,12.99c-2.24,3.85-5.28,6.85-9.1,9-3.83,2.15-8.05,3.22-12.68,3.22s-8.86-1.07-12.71-3.22Zm22.13-11.63c2.36-2.61,3.54-6.07,3.54-10.37s-1.18-7.81-3.54-10.4c-2.36-2.59-5.5-3.89-9.42-3.89s-7.13,1.29-9.49,3.85c-2.36,2.57-3.54,6.05-3.54,10.43s1.18,7.81,3.54,10.4c2.36,2.59,5.52,3.89,9.49,3.89s7.06-1.31,9.42-3.92Z"/>
      <path d="M848.46,585.99h-11.98l-20.03-30.33v30.33h-11.98v-49.16h11.98l20.03,30.46v-30.46h11.98v49.16Z"/>
      <g>
        <path class="cls-1" d="M913.61,560.47c-1.31,2.36-3.32,4.26-6.02,5.71-2.71,1.45-6.07,2.17-10.08,2.17h-7.42v17.65h-11.98v-49.16h19.4c3.92,0,7.24,.68,9.95,2.03,2.71,1.36,4.74,3.22,6.09,5.6,1.35,2.38,2.03,5.11,2.03,8.19,0,2.85-.65,5.45-1.96,7.81Zm-11.91-3.26c1.12-1.07,1.68-2.59,1.68-4.55s-.56-3.48-1.68-4.55c-1.12-1.07-2.83-1.61-5.11-1.61h-6.51v12.33h6.51c2.29,0,3.99-.54,5.11-1.61Z"/>
        <path class="cls-1" d="M938.33,576.75h15.69v9.24h-27.66v-49.16h11.98v39.92Z"/>
        <path class="cls-1" d="M976.08,536.83v29.41c0,2.94,.72,5.21,2.17,6.79,1.45,1.59,3.57,2.38,6.37,2.38s4.95-.79,6.44-2.38c1.49-1.59,2.24-3.85,2.24-6.79v-29.41h11.98v29.34c0,4.39-.93,8.1-2.8,11.14-1.87,3.04-4.38,5.32-7.53,6.86-3.15,1.54-6.67,2.31-10.54,2.31s-7.34-.76-10.4-2.28c-3.06-1.52-5.47-3.8-7.25-6.86-1.77-3.06-2.66-6.78-2.66-11.17v-29.34h11.98Z"/>
        <path class="cls-1" d="M1026.36,584.73c-2.85-1.17-5.12-2.89-6.83-5.18-1.71-2.29-2.6-5.04-2.7-8.26h12.75c.19,1.82,.82,3.21,1.89,4.17s2.47,1.44,4.2,1.44,3.17-.41,4.2-1.23c1.03-.82,1.54-1.95,1.54-3.4,0-1.21-.41-2.22-1.23-3.01-.82-.79-1.82-1.45-3.01-1.96-1.19-.51-2.88-1.1-5.08-1.75-3.18-.98-5.77-1.96-7.77-2.94-2.01-.98-3.74-2.43-5.18-4.34-1.45-1.91-2.17-4.41-2.17-7.49,0-4.58,1.66-8.16,4.97-10.75,3.31-2.59,7.63-3.89,12.96-3.89s9.78,1.3,13.1,3.89c3.31,2.59,5.09,6.2,5.32,10.82h-12.96c-.09-1.59-.68-2.84-1.75-3.75s-2.45-1.37-4.13-1.37c-1.45,0-2.62,.38-3.5,1.16s-1.33,1.88-1.33,3.33c0,1.59,.75,2.83,2.24,3.71,1.49,.89,3.83,1.84,7,2.87,3.17,1.07,5.75,2.1,7.74,3.08,1.98,.98,3.7,2.41,5.15,4.27,1.45,1.87,2.17,4.27,2.17,7.21s-.71,5.35-2.14,7.63c-1.42,2.29-3.49,4.11-6.2,5.46-2.71,1.36-5.91,2.03-9.59,2.03s-6.82-.58-9.67-1.75Z"/>
      </g>
      <path class="cls-1" d="M1134.45,296.7h-143.95c-2.76,0-5,2.24-5,5v151.59c0,2.76-2.24,5-5,5h-97.52c-2.76,0-5-2.24-5-5v-151.59c0-2.76-2.24-5-5-5h-143.95c-2.76,0-5-2.24-5-5v-98.38c0-2.76,2.24-5,5-5h143.95c2.76,0,5-2.24,5-5V31.29c0-2.76,2.24-5,5-5h97.52c2.76,0,5,2.24,5,5V183.32c0,2.76,2.24,5,5,5h143.95c2.76,0,5,2.24,5,5v98.38c0,2.76-2.24,5-5,5Z"/>
    </g>
  </g>
</svg>