<?xml version="1.0" encoding="UTF-8"?>
<svg id="_レイヤー_2" data-name="レイヤー 2" xmlns="http://www.w3.org/2000/svg" viewBox="0 0 1366 648.38">
  <defs>
    <style>
      .cls-1 {
        fill: #9bc1bc;
      }
    </style>
  </defs>
  <g id="_レイヤー_1-2" data-name="レイヤー 1">
    <g>
      <g>
        <path class="cls-1" d="M166.54,27.19c-.59-1.97-1.42-4.07-2.46-6.3-.93-2.24-2.24-4.36-3.94-6.4-1.71-2.04-3.35-3.74-4.93-5.12-1.58-1.38-2.83-2.07-3.74-2.07-.66-.13-1.28-.3-1.87-.49-.59-.2-.89-.69-.89-1.48,0-.39-.69-.86-2.07-1.38-1.38-.52-2.93-1.08-4.63-1.67-1.71-.59-3.15-1.15-4.33-1.67h-5.02c-2.7,0-5.22-.07-7.59-.2-3.15-.27-5.56-.39-7.19-.39s-2.99,.36-4.04,1.08c-1.05,.72-2.31,1.94-3.74,3.65-2.36,1.97-3.81,3.74-4.33,5.32-.53,1.58-.33,2.69,.59,3.35,.79,.52,.79,1.61,0,3.25-.79,1.65-1.91,4.5-3.35,8.57-.93,2.1-2.07,5.02-3.45,8.77-1.38,3.74-2.73,7.75-4.04,12.02-1.32,4.27-2.5,8.37-3.55,12.31-1.58,3.15-2.73,5.84-3.45,8.08-.73,2.24-1.42,3.87-2.07,4.93,0,.52-.24,1.48-.69,2.86-.46,1.38-.96,3.18-1.48,5.42-.53,2.49-1.18,4.46-1.97,5.91-.79,1.45-1.58,2.17-2.36,2.17,0,.92-.17,1.87-.49,2.86-.33,.99-.49,2.2-.49,3.65,0,1.05-.39,2.73-1.18,5.02-.79,2.3-1.84,5.94-3.15,10.94-2.5,7.49-4.28,13.03-5.32,16.65-.17,.56-.32,1.09-.44,1.61H0l8.87,11.17h62.61c.61,.34,1.26,.52,1.97,.52,1.18,0,2.17-.17,2.96-.49,.79-.33,1.44-1.42,1.97-3.25,.52-2.24,1.31-5.06,2.36-8.47,1.04-3.42,2.13-6.9,3.25-10.44,1.11-3.55,2.17-6.67,3.15-9.36,.99-2.69,1.61-4.31,1.87-4.83,0-.66,.3-1.87,.89-3.65s1.21-3.52,1.87-5.22c.52-1.84,1.34-2.99,2.46-3.45,1.11-.46,3.58-.96,7.39-1.48,2.49,.13,5.62-.33,9.36-1.38,3.74-1.05,7.68-2.36,11.82-3.94,4.14-1.58,7.91-3.15,11.33-4.73,1.83-1.18,3.9-2.69,6.21-4.53,2.3-1.84,4.3-3.81,6.01-5.91,1.58-1.45,3.21-3.15,4.93-5.12,1.7-1.97,3.28-3.94,4.73-5.91,1.44-1.97,2.62-3.71,3.55-5.22,.92-1.51,1.38-2.53,1.38-3.05,0-.66,.33-1.38,.99-2.17,.65-.79,1.38-1.45,2.17-1.97,.52-.66,1.01-1.97,1.48-3.94,.45-1.97,.75-3.94,.89-5.91,.65-3.67,.69-6.5,.1-8.47Zm-13.3,10.54c-1.18,3.62-2.36,6.33-3.55,8.18-.79,1.7-1.67,3.52-2.66,5.42s-1.67,3.18-2.07,3.84c-2.63,3.28-5.26,6.11-7.88,8.47-2.63,2.36-4.6,4.01-5.91,4.93-2.5,1.58-5.09,3.02-7.78,4.33-2.7,1.31-5.36,2.43-7.98,3.35-4.08,1.58-7.88,2.56-11.43,2.96-3.55,.39-5.59,.33-6.11-.2-.53-.66-.66-1.28-.39-1.87,.26-.59,.33-1.61,.2-3.05,.52-1.45,1.93-4.96,4.24-10.54,2.3-5.59,4.63-12.71,6.99-21.38,1.18-3.28,2.62-6.8,4.33-10.54,1.7-3.74,3.01-6.53,3.94-8.37,1.58-3.81,2.86-6.3,3.84-7.49s2.52-2.1,4.63-2.76c2.23-.39,4.3-.59,6.21-.59s4.3,.27,7.19,.79c3.8,1.05,7.09,3.05,9.85,6.01,2.76,2.96,4.46,6.14,5.12,9.56,.65,2.36,.39,5.35-.79,8.96Z"/>
        <path class="cls-1" d="M197.57,123.73c-2.76,2.36-5.95,3.74-9.56,4.14-3.61,.39-7.13-.16-10.54-1.67-3.42-1.51-6.24-3.84-8.47-6.99-2.24-2.89-3.68-6.21-4.34-9.95-.66-3.74-.72-8.64-.2-14.68,.39-5.12,2.03-10.28,4.93-15.47,2.89-5.19,6.4-9.82,10.54-13.89,4.14-4.07,8.24-6.9,12.31-8.47,1.97-1.31,3.65-1.94,5.02-1.87,1.38,.07,3.51,.23,6.4,.49,3.02,.39,5.29,.99,6.8,1.77,1.51,.79,2.72,1.84,3.65,3.15,1.97,1.97,3.28,3.91,3.94,5.81,.66,1.91,.99,3.78,.99,5.62-.53,2.89-2.46,6.4-5.81,10.54-3.35,4.14-7.72,7.52-13.1,10.15-2.89,.92-6.04,1.31-9.46,1.18-3.42-.13-6.24-.99-8.47-2.56-2.5-1.05-4.14-.89-4.93,.49-.79,1.38-1.51,4.7-2.17,9.95-.53,4.99-.13,8.64,1.18,10.94,1.31,2.3,3.08,3.65,5.32,4.04,2.63,.53,4.69,.89,6.21,1.08,1.51,.2,3.38-.36,5.62-1.67,2.1-1.31,3.41-2.07,3.94-2.27,.52-.2,.95-.46,1.28-.79,.33-.33,1.15-1.15,2.46-2.46,.92-.92,1.64-1.61,2.17-2.07,.52-.46,1.11-.69,1.77-.69s1.25,.3,1.77,.89c.52,.59,1.05,1.02,1.58,1.28,1.31,0,1.61,.79,.89,2.36-.72,1.58-2.14,3.45-4.24,5.62-2.1,2.17-4.6,4.17-7.49,6.01Zm-.2-41.77c1.44-.66,2.96-1.61,4.53-2.86,1.58-1.25,2.92-2.63,4.04-4.14,1.11-1.51,1.67-2.79,1.67-3.84,0-1.84-.86-3.38-2.56-4.63-1.71-1.25-4.27-1.41-7.68-.49-1.45,.39-3.09,1.35-4.93,2.86-1.84,1.51-3.58,3.19-5.22,5.02-1.64,1.84-2.96,3.48-3.94,4.93-.99,1.45-1.35,2.3-1.08,2.56,.39,.66,1.51,1.15,3.35,1.48,1.84,.33,3.91,.43,6.21,.3,2.3-.13,4.17-.52,5.62-1.18Z"/>
        <path class="cls-1" d="M230.67,123.73c-1.18-.92-2-1.84-2.46-2.76-.46-.92-.49-2.69-.1-5.32,.39-3.68,.92-6.93,1.58-9.75,.66-2.82,1.44-6.07,2.36-9.75,.26-1.58,1.02-4.27,2.27-8.08,1.25-3.81,2.79-7.95,4.63-12.41,1.84-4.46,3.68-8.7,5.52-12.71,1.84-4.01,3.41-6.99,4.73-8.96,1.05-.79,2.33-1.11,3.84-.99,1.51,.13,2.79,.72,3.84,1.77,1.44,1.18,1.67,3.25,.69,6.21s-2.99,7.59-6.01,13.89c-1.58,3.55-2.76,6.21-3.55,7.98-.79,1.77-1.12,2.83-.99,3.15,.13,.33,.72,.17,1.77-.49,.79-1.44,2.23-3.12,4.33-5.02,2.1-1.9,4.33-3.77,6.7-5.62,2.36-1.84,4.6-3.48,6.7-4.93,2.1-1.44,3.55-2.36,4.33-2.76,1.05-.66,2.27-1.21,3.64-1.67,1.38-.46,2.33-.82,2.86-1.08,3.02-1.44,6.11-1.97,9.26-1.58,3.15,.39,5.12,1.58,5.91,3.55,.13,1.05,.92,2.1,2.36,3.15,.52,0,.85,.39,.99,1.18,0,.92-.69,1.48-2.07,1.67-1.38,.2-3.12,.36-5.22,.49-1.71,.13-3.22,.46-4.53,.99-1.31,.53-2.89,1.18-4.73,1.97-4.99,2.89-9.75,5.71-14.28,8.47-4.53,2.76-8.9,6.44-13.1,11.03-.92,1.05-1.84,2.3-2.76,3.74-.92,1.45-1.91,3.02-2.96,4.73-.66,.66-1.31,2.1-1.97,4.34-.66,2.23-1.22,4.37-1.67,6.4-.46,2.04-.69,3.25-.69,3.64-.79,2.5-1.64,4.33-2.56,5.52-1.58,2.1-2.89,3.15-3.94,3.15s-2.63-1.05-4.73-3.15Z"/>
        <path class="cls-1" d="M316.57,128.86c-3.28,.26-6.4,.07-9.36-.59-2.96-.66-5.45-1.8-7.49-3.45-2.04-1.64-3.45-3.65-4.24-6.01-.92-1.84-1.38-3.12-1.38-3.84s.46-1.35,1.38-1.87c1.05,0,2,.3,2.86,.89,.85,.59,2,1.22,3.45,1.87,1.97,1.71,4.37,2.63,7.19,2.76,2.82,.13,5.42-.33,7.78-1.38,2.36-1.05,3.68-2.36,3.94-3.94,0-.52-.2-1.44-.59-2.76-.39-1.31-.86-2.69-1.38-4.14-3.55-4.99-6.14-9.95-7.78-14.88-1.64-4.93-2.46-8.96-2.46-12.12,0-2.36,.72-4.89,2.17-7.59,1.44-2.69,3.41-4.96,5.91-6.8,2.36-2.49,4.99-4.73,7.88-6.7,2.89-1.97,5.81-3.68,8.77-5.12,2.96-1.44,5.62-2.49,7.98-3.15,1.44,0,3.35,.2,5.71,.59,2.36,.39,4.01,.86,4.93,1.38,1.44,.53,2.82,1.94,4.14,4.24,1.31,2.3,1.97,4.57,1.97,6.8,0,.92-.26,2.1-.79,3.55-.53,1.45-1.38,3.15-2.56,5.12-.53,1.45-1.12,2.79-1.77,4.04-.66,1.25-.99,2.14-.99,2.66-.66,1.45-1.55,2.14-2.66,2.07-1.12-.06-2.24-.66-3.35-1.77-1.12-1.11-2-2.46-2.66-4.04-.53-1.97-.72-3.58-.59-4.83,.13-1.25,.66-2.59,1.58-4.04,1.44-1.44,2.17-2.43,2.17-2.96s-.72-.79-2.17-.79c-.92,0-2.6,.56-5.02,1.67-2.43,1.12-4.99,2.56-7.68,4.33-2.69,1.77-5.02,3.65-6.99,5.62-2.5,2.36-3.97,4.07-4.43,5.12-.46,1.05-.69,2.69-.69,4.93,0,1.84,.43,4.14,1.28,6.9,.85,2.76,1.74,4.6,2.66,5.52,1.84,3.55,3.41,6.3,4.73,8.28,3.81,8.41,4.79,14.45,2.96,18.13-1.84,3.68-6.63,5.78-14.38,6.31Z"/>
        <path class="cls-1" d="M385.73,123.14c-2.76,.53-4.5,.69-5.22,.49-.72-.2-1.81-.95-3.25-2.27-2.1-1.05-3.84-2.36-5.22-3.94s-2.36-3.25-2.96-5.02-.82-3.25-.69-4.43c.39-4.6,1.51-9.52,3.35-14.78,1.84-5.25,4.07-10.31,6.7-15.17,2.63-4.86,5.48-9.03,8.57-12.51,3.08-3.48,6.07-5.74,8.96-6.8,2.63-1.05,5.12-1.44,7.49-1.18,2.36,.27,4.07,1.51,5.12,3.74,1.97,3.81,1.51,6.24-1.38,7.29-.39,0-.86,.17-1.38,.49-.53,.33-.79,.76-.79,1.28,.52,.27,1.97,.3,4.33,.1,2.36-.2,4.76-.59,7.19-1.18,2.43-.59,4.04-1.21,4.83-1.87,.79-.39,1.38-.59,1.77-.59s1.38,.13,2.96,.39c2.23,.66,3.35,1.45,3.35,2.36,0,.53,.2,1.02,.59,1.48,.39,.46,.85,.69,1.38,.69,.92,.13,.82,.72-.3,1.77-1.12,1.05-2.99,2.5-5.62,4.33-2.5,1.58-4.04,2.6-4.63,3.05-.59,.46-.69,1.41-.3,2.86,1.05,2.5,1.11,5.39,.2,8.67-.92,3.28-2.56,6.63-4.93,10.05-2.36,3.42-5.22,6.6-8.57,9.56s-6.9,5.45-10.64,7.49c-3.74,2.04-7.39,3.25-10.94,3.64Zm-3.35-8.67c.52,0,1.44-.3,2.76-.89,1.31-.59,2.36-1.08,3.15-1.48,.52-.52,1.21-1.15,2.07-1.87,.85-.72,1.54-1.15,2.07-1.28,.52,0,1.18-.23,1.97-.69,.79-.46,1.9-1.44,3.35-2.96,1.44-1.51,3.35-3.77,5.71-6.8,2.63-2.89,4.66-5.55,6.11-7.98,1.44-2.43,1.84-4.69,1.18-6.8-.13-.52-.49-.85-1.08-.99-.59-.13-1.35-.46-2.27-.99-1.31,0-2.53-.36-3.65-1.08-1.12-.72-2.4-1.67-3.84-2.86l-3.15-3.94-3.35,3.35c-2.1,2.1-4.3,5.22-6.6,9.36-2.3,4.14-4.24,8.34-5.81,12.61-1.58,4.27-2.5,7.65-2.76,10.15-.13,1.97,.2,3.28,.99,3.94,.79,.66,1.84,1.05,3.15,1.18Z"/>
      </g>
      <g>
        <path class="cls-1" d="M973.4,631.41c-2.76,2.36-5.94,3.74-9.56,4.14-3.61,.39-7.13-.16-10.54-1.68-3.42-1.51-6.24-3.84-8.47-6.99-2.23-2.89-3.68-6.21-4.34-9.95-.66-3.74-.72-8.64-.2-14.68,.39-5.12,2.04-10.28,4.93-15.47,2.89-5.19,6.4-9.82,10.54-13.89,4.14-4.07,8.24-6.9,12.31-8.47,1.97-1.31,3.65-1.94,5.02-1.87,1.38,.07,3.51,.23,6.4,.49,3.02,.39,5.29,.99,6.8,1.77,1.51,.79,2.72,1.84,3.65,3.15,1.97,1.97,3.28,3.91,3.94,5.81,.66,1.91,.99,3.78,.99,5.62-.53,2.89-2.46,6.4-5.81,10.54-3.35,4.14-7.72,7.52-13.1,10.15-2.89,.92-6.04,1.31-9.46,1.18-3.42-.13-6.24-.99-8.47-2.56-2.5-1.05-4.14-.89-4.93,.49-.79,1.38-1.51,4.7-2.17,9.95-.53,4.99-.13,8.64,1.18,10.93,1.31,2.3,3.09,3.65,5.32,4.04,2.63,.53,4.69,.89,6.21,1.09,1.51,.2,3.38-.36,5.62-1.68,2.1-1.31,3.41-2.07,3.94-2.26,.52-.2,.95-.46,1.28-.79l2.46-2.46c.92-.92,1.64-1.61,2.17-2.07,.52-.46,1.11-.69,1.77-.69s1.25,.3,1.77,.89c.52,.59,1.05,1.02,1.58,1.28,1.31,0,1.61,.79,.89,2.36-.72,1.58-2.14,3.45-4.24,5.61-2.1,2.17-4.6,4.17-7.49,6.01Zm-.2-41.77c1.44-.66,2.96-1.61,4.53-2.86,1.58-1.25,2.92-2.63,4.04-4.14,1.11-1.51,1.67-2.79,1.67-3.84,0-1.84-.86-3.38-2.56-4.63-1.71-1.25-4.27-1.41-7.68-.49-1.45,.39-3.09,1.35-4.93,2.86-1.84,1.51-3.58,3.19-5.22,5.02-1.64,1.84-2.96,3.48-3.94,4.93-.99,1.45-1.35,2.3-1.08,2.56,.39,.66,1.51,1.15,3.35,1.48,1.84,.33,3.91,.43,6.21,.3,2.3-.13,4.17-.52,5.62-1.18Z"/>
        <path class="cls-1" d="M1006.5,631.41c-1.18-.92-2-1.84-2.46-2.76-.46-.92-.49-2.69-.1-5.32,.39-3.68,.92-6.93,1.58-9.75,.66-2.82,1.44-6.07,2.36-9.75,.26-1.58,1.02-4.27,2.27-8.08,1.25-3.81,2.79-7.95,4.63-12.41,1.84-4.46,3.68-8.7,5.52-12.71,1.84-4.01,3.41-6.99,4.73-8.96,1.05-.79,2.33-1.12,3.84-.99,1.51,.13,2.79,.72,3.84,1.77,1.44,1.18,1.67,3.25,.69,6.21-.99,2.96-2.99,7.58-6.01,13.89-1.58,3.55-2.76,6.21-3.55,7.98-.79,1.77-1.12,2.83-.99,3.15,.13,.33,.72,.17,1.77-.49,.79-1.45,2.23-3.12,4.33-5.02,2.1-1.9,4.34-3.77,6.7-5.62,2.36-1.84,4.6-3.48,6.7-4.93,2.1-1.44,3.55-2.36,4.33-2.76,1.05-.66,2.27-1.21,3.65-1.67,1.38-.46,2.33-.82,2.86-1.08,3.02-1.44,6.11-1.97,9.26-1.58,3.15,.39,5.12,1.58,5.91,3.55,.13,1.05,.92,2.1,2.36,3.15,.52,0,.85,.39,.99,1.18,0,.92-.69,1.48-2.07,1.67-1.38,.2-3.12,.36-5.22,.49-1.71,.13-3.22,.46-4.53,.99-1.31,.53-2.89,1.18-4.73,1.97-4.99,2.89-9.75,5.71-14.28,8.47-4.53,2.76-8.9,6.44-13.1,11.03-.92,1.05-1.84,2.3-2.76,3.74-.92,1.45-1.9,3.02-2.96,4.73-.66,.66-1.31,2.1-1.97,4.34-.66,2.23-1.22,4.37-1.67,6.4-.46,2.04-.69,3.25-.69,3.64-.79,2.5-1.64,4.34-2.56,5.52-1.58,2.1-2.89,3.15-3.94,3.15s-2.63-1.05-4.73-3.15Z"/>
        <path class="cls-1" d="M1093.78,632c-1.32,.92-2.24,1.35-2.76,1.28-.53-.07-1.51-.82-2.96-2.27-2.5-2.36-4.24-6.86-5.22-13.5-.99-6.63-1.48-15.99-1.48-28.08,.52-5.38,.82-9.98,.89-13.79,.06-3.81,.1-5.98,.1-6.5,.39-.52,1.21-.79,2.46-.79s2.33,.27,3.25,.79c1.31,.66,2.2,1.64,2.66,2.96,.46,1.31,.75,3.64,.89,6.99,.13,3.35,.2,8.44,.2,15.27-.39,5.25-.59,9.82-.59,13.69s.2,6.08,.59,6.6c.52,.92,1.15,1.15,1.87,.69,.72-.46,2.07-1.68,4.04-3.65,1.05-1.44,2.36-3.38,3.94-5.81,1.58-2.43,2.82-4.36,3.74-5.81,1.44-1.84,2.79-3.61,4.04-5.32,1.25-1.71,2.13-2.82,2.66-3.35,.52-1.05,1.18-2.03,1.97-2.96,.79-.92,1.44-1.84,1.97-2.76,1.44-2.49,2.96-4.56,4.53-6.21,1.58-1.64,2.63-2.46,3.15-2.46,.52,.39,1.02,.49,1.48,.3,.46-.2,.95-.3,1.48-.3,.92-.92,2.17-.92,3.74,0,.52,.39,.99,.82,1.38,1.28,.39,.46,.59,.95,.59,1.48,0,.66-.49,2.04-1.48,4.14-.99,2.1-2.1,4.11-3.35,6.01-1.25,1.91-2.2,3.05-2.86,3.45-.79,.79-1.45,1.45-1.97,1.97-.26,.92-1.12,2.53-2.56,4.83-1.45,2.3-3.22,4.89-5.32,7.78-2.1,2.89-4.27,5.78-6.5,8.67-2.23,2.89-4.21,5.45-5.91,7.68-1.32,1.84-2.83,3.45-4.53,4.83-1.71,1.38-3.09,2.33-4.14,2.86Z"/>
        <path class="cls-1" d="M1148.75,632.19c-1.97-.26-3.65-1.68-5.02-4.24-1.38-2.56-2.2-4.89-2.46-6.99,.13-1.05,.3-2.56,.49-4.53,.2-1.97,.42-4.01,.69-6.11,.52-2.49,1.25-5.55,2.17-9.16,.92-3.61,1.87-7.26,2.86-10.93,.99-3.68,1.87-6.83,2.66-9.46,.79-2.63,1.31-4.2,1.58-4.73,.66-1.05,1.71-1.31,3.15-.79,1.44,.53,2.63,1.32,3.55,2.36,.79,1.05,1.28,2.3,1.48,3.74,.2,1.45,0,3.55-.59,6.3-.59,2.76-1.67,6.83-3.25,12.22-1.45,5.26-2.53,9.49-3.25,12.71-.72,3.22-1.02,6.6-.89,10.15-.53,4.47-.92,7.19-1.18,8.18-.26,.99-.92,1.41-1.97,1.28Zm22.66-78.62c-.53,.39-1.02,.56-1.48,.49-.46-.06-1.22-.42-2.27-1.08-.92-.13-2.07-.75-3.45-1.87-1.38-1.11-2.56-2.3-3.55-3.55-.99-1.25-1.48-2-1.48-2.27-.13-1.31-.03-2.99,.3-5.02,.33-2.03,1.02-3.87,2.07-5.52,1.05-1.64,2.56-2.53,4.53-2.66,.52,0,.99,.07,1.38,.2,.39,.13,1.58,.59,3.55,1.38,1.05,1.97,2.1,4.17,3.15,6.6,1.05,2.43,1.51,4.8,1.38,7.09-.13,2.3-1.51,4.37-4.14,6.21Z"/>
        <path class="cls-1" d="M1204.11,633.18c-1.71,.79-3.68,1.12-5.91,.99-2.23-.13-5.25-.85-9.06-2.17-.26,0-.82-.26-1.67-.79-.86-.52-1.71-1.21-2.56-2.07-.86-.85-1.55-1.8-2.07-2.86-2.1-3.02-2.96-7.49-2.56-13.4,.39-5.91,2.23-13.01,5.52-21.28,.92-1.97,2.33-4.46,4.24-7.49,1.9-3.02,3.81-5.81,5.71-8.37,1.9-2.56,3.25-4.04,4.04-4.43,2.89-1.05,5.45-2.17,7.68-3.35,.66-.26,1.41-.52,2.27-.79,.85-.26,1.74-.46,2.66-.59,.92-.13,1.71-.13,2.36,0,2.63,.13,5.35,1.08,8.18,2.86,2.82,1.77,5.15,3.81,6.99,6.11,1.84,2.3,2.43,4.3,1.77,6.01,0,.27-.36,.76-1.08,1.48-.72,.72-1.51,1.45-2.36,2.17-.86,.72-1.55,1.41-2.07,2.07-.66,.79-1.55,1.12-2.66,.99-1.12-.13-2.1-.69-2.96-1.68-.86-.99-1.35-2.26-1.48-3.84-.26-1.05-2.04-2.49-5.32-4.33-1.05,0-2.53,.95-4.43,2.86-1.9,1.91-3.78,4.17-5.61,6.8-2.36,2.36-4.4,5.16-6.11,8.37-1.71,3.22-3.05,6.24-4.04,9.06-.99,2.83-1.67,4.83-2.07,6.01-.53,1.31-.59,3.15-.2,5.52,.39,2.36,.85,3.81,1.38,4.34,.52,.26,1.87,.33,4.04,.2,2.17-.13,4.76-.42,7.78-.89,3.02-.46,5.98-1.02,8.87-1.67,2.89-.66,5.25-1.38,7.09-2.17,2.49-1.58,4.66-2.49,6.5-2.76,1.84-.26,3.22-.26,4.14,0,1.44,.53,2.3,1.25,2.56,2.17,.26,.92-.07,1.94-.99,3.05-.92,1.12-2.5,2.26-4.73,3.45-2.1,1.05-3.97,2.2-5.62,3.45-1.64,1.25-2.46,2.2-2.46,2.86-.53,0-1.08,.17-1.67,.49-.59,.33-1.08,.43-1.48,.3-.26,0-1.31,.2-3.15,.59-1.84,.39-3.71,.86-5.62,1.38-1.91,.53-3.19,.99-3.84,1.38Z"/>
        <path class="cls-1" d="M1297.45,612.11l-.21,.02c-.83,.09-1.68,.09-2.5-.06-1.07-.2-2.09-.22-3.04-.07-1.25,.2-2.14,.76-2.66,1.67-2.1,1.71-4.37,3.94-6.8,6.7-2.43,2.76-4.89,4.47-7.39,5.12-3.02,.92-5.35,.69-6.99-.69-1.64-1.38-2.92-2.53-3.84-3.45-.26-.52-.53-1.44-.79-2.76-.26-1.31-.26-3.41,0-6.3,.26-3.68,.66-6.5,1.18-8.47,.52-1.97,1.25-2.69,2.17-2.17,.79,.39,2.33,.63,4.63,.69,2.3,.07,4.79-.03,7.49-.29,2.69-.26,4.89-.59,6.6-.99,1.97-.79,4.14-2.04,6.5-3.74,2.36-1.7,4.46-3.48,6.3-5.32,1.84-1.84,2.96-3.41,3.35-4.73,.92-1.84,1.51-3.87,1.77-6.11,.26-2.23,.16-4.33-.3-6.3-.46-1.97-1.55-3.55-3.25-4.73-1.45-1.58-2.99-2.96-4.63-4.14-1.64-1.18-3.65-1.84-6.01-1.97-1.05-.13-2.33-.06-3.84,.2-1.51,.26-2.92,.59-4.24,.99-1.32,.39-2.3,.72-2.96,.99-1.45,.79-3.25,2.07-5.42,3.84-2.17,1.77-4.34,3.71-6.5,5.81-2.17,2.1-3.91,4.21-5.22,6.3-1.31,2.63-2.56,4.3-3.74,5.02-1.18,.72-2.04,.62-2.56-.3,0-.52-.33-.85-.99-.99-.66-.13-1.25-.2-1.77-.2-.53-.26-1.08-.26-1.67,0-.59,.26-1.15,.39-1.67,.39s-.92,.56-1.18,1.68c-.26,1.12-.33,2.14-.2,3.05-.13,.66,.3,1.45,1.28,2.36,.99,.92,1.67,1.64,2.07,2.17,1.44,1.31,2.17,2.63,2.17,3.94s-.13,4.01-.39,8.08c-.92,7.88-.63,13.69,.89,17.44,1.51,3.74,4.83,6.67,9.95,8.77,3.15,1.18,6.43,1.74,9.85,1.67,3.41-.07,7.09-1.15,11.03-3.25,1.31-.79,2.79-1.87,4.43-3.25,1.64-1.38,3.79-3.77,5.16-5.15l3.94-.33h68.55v-11.17h-68.55Zm-27.92-22.47c1.05-1.58,2.43-3.32,4.14-5.22,1.71-1.9,3.45-3.61,5.22-5.12,1.77-1.51,3.12-2.46,4.04-2.86,1.44-1.05,2.99-1.8,4.63-2.27,1.64-.46,3.05-.03,4.24,1.28,.52,.53,.89,1.51,1.08,2.96,.2,1.45,.03,2.89-.49,4.33-2.36,3.55-4.33,5.94-5.91,7.19-1.58,1.25-3.22,2-4.93,2.27-1.71,.26-4.01,.72-6.9,1.38-.66,0-1.87-.06-3.65-.2-1.77-.13-2.53-.46-2.27-.99-.53-.26-.26-1.18,.79-2.76Z"/>
      </g>
      <path class="cls-1" d="M854.69,622.73c.72,.39,1.61,1.71,2.66,3.94,1.7,3.02,4.63,5.32,8.77,6.9,4.14,1.58,8.8,2.27,13.99,2.07,5.18-.2,10.15-1.34,14.88-3.45,4.86-1.97,7.91-4.04,9.16-6.21,1.24-2.17,.75-4.96-1.48-8.37-.39-1.04-.86-1.9-1.38-2.56-.53-.65-1.35-1.51-2.46-2.56-1.12-1.04-2.93-2.76-5.42-5.12-1.97-.92-3.78-1.77-5.42-2.56-1.65-.79-3.39-1.64-5.22-2.56-2.11-1.04-4.63-2.59-7.59-4.63-2.96-2.03-5.75-4.3-8.37-6.8-2.63-2.49-4.53-4.79-5.71-6.9-2.11-1.97-3.68-4.69-4.73-8.18-1.05-3.48-1.45-7.19-1.18-11.13,.26-3.94,1.24-7.49,2.96-10.64,.79-1.83,2.13-4.1,4.04-6.8,1.9-2.69,4.04-5.42,6.4-8.18,2.36-2.76,4.66-5.25,6.9-7.49,2.23-2.23,4.07-3.8,5.52-4.73,1.04-1.04,2.76-2.69,5.12-4.93,.13-.65,.52-.99,1.18-.99,.65-.39,2.1-1.04,4.33-1.97,2.23-.92,4.66-2.62,7.29-5.12,8.8-4.2,15.96-7.29,21.48-9.26,5.52-1.97,10.05-2.96,13.6-2.96,3.28,.14,6.27,.89,8.96,2.27,2.69,1.38,4.93,3.19,6.7,5.42,1.77,2.24,2.86,4.93,3.25,8.08,.92,3.15,.65,6.8-.79,10.94-1.45,4.14-3.59,8.02-6.4,11.62-2.83,3.62-5.88,6.34-9.16,8.18-3.68,1.58-6.15,2.27-7.39,2.07-1.25-.2-1.81-1.54-1.67-4.04,0-1.04,.35-2.3,1.08-3.74,.72-1.44,2.72-4,6.01-7.68,4.2-6.17,6.76-11.09,7.68-14.78,.92-3.67,.06-5.71-2.56-6.11-.79-.26-2.21-.26-4.24,0-2.04,.27-4.28,.63-6.7,1.08-2.43,.46-4.5,.93-6.21,1.38-1.71,.46-2.56,.83-2.56,1.08,0,.79-.27,1.12-.79,.99-.27,0-1.38,.53-3.35,1.58-1.97,1.05-4.33,2.43-7.09,4.14-2.76,1.71-5.52,3.42-8.28,5.12-2.76,1.71-5.09,3.19-6.99,4.43-1.91,1.25-2.93,2.01-3.05,2.27-.27,1.45-1.77,2.76-4.53,3.94-2.63,1.58-5.02,3.88-7.19,6.9-2.17,3.02-4.57,6.77-7.19,11.23-2.24,3.02-3.81,6.28-4.73,9.75-.93,3.49-.93,6.28,0,8.37,.65,2.11,2.69,4.8,6.11,8.08,3.41,3.29,7.68,6.44,12.81,9.46,4.46,2.5,8.47,4.97,12.02,7.39,3.55,2.43,6.46,4.77,8.77,6.99,2.3,2.24,3.84,4.21,4.63,5.91,1.58,2.24,2.72,4.5,3.45,6.8,.72,2.31,1.11,4.5,1.18,6.6,.06,2.11-.17,4.01-.69,5.71-.93,2.11-2.53,4.28-4.83,6.5-2.31,2.24-4.24,3.28-5.81,3.15-1.45,.39-2.53,.86-3.25,1.38-.73,.52-1.55,.99-2.46,1.38-.93,.52-2.86,1.05-5.81,1.58-2.96,.52-6.21,.89-9.75,1.08-3.55,.2-6.87,.57-9.85,.1-2.42-.38-5.76-1.29-8.34-2.88-2.96-1.82-6.47-4.91-8.11-6.68-1.65-1.77-2.99-3.51-4.04-5.22-1.05-1.7-2.93-2.53-2.93-2.53-1.05-.25-107.09-24.69-224.33-61.05-157.99-48.99-260.07-95.2-303.43-137.3-19.62-19.07-28.8-39.91-27.24-61.95,4-56.8,78.58-111.2,138.49-154.93,30.06-21.93,56.02-40.86,68.12-56.06,23.51-29.51,22.16-41.34,20.48-45.05-2.28-5.05-9.36,.42-9.44,.41l-5.46-.65c-1.58,1.7-3.32,3.08-5.22,4.14-1.9,1.05-3.77,1.58-5.62,1.58-1.7,0-3.62-.86-5.71-2.56-2.1-1.7-3.62-3.62-4.53-5.71-.52-1.45-.82-3.02-.89-4.73s-.1-4.86-.1-9.46v-7.29c0-2.1-.62-2.73-1.87-1.87-1.25,.86-2.27,1.61-3.05,2.27-1.97,1.7-4.04,3.67-6.21,5.91-2.17,2.24-4.36,4.53-6.6,6.9-6.04,6.3-11.06,10.96-15.07,13.99-4.01,3.02-6.73,4.53-8.18,4.53-.52,0-1.28-.36-2.27-1.08-.99-.72-1.74-1.35-2.27-1.87-.92-1.05-1.48-2.1-1.67-3.15s-.3-3.42-.3-7.09c0-4.21,.86-8.77,2.56-13.69,1.7-4.93,4.6-11.85,8.67-20.79l6.5-13.79c.52-1.05,1.01-1.84,1.48-2.36,.46-.52,.89-1.05,1.28-1.58h1.97c1.05,0,2.1,.62,3.15,1.87,1.05,1.25,1.84,2.59,2.36,4.04,0,1.7-.23,3.48-.69,5.32-.46,1.84-2.07,4.6-4.83,8.28-.92,1.45-2.14,3.87-3.65,7.29-1.51,3.42-2.53,6.37-3.05,8.87-.13,.13-.39,.69-.79,1.67-.39,.99-.82,2.07-1.28,3.25-.46,1.18-.96,2.3-1.48,3.35l-.99,4.33,13.2-13.6c6.18-6.18,11.16-10.57,14.97-13.2,3.81-2.63,6.83-3.74,9.06-3.35,2.24,.39,4.14,2.17,5.71,5.32,.92,1.45,1.61,2.73,2.07,3.84,.46,1.11,.76,2.59,.89,4.43s0,4.6-.39,8.28v12.22c1.97-.52,3.55-1.01,4.73-1.48,1.18-.46,2.43-.96,3.74-1.48,1.18-.52,2.56-1.01,4.14-1.48,1.58-.46,3.55-.76,5.91-.89l.21,.33c.57,.02,13.92-5.26,19.1,6.04,5.73,12.49-1.42,31.04-21.88,56.72-13.03,16.37-39.56,35.72-70.27,58.12-58.06,42.35-130.3,95.07-133.93,146.69-1.33,18.86,6.48,36.24,23.88,53.15,41.49,40.29,144.87,86.85,298.94,134.64,104.93,32.55,200.8,55.49,220.04,60.02,2.27,.53,4.3,1.79,5.79,3.59h0Z"/>
    </g>
  </g>
</svg>