<?xml version="1.0" encoding="UTF-8"?>
<svg id="_レイヤー_2" data-name="レイヤー 2" xmlns="http://www.w3.org/2000/svg" viewBox="0 0 1152.01 1148.71">
  <defs>
    <style>
      .cls-1 {
        fill: #000000;
      }
    </style>
  </defs>
  <g id="_レイヤー_2-2" data-name="レイヤー 2">
    <g>
      <path class="cls-1" d="m513.14,1109.45l-14.91-1.74,1.03-8.78,26.29,3.07-5.46,46.72-11.38-1.33,4.43-37.93Z"/>
      <path class="cls-1" d="m470.81,1141.72l8.07-46.34,11.29,1.97-8.07,46.34-11.29-1.97Z"/>
      <path class="cls-1" d="m426.45,1131.92l2.12-8.93,18.64,4.42,2.29-9.65-13.95-3.31,2.06-8.67,13.95,3.31,4.39-18.51,11.15,2.65-10.86,45.76-29.79-7.07Z"/>
      <path class="cls-1" d="m405.73,1116.08l2.9-9.06-14.62-4.67,2.69-8.42,14.62,4.67,3.14-9.83-16.53-5.28,2.79-8.74,27.44,8.77-14.31,44.8-27.44-8.77,2.79-8.74,16.53,5.28Z"/>
      <path class="cls-1" d="m357.49,1096.85c-3.35,2.46-7.09,3.86-11.2,4.19-4.12.33-8.24-.45-12.38-2.37-5.07-2.34-8.79-5.69-11.16-10.03-2.37-4.34-3.09-9.11-2.17-14.29l11.43,5.29c.03,2.18.6,4.09,1.73,5.75,1.13,1.65,2.69,2.94,4.67,3.86,3.2,1.48,6.31,1.57,9.33.26,3.02-1.31,5.39-3.83,7.11-7.56,1.73-3.73,2.11-7.17,1.16-10.32-.95-3.15-3.03-5.46-6.24-6.95-1.99-.92-3.98-1.27-5.97-1.06-1.99.21-3.83,1.01-5.5,2.4l-11.43-5.29c3.35-4.06,7.45-6.58,12.29-7.57,4.84-.99,9.79-.31,14.86,2.04,4.13,1.91,7.41,4.55,9.82,7.9,2.41,3.35,3.77,7.09,4.07,11.22.31,4.13-.52,8.3-2.47,12.52-1.95,4.21-4.6,7.55-7.95,10.01Z"/>
      <path class="cls-1" d="m314.59,1038.41c2.11,3.65,3.16,7.62,3.13,11.89-.03,4.28-1.22,8.39-3.57,12.34-2.36,3.95-5.4,6.95-9.14,8.98-3.74,2.04-7.71,2.99-11.93,2.87-4.22-.12-8.23-1.32-12.02-3.58s-6.75-5.22-8.87-8.88c-2.11-3.65-3.14-7.59-3.09-11.83.05-4.23,1.26-8.33,3.62-12.28,2.36-3.95,5.4-6.96,9.13-9.03,3.73-2.07,7.69-3.04,11.89-2.93,4.2.11,8.2,1.3,11.99,3.56s6.75,5.22,8.87,8.88Zm-23.88-1.29c-3.22.99-5.88,3.25-7.98,6.78-2.13,3.57-2.86,6.99-2.19,10.28.67,3.29,2.61,5.89,5.84,7.81,3.26,1.94,6.49,2.44,9.68,1.48,3.2-.96,5.87-3.24,8.02-6.84,2.13-3.57,2.86-6.99,2.19-10.28-.67-3.28-2.63-5.9-5.89-7.84-3.22-1.92-6.44-2.39-9.66-1.39Z"/>
      <path class="cls-1" d="m206.03,1017.55l28.51-37.41,9.11,6.95-17.1,22.43,25.47-16.06,7.35,5.61-8.72,28.9,17.14-22.49,9.11,6.95-28.51,37.41-10.76-8.2,9.24-33.9-30.13,17.98-10.71-8.16Z"/>
      <path class="cls-1" d="m155.03,969.27l32.83-33.68,8.2,8-19.69,20.2,27.22-12.86,6.62,6.45-12.16,27.64,19.74-20.25,8.2,8-32.83,33.68-9.69-9.45,13.28-32.53-32.08,14.2-9.64-9.4Z"/>
      <path class="cls-1" d="m137,948.21l21.7-17.91c2.17-1.79,3.4-3.71,3.69-5.74.29-2.03-.42-4.08-2.12-6.15-1.71-2.07-3.6-3.17-5.68-3.3-2.08-.14-4.21.69-6.38,2.48l-21.7,17.91-7.29-8.84,21.65-17.87c3.24-2.67,6.55-4.24,9.92-4.71,3.38-.47,6.59-.01,9.65,1.38,3.06,1.39,5.76,3.51,8.12,6.37,2.36,2.86,3.91,5.88,4.65,9.06.74,3.18.53,6.36-.65,9.53-1.17,3.17-3.38,6.09-6.62,8.77l-21.65,17.87-7.29-8.84Z"/>
      <path class="cls-1" d="m125.19,852.77l6.39,9.51-13.38,32.09,24.08-16.19,6.39,9.51-39.03,26.24-6.39-9.51,13.5-32.16-24.19,16.26-6.39-9.51,39.03-26.24Z"/>
      <path class="cls-1" d="m72.91,855.8l40.84-23.33,5.68,9.95-40.84,23.33-5.68-9.95Z"/>
      <path class="cls-1" d="m74.78,836.78c-4.15-.25-7.92-1.56-11.3-3.93-3.38-2.37-6.05-5.61-8.02-9.72-2.4-5.04-3.13-9.99-2.18-14.84.95-4.86,3.43-8.99,7.45-12.39l5.42,11.37c-1.37,1.69-2.15,3.54-2.34,5.53-.19,2,.19,3.98,1.13,5.96,1.52,3.19,3.86,5.24,7.02,6.15,3.16.92,6.59.49,10.3-1.28,3.71-1.77,6.2-4.17,7.48-7.2,1.28-3.03,1.15-6.14-.37-9.33-.94-1.97-2.25-3.52-3.91-4.63-1.67-1.11-3.59-1.67-5.77-1.67l-5.42-11.37c5.17-.98,9.94-.31,14.29,2.02,4.35,2.33,7.73,6.01,10.13,11.05,1.96,4.11,2.8,8.23,2.51,12.35-.29,4.12-1.63,7.87-4.03,11.24-2.4,3.37-5.7,6.06-9.89,8.06-4.19,2-8.36,2.88-12.52,2.63Z"/>
      <path class="cls-1" d="m67.27,748.23l5.91,16.53,8.77-.15,4.04,11.29-50.02-.19-4.47-12.49,38.56-31.86,4.08,11.42-6.88,5.45Zm-7.34,5.75l-14.25,11.29,18.15-.37-3.9-10.91Z"/>
      <path class="cls-1" d="m13.93,702.1l8.89-2.29,3.11,12.07,36.66-9.45,2.86,11.09-36.66,9.45,3.11,12.07-8.89,2.29-9.08-35.23Z"/>
      <path class="cls-1" d="m9.46,678.67l46.2-8.82,2.15,11.25-46.2,8.82-2.15-11.25Z"/>
      <path class="cls-1" d="m49.54,648.54c-1.62,3.89-4.14,7.13-7.56,9.7-3.42,2.57-7.41,4.12-11.98,4.64-4.57.52-8.8-.09-12.68-1.83-3.88-1.74-7.06-4.32-9.51-7.75-2.46-3.43-3.94-7.34-4.44-11.73-.5-4.39.06-8.54,1.69-12.43,1.62-3.89,4.14-7.1,7.53-9.62,3.4-2.52,7.38-4.04,11.96-4.57,4.57-.52,8.81.07,12.71,1.79,3.9,1.71,7.08,4.27,9.54,7.68,2.46,3.41,3.93,7.31,4.44,11.7.5,4.39-.06,8.54-1.69,12.43Zm-13.45-19.78c-2.74-1.96-6.15-2.7-10.24-2.24-4.13.47-7.29,1.97-9.5,4.49s-3.1,5.65-2.67,9.37c.43,3.77,1.99,6.64,4.69,8.6,2.7,1.96,6.13,2.71,10.3,2.23,4.13-.47,7.29-1.97,9.5-4.49,2.21-2.52,3.1-5.67,2.67-9.44-.42-3.73-2.01-6.57-4.75-8.53Z"/>
      <path class="cls-1" d="m47.03,560.56l.19,11.46-28.7,19.63,29.01-.47.19,11.46-47.03.76-.19-11.46,28.83-19.63-29.14.47-.19-11.46,47.03-.76Z"/>
      <path class="cls-1" d="m28.6,494.32c2.1,1.5,3.68,3.62,4.76,6.35,1.08,2.73,1.4,6.01.95,9.82l-.82,7.05,16.77,1.94-1.32,11.38-46.72-5.41,2.14-18.44c.43-3.73,1.44-6.8,3.03-9.23,1.59-2.42,3.58-4.15,6-5.17,2.41-1.02,5.08-1.37,8.01-1.03,2.71.31,5.11,1.22,7.21,2.72Zm-4.41,10.96c-.9-1.18-2.28-1.88-4.14-2.1-1.86-.22-3.37.15-4.51,1.1-1.14.95-1.84,2.51-2.09,4.68l-.72,6.19,11.71,1.36.72-6.19c.25-2.17-.07-3.85-.97-5.04Z"/>
      <path class="cls-1" d="m48.3,473.02l2.86-14.73,8.68,1.69-5.05,25.98-46.17-8.97,2.19-11.25,37.49,7.28Z"/>
      <path class="cls-1" d="m19.47,427.7l27.09,7.61c2.71.76,4.98.68,6.82-.24,1.84-.92,3.12-2.67,3.84-5.25s.55-4.76-.53-6.55c-1.07-1.79-2.97-3.06-5.68-3.82l-27.09-7.61,3.1-11.03,27.03,7.59c4.04,1.13,7.22,2.96,9.53,5.46,2.31,2.51,3.77,5.41,4.37,8.71.6,3.3.4,6.74-.6,10.31-1,3.57-2.6,6.57-4.79,8.99-2.19,2.42-4.92,4.06-8.2,4.9-3.27.84-6.93.7-10.98-.44l-27.03-7.59,3.1-11.03Z"/>
      <path class="cls-1" d="m77.66,395.07c-2.01,2.15-4.33,3.59-6.96,4.34-2.63.74-5.39.61-8.31-.41l4.35-11.39c1.69.45,3.15.37,4.37-.27,1.22-.63,2.13-1.72,2.72-3.27.6-1.58.72-2.98.34-4.17-.38-1.2-1.22-2.04-2.51-2.54-1.08-.41-2.12-.39-3.11.07-.99.46-1.91,1.13-2.78,2.02-.86.89-1.96,2.2-3.3,3.94-1.96,2.5-3.72,4.49-5.28,5.95-1.56,1.46-3.44,2.51-5.65,3.15-2.2.64-4.68.44-7.44-.61-4.09-1.56-6.73-4.26-7.91-8.11-1.19-3.85-.87-8.15.94-12.91,1.85-4.84,4.49-8.3,7.94-10.38,3.45-2.08,7.28-2.43,11.49-1.07l-4.42,11.58c-1.45-.46-2.77-.36-3.95.29-1.18.65-2.06,1.72-2.63,3.23-.49,1.29-.55,2.47-.16,3.52.39,1.06,1.23,1.83,2.52,2.32,1.42.54,2.78.3,4.08-.74s2.95-2.79,4.95-5.28c2.04-2.47,3.84-4.43,5.39-5.87,1.55-1.44,3.41-2.49,5.57-3.14,2.16-.66,4.56-.48,7.19.52,2.5.96,4.54,2.46,6.09,4.51,1.56,2.05,2.48,4.52,2.77,7.4.29,2.88-.2,5.97-1.46,9.27-1.23,3.21-2.85,5.89-4.86,8.04Z"/>
      <path class="cls-1" d="m146.62,252.4l9.05-11.97,7.06,5.33-15.95,21.12-37.53-28.35,6.91-9.14,30.47,23.02Z"/>
      <path class="cls-1" d="m140.19,199.57l35.89,30.4-7.4,8.74-35.89-30.4,7.4-8.74Z"/>
      <path class="cls-1" d="m171.06,166.26l6.64,6.34-13.24,13.85,7.17,6.85,9.91-10.37,6.44,6.16-9.91,10.37,13.76,13.15-7.92,8.28-34-32.5,21.15-22.14Z"/>
      <path class="cls-1" d="m195.17,156.37l6.37,7.07,11.4-10.27,5.92,6.57-11.4,10.27,6.9,7.67,12.9-11.61,6.14,6.82-21.41,19.28-31.47-34.96,21.41-19.28,6.14,6.82-12.9,11.61Z"/>
      <path class="cls-1" d="m236.07,124.42c-.44-4.14.23-8.07,2.02-11.79,1.78-3.73,4.54-6.89,8.27-9.5,4.58-3.2,9.34-4.73,14.28-4.59,4.95.14,9.43,1.91,13.44,5.31l-10.32,7.22c-1.89-1.07-3.84-1.54-5.84-1.39-2,.14-3.89.84-5.69,2.1-2.89,2.02-4.53,4.67-4.92,7.93-.39,3.27.6,6.59,2.95,9.95,2.35,3.37,5.13,5.43,8.33,6.19,3.2.76,6.25.13,9.14-1.89,1.79-1.25,3.1-2.79,3.92-4.62.82-1.83,1.05-3.81.69-5.96l10.32-7.22c1.82,4.94,1.94,9.75.36,14.42-1.58,4.68-4.66,8.61-9.24,11.81-3.73,2.61-7.66,4.11-11.77,4.51-4.11.4-8.03-.31-11.75-2.13-3.72-1.81-6.91-4.62-9.57-8.43-2.66-3.81-4.21-7.78-4.65-11.91Z"/>
      <path class="cls-1" d="m308.14,116.75c-4.22,0-8.17-1.1-11.85-3.28-3.68-2.17-6.64-5.27-8.87-9.29-2.23-4.02-3.29-8.16-3.17-12.42.12-4.25,1.29-8.17,3.52-11.76,2.23-3.58,5.27-6.45,9.14-8.59,3.87-2.14,7.91-3.21,12.13-3.2,4.22.01,8.14,1.1,11.78,3.28,3.63,2.17,6.56,5.27,8.79,9.3,2.23,4.02,3.3,8.17,3.21,12.43-.09,4.26-1.24,8.18-3.44,11.75-2.21,3.57-5.25,6.43-9.11,8.58-3.87,2.14-7.91,3.21-12.13,3.2Zm13.12-19.99c.76-3.28.14-6.72-1.85-10.31-2.01-3.63-4.61-5.99-7.78-7.06-3.18-1.07-6.4-.7-9.68,1.12-3.32,1.84-5.37,4.38-6.15,7.62-.78,3.24-.15,6.7,1.88,10.37,2.01,3.63,4.61,5.99,7.78,7.06,3.17,1.07,6.42.69,9.74-1.15,3.28-1.82,5.3-4.37,6.06-7.65Z"/>
      <path class="cls-1" d="m380.82,33.43l17.96,43.47-10.59,4.38-10.77-26.07,1.05,30.09-8.55,3.53-20.58-22.09,10.8,26.13-10.59,4.38-17.96-43.47,12.51-5.17,24.63,25.05-.36-35.08,12.45-5.14Z"/>
      <path class="cls-1" d="m448.26,13.76l12.5,45.34-11.04,3.04-7.5-27.19-2.64,29.99-8.91,2.46-17.72-24.44,7.51,27.26-11.04,3.04-12.5-45.34,13.05-3.6,21.38,27.88,3.94-34.86,12.98-3.58Z"/>
      <path class="cls-1" d="m475.63,8.84l4.47,27.78c.45,2.78,1.47,4.81,3.08,6.09,1.61,1.28,3.74,1.71,6.38,1.28,2.65-.43,4.55-1.5,5.72-3.23,1.17-1.73,1.53-3.98,1.08-6.76l-4.47-27.78,11.31-1.82,4.46,27.72c.67,4.15.35,7.79-.95,10.94-1.3,3.15-3.33,5.69-6.07,7.63-2.74,1.93-5.94,3.2-9.6,3.79-3.66.59-7.05.4-10.17-.57-3.12-.97-5.75-2.76-7.89-5.38-2.14-2.62-3.54-6-4.21-10.15l-4.46-27.72,11.31-1.82Z"/>
      <path class="cls-1" d="m563.89,46.95l-11.44.7-20.91-27.78,1.78,28.96-11.44.7-2.89-46.95,11.44-.7,20.91,27.91-1.79-29.09,11.44-.7,2.89,46.95Z"/>
      <path class="cls-1" d="m587.93.32l-.76,47.03-11.46-.19.76-47.03,11.46.19Z"/>
      <path class="cls-1" d="m603.14,11.5c2.31-3.46,5.33-6.05,9.09-7.78,3.75-1.73,7.9-2.4,12.44-2.02,5.56.46,10.2,2.33,13.92,5.6,3.72,3.27,6.03,7.5,6.94,12.68l-12.55-1.05c-.77-2.04-1.97-3.64-3.6-4.8-1.63-1.17-3.53-1.84-5.71-2.02-3.52-.29-6.47.69-8.85,2.96-2.39,2.27-3.75,5.45-4.09,9.54s.48,7.46,2.45,10.09c1.98,2.63,4.72,4.09,8.24,4.39,2.18.18,4.17-.17,5.97-1.05,1.8-.88,3.25-2.26,4.35-4.14l12.55,1.05c-1.76,4.96-4.74,8.74-8.95,11.32-4.21,2.59-9.09,3.65-14.65,3.18-4.54-.38-8.52-1.73-11.93-4.05-3.41-2.32-5.97-5.37-7.67-9.15s-2.36-7.97-1.97-12.6c.39-4.63,1.73-8.67,4.04-12.13Z"/>
      <path class="cls-1" d="m683.42,49.63l-17.26-3.22-4.29,7.65-11.79-2.2,25.35-43.12,13.04,2.43,8.11,49.36-11.92-2.22-1.24-8.68Zm-1.28-9.23l-2.57-18-8.82,15.87,11.39,2.12Z"/>
      <path class="cls-1" d="m750.13,26.77l-2.5,8.83-11.99-3.39-10.29,36.43-11.02-3.12,10.29-36.43-11.99-3.39,2.5-8.83,35.01,9.89Z"/>
      <path class="cls-1" d="m772.6,34.69l-15.63,44.36-10.81-3.81,15.63-44.36,10.81,3.81Z"/>
      <path class="cls-1" d="m778.46,84.48c-2.55-3.36-4.07-7.17-4.57-11.42-.5-4.25.18-8.47,2.03-12.68s4.51-7.56,7.97-10.04c3.46-2.48,7.29-3.92,11.49-4.31s8.32.29,12.37,2.08c4.05,1.78,7.34,4.35,9.89,7.72,2.55,3.37,4.05,7.15,4.52,11.36.47,4.21-.23,8.42-2.08,12.63-1.85,4.21-4.5,7.57-7.95,10.08-3.45,2.51-7.26,3.97-11.44,4.37-4.18.41-8.29-.28-12.34-2.06-4.05-1.78-7.34-4.35-9.89-7.72Zm23.86-1.65c3.07-1.38,5.44-3.95,7.09-7.71,1.67-3.8,1.98-7.29.91-10.47-1.07-3.18-3.32-5.52-6.75-7.03-3.48-1.53-6.74-1.62-9.79-.28-3.05,1.34-5.43,3.93-7.12,7.77-1.67,3.8-1.98,7.29-.91,10.47,1.07,3.18,3.34,5.53,6.81,7.06,3.43,1.51,6.69,1.58,9.76.2Z"/>
      <path class="cls-1" d="m855.6,126.77l-9.95-5.68-2.27-34.69-14.38,25.2-9.95-5.68,23.3-40.85,9.95,5.68,2.2,34.81,14.44-25.32,9.95,5.68-23.3,40.85Z"/>
      <path class="cls-1" d="m922.15,144.32c-2.36,1.05-4.99,1.35-7.89.89-2.9-.45-5.89-1.84-8.95-4.15l-5.67-4.28-10.16,13.48-9.15-6.9,28.31-37.56,14.82,11.17c3,2.26,5.14,4.68,6.43,7.28,1.29,2.59,1.76,5.19,1.43,7.79s-1.39,5.08-3.17,7.43c-1.64,2.18-3.64,3.79-6,4.84Zm-7.22-9.34c1.47-.17,2.78-1.01,3.91-2.51s1.57-2.98,1.34-4.45-1.23-2.86-2.98-4.17l-4.98-3.75-7.1,9.42,4.98,3.75c1.75,1.32,3.36,1.89,4.83,1.71Z"/>
      <path class="cls-1" d="m930.55,172.09l11.26,9.92-5.85,6.64-19.86-17.49,31.09-35.3,8.6,7.57-25.24,28.66Z"/>
      <path class="cls-1" d="m984.22,170.11l-20.24,19.55c-2.02,1.95-3.1,3.96-3.23,6.01-.13,2.05.73,4.04,2.6,5.97s3.83,2.88,5.92,2.85c2.08-.03,4.14-1.02,6.16-2.97l20.24-19.54,7.96,8.24-20.2,19.5c-3.02,2.92-6.2,4.74-9.53,5.47-3.33.73-6.57.52-9.73-.62-3.15-1.15-6.02-3.05-8.59-5.72-2.58-2.67-4.36-5.56-5.34-8.67-.99-3.11-1.02-6.3-.09-9.55.92-3.25,2.9-6.34,5.92-9.25l20.2-19.5,7.96,8.24Z"/>
      <path class="cls-1" d="m983.03,236.8c-.84-2.82-.92-5.55-.24-8.2.68-2.64,2.19-4.97,4.54-6.97l7.65,9.49c-1.24,1.23-1.9,2.54-1.97,3.91-.07,1.37.42,2.71,1.45,3.99,1.06,1.32,2.21,2.12,3.44,2.39,1.22.27,2.38-.02,3.46-.89.9-.73,1.41-1.64,1.51-2.72.1-1.08-.02-2.22-.35-3.42-.33-1.2-.91-2.81-1.74-4.83-1.18-2.95-2-5.47-2.48-7.56-.48-2.08-.44-4.24.12-6.47.56-2.23,1.98-4.27,4.28-6.12,3.41-2.75,7.07-3.66,10.99-2.75,3.92.91,7.48,3.35,10.67,7.32,3.25,4.03,4.91,8.06,4.97,12.09.06,4.02-1.56,7.51-4.86,10.46l-7.78-9.65c1.13-1.02,1.71-2.21,1.74-3.55.03-1.35-.45-2.65-1.46-3.9-.87-1.08-1.86-1.72-2.96-1.91-1.11-.2-2.2.14-3.28,1.01-1.18.95-1.66,2.25-1.42,3.9.24,1.65.92,3.96,2.07,6.94,1.11,3.01,1.89,5.55,2.35,7.61.46,2.07.43,4.2-.09,6.4-.52,2.2-1.88,4.18-4.07,5.95-2.09,1.68-4.41,2.68-6.97,2.99-2.56.31-5.16-.13-7.79-1.34-2.63-1.2-5.06-3.18-7.27-5.93-2.16-2.68-3.66-5.43-4.5-8.25Z"/>
      <path class="cls-1" d="m1064.2,351.28l6.27,13.64-8.04,3.69-11.05-24.05,42.74-19.64,4.78,10.41-34.7,15.95Z"/>
      <path class="cls-1" d="m1113.77,370.63l-43.77,17.2-4.19-10.66,43.77-17.2,4.19,10.66Z"/>
      <path class="cls-1" d="m1128.47,413.66l-8.73,2.83-5.91-18.23-9.43,3.06,4.42,13.64-8.48,2.75-4.42-13.64-18.1,5.87-3.53-10.9,44.74-14.51,9.45,29.12Z"/>
      <path class="cls-1" d="m1125.72,439.59l-9.25,2.24,3.61,14.91-8.6,2.08-3.61-14.91-10.03,2.43,4.08,16.87-8.92,2.16-6.78-28,45.71-11.07,6.78,28-8.92,2.16-4.08-16.87Z"/>
      <path class="cls-1" d="m1134.36,490.78c3.84,1.58,6.98,4.05,9.41,7.39,2.43,3.34,3.9,7.28,4.42,11.8.63,5.55-.29,10.46-2.77,14.75-2.48,4.28-6.17,7.38-11.08,9.29l-1.43-12.51c1.85-1.16,3.18-2.65,4.01-4.47.82-1.83,1.11-3.83.86-6-.4-3.51-1.95-6.21-4.64-8.1-2.69-1.9-6.08-2.61-10.16-2.14-4.08.47-7.22,1.93-9.41,4.38-2.19,2.45-3.09,5.43-2.69,8.94.25,2.17.98,4.06,2.2,5.65,1.22,1.59,2.85,2.74,4.91,3.45l1.43,12.51c-5.21-.75-9.5-2.94-12.85-6.55-3.36-3.62-5.35-8.2-5.99-13.75-.52-4.53.03-8.69,1.64-12.49,1.61-3.8,4.1-6.91,7.47-9.32,3.37-2.41,7.36-3.88,11.97-4.4,4.61-.53,8.84,0,12.69,1.58Z"/>
      <path class="cls-1" d="m1106.72,557.88c1.99-3.72,4.82-6.69,8.47-8.92s7.77-3.38,12.37-3.45c4.6-.07,8.75.94,12.45,3.05,3.7,2.11,6.6,4.99,8.72,8.64,2.11,3.65,3.21,7.69,3.28,12.11.07,4.42-.89,8.49-2.88,12.21-2,3.72-4.81,6.67-8.43,8.85-3.63,2.18-7.74,3.31-12.34,3.38-4.6.07-8.76-.93-12.48-3.01-3.72-2.08-6.64-4.94-8.75-8.57-2.11-3.63-3.21-7.65-3.28-12.08-.07-4.42.89-8.49,2.88-12.21Zm11.46,20.99c2.54,2.21,5.86,3.29,9.97,3.22,4.15-.07,7.45-1.25,9.89-3.54,2.44-2.3,3.63-5.32,3.57-9.07-.06-3.8-1.34-6.8-3.83-9.02-2.49-2.22-5.84-3.29-10.04-3.22-4.15.07-7.45,1.25-9.89,3.54-2.44,2.29-3.63,5.34-3.57,9.14.06,3.75,1.36,6.73,3.9,8.95Z"/>
      <path class="cls-1" d="m1145.67,661.3l-46.79-4.77,1.16-11.4,28.06,2.86-26.99-13.33.94-9.2,29.2-7.66-28.13-2.87,1.16-11.4,46.79,4.77-1.37,13.46-33.73,9.83,31.07,16.3-1.37,13.4Z"/>
      <path class="cls-1" d="m1131.09,730.03l-45.86-10.45,2.54-11.17,27.5,6.26-25.17-16.52,2.05-9.01,29.92-4.04-27.57-6.28,2.54-11.17,45.86,10.45-3.01,13.2-34.68,5.64,28.85,19.97-2.99,13.13Z"/>
      <path class="cls-1" d="m1122.47,756.47l-26.59-9.21c-2.66-.92-4.93-.98-6.82-.17-1.89.81-3.27,2.48-4.15,5.02s-.83,4.72.13,6.57c.97,1.85,2.78,3.23,5.44,4.15l26.59,9.21-3.75,10.83-26.53-9.19c-3.97-1.37-7.03-3.38-9.19-6.02-2.16-2.64-3.44-5.62-3.85-8.96-.41-3.33,0-6.75,1.21-10.25,1.21-3.5,2.99-6.4,5.31-8.69,2.33-2.29,5.15-3.76,8.47-4.4,3.32-.65,6.96-.28,10.93,1.09l26.53,9.19-3.75,10.83Z"/>
      <path class="cls-1" d="m1047.08,816.16l4.8-10.4,34.37-5.23-26.34-12.16,4.8-10.4,42.7,19.72-4.8,10.4-34.49,5.18,26.46,12.22-4.8,10.4-42.7-19.72Z"/>
      <path class="cls-1" d="m1076.81,859.28l-41.14-22.79,5.55-10.02,41.14,22.79-5.55,10.02Z"/>
      <path class="cls-1" d="m1059.59,867.54c1.94,3.68,2.78,7.57,2.51,11.7-.27,4.12-1.65,8.09-4.15,11.9-3.06,4.67-6.91,7.86-11.55,9.57-4.64,1.71-9.46,1.73-14.46.07l6.9-10.54c2.16.29,4.14,0,5.94-.88,1.8-.88,3.3-2.23,4.5-4.06,1.93-2.95,2.47-6.02,1.61-9.19-.86-3.18-3-5.89-6.44-8.14-3.44-2.25-6.79-3.13-10.04-2.65-3.25.49-5.85,2.2-7.78,5.16-1.2,1.83-1.84,3.75-1.92,5.75-.08,2,.44,3.93,1.57,5.79l-6.9,10.54c-3.53-3.91-5.43-8.33-5.7-13.26-.27-4.93,1.12-9.73,4.18-14.4,2.5-3.81,5.58-6.67,9.25-8.56,3.67-1.9,7.57-2.69,11.7-2.39s8.13,1.72,12.02,4.27c3.89,2.54,6.8,5.65,8.75,9.33Z"/>
      <path class="cls-1" d="m987.84,919.97l11.04-13.65-4.69-7.41,7.54-9.32,25.86,42.82-8.35,10.31-47.27-16.36,7.63-9.43,8.23,3.04Zm8.73,3.27l17.05,6.3-9.76-15.31-7.29,9.01Z"/>
      <path class="cls-1" d="m976.26,989.52l-6.59-6.39,8.68-8.94-27.17-26.36,7.98-8.22,27.17,26.36,8.68-8.94,6.59,6.39-25.33,26.11Z"/>
      <path class="cls-1" d="m958.64,1005.54l-31.64-34.8,8.48-7.71,31.64,34.8-8.48,7.71Z"/>
      <path class="cls-1" d="m912.04,987.08c4.17-.65,8.24-.19,12.22,1.38,3.98,1.57,7.38,4.17,10.21,7.79,2.83,3.62,4.52,7.55,5.07,11.77.55,4.22,0,8.27-1.64,12.16-1.64,3.89-4.2,7.19-7.69,9.92-3.48,2.72-7.31,4.41-11.48,5.06-4.17.65-8.22.18-12.14-1.4-3.93-1.58-7.31-4.18-10.14-7.81-2.83-3.63-4.54-7.55-5.12-11.77-.58-4.22-.06-8.27,1.56-12.15,1.62-3.88,4.17-7.17,7.66-9.89,3.48-2.72,7.31-4.41,11.48-5.06Zm-9.84,21.8c-.24,3.36.91,6.66,3.44,9.9,2.56,3.27,5.49,5.19,8.79,5.76,3.3.57,6.43-.31,9.39-2.62,2.99-2.34,4.62-5.17,4.89-8.49.27-3.33-.89-6.64-3.48-9.95-2.56-3.27-5.49-5.19-8.79-5.76-3.3-.57-6.45.32-9.44,2.66-2.96,2.31-4.55,5.14-4.79,8.5Z"/>
      <path class="cls-1" d="m838.29,1035.04l9.71-6.08,31.64,14.41-15.41-24.58,9.71-6.08,24.98,39.85-9.71,6.08-31.71-14.52,15.48,24.7-9.71,6.08-24.98-39.85Z"/>
      <path class="cls-1" d="m791.34,1085.37c.19-2.57,1.17-5.03,2.95-7.37,1.77-2.34,4.4-4.32,7.89-5.92l6.45-2.97-7.07-15.33,10.41-4.79,19.68,42.72-16.86,7.77c-3.41,1.57-6.56,2.31-9.45,2.22-2.89-.09-5.41-.9-7.54-2.43-2.13-1.53-3.81-3.63-5.04-6.31-1.14-2.48-1.61-5-1.42-7.57Zm11.65-1.94c-.54,1.38-.42,2.92.36,4.63s1.88,2.8,3.28,3.28c1.4.48,3.1.27,5.09-.65l5.66-2.61-4.94-10.71-5.66,2.61c-1.99.92-3.25,2.06-3.8,3.45Z"/>
      <path class="cls-1" d="m762.89,1079.62l-14.07,5.21-3.07-8.29,24.82-9.2,16.34,44.1-10.74,3.98-13.27-35.81Z"/>
      <path class="cls-1" d="m739.16,1127.81l-7.58-27.1c-.76-2.71-2.01-4.61-3.75-5.7-1.74-1.09-3.9-1.27-6.49-.55-2.58.72-4.35,2.01-5.32,3.86-.97,1.85-1.07,4.13-.31,6.84l7.58,27.1-11.03,3.09-7.57-27.03c-1.13-4.04-1.23-7.7-.29-10.98.94-3.28,2.66-6.03,5.17-8.26,2.51-2.23,5.54-3.85,9.11-4.85,3.57-1,6.96-1.2,10.17-.58,3.21.61,6.02,2.09,8.45,4.45,2.42,2.36,4.2,5.56,5.33,9.61l7.57,27.03-11.03,3.09Z"/>
      <path class="cls-1" d="m681.04,1095.06c2.88.6,5.32,1.83,7.32,3.69,2,1.86,3.32,4.29,3.97,7.31l-11.99,2.21c-.49-1.68-1.33-2.88-2.5-3.59-1.18-.71-2.58-.92-4.2-.62-1.67.31-2.92.94-3.74,1.88-.82.95-1.11,2.1-.86,3.46.21,1.14.77,2.01,1.68,2.62.91.6,1.96,1.04,3.17,1.32,1.21.28,2.9.53,5.08.77,3.16.37,5.77.84,7.82,1.42,2.06.57,3.94,1.64,5.63,3.19,1.69,1.55,2.81,3.77,3.34,6.67.79,4.3-.14,7.96-2.81,10.98-2.67,3.01-6.51,4.98-11.52,5.9-5.1.94-9.43.48-13-1.38-3.57-1.86-5.86-4.95-6.88-9.26l12.19-2.25c.36,1.48,1.13,2.55,2.3,3.22,1.17.67,2.54.86,4.12.57,1.36-.25,2.39-.82,3.09-1.69.7-.88.93-2,.67-3.36-.28-1.49-1.19-2.53-2.75-3.1-1.56-.58-3.92-1.07-7.09-1.49-3.17-.46-5.78-.98-7.82-1.56-2.04-.58-3.9-1.62-5.58-3.13-1.69-1.51-2.78-3.64-3.29-6.41-.49-2.64-.26-5.15.69-7.55.94-2.4,2.57-4.47,4.88-6.21,2.31-1.74,5.2-2.94,8.67-3.58,3.38-.62,6.52-.63,9.4-.03Z"/>
    </g>
  </g>
</svg>